<svg width="543" height="501" viewBox="0 0 543 501" fill="none" xmlns="http://www.w3.org/2000/svg">
<path d="M17.9371 150.697C19.5652 149.713 21.2986 148.967 23.0856 148.459L24.1461 143.363L32.7566 143.212L33.9959 148.267C35.8004 148.712 37.5583 149.397 39.2204 150.323L43.5723 147.47L49.7674 153.452L47.0705 157.901C48.0551 159.529 48.8003 161.263 49.3084 163.05L54.4043 164.111L54.5562 172.721L49.5011 173.961C49.0561 175.764 48.3716 177.523 47.4454 179.184L50.2977 183.536L44.3163 189.731L39.8674 187.033C38.2392 188.016 36.5059 188.763 34.7177 189.27L33.6572 194.366L25.0467 194.516L23.8074 189.461C22.0029 189.016 20.245 188.332 18.583 187.406L14.231 190.258L8.03592 184.277L10.7328 179.828C9.74938 178.199 9.00303 176.466 8.49495 174.678L3.39896 173.617L3.24829 165.007L8.30339 163.768C8.7484 161.963 9.43285 160.205 10.3591 158.543L7.50682 154.191L13.4881 147.996L17.9371 150.697ZM22.5273 162.167C18.9836 165.838 19.0864 171.687 22.7574 175.23C26.4272 178.774 32.2766 178.671 35.8203 175C39.364 171.329 39.2612 165.481 35.5902 161.937C31.9192 158.394 26.071 158.496 22.5273 162.167Z" fill="#F5F5F5"/>
<path d="M316.284 6.37144C317.669 5.53398 319.145 4.89859 320.666 4.46643L321.569 0.128481L328.898 0L329.953 4.30291C331.489 4.68134 332.985 5.26418 334.4 6.05258L338.104 3.62431L343.377 8.71562L341.081 12.5023C341.918 13.8887 342.554 15.3639 342.986 16.8858L347.323 17.7886L347.451 25.1178L343.148 26.1725C342.77 27.7085 342.187 29.2047 341.398 30.6191L343.826 34.324L338.734 39.5975L334.948 37.3012C333.561 38.1387 332.086 38.7741 330.564 39.2051L329.661 43.543L322.332 43.6715L321.277 39.3686C319.741 38.9902 318.245 38.4073 316.831 37.6189L313.127 40.0472L307.853 34.9559L310.15 31.1692C309.312 29.7828 308.677 28.3076 308.245 26.7857L303.907 25.8829L303.778 18.5537L308.081 17.499C308.46 15.9631 309.043 14.4668 309.831 13.0524L307.404 9.34867L312.495 4.07515L316.284 6.37144ZM320.191 16.1348C317.174 19.2592 317.262 24.2372 320.386 27.2541C323.511 30.2711 328.489 30.1823 331.504 27.0579C334.52 23.9335 334.434 18.9555 331.309 15.9397C328.185 12.9228 323.207 13.0104 320.191 16.1348Z" fill="#F5F5F5"/>
<path d="M68.4928 11.3529C70.7435 9.99339 73.1402 8.96205 75.6106 8.25892L77.0764 1.21237L88.9807 1.0033L90.6941 7.99261C93.189 8.60698 95.6196 9.55423 97.917 10.8344L103.933 6.89002L112.498 15.1606L108.769 21.3101C110.13 23.5621 111.161 25.9588 111.863 28.4303L118.908 29.8961L119.117 41.8004L112.128 43.5138C111.514 46.0075 110.566 48.4381 109.286 50.7356L113.23 56.7531L104.96 65.3192L98.8094 61.5898C96.5586 62.9505 94.1619 63.9807 91.6904 64.6827L90.2234 71.7292L78.3192 71.9383L76.608 64.9513C74.1132 64.3358 71.6826 63.3897 69.3851 62.1096L63.3688 66.0539L54.8026 57.7833L58.5321 51.6326C57.1713 49.3819 56.14 46.9851 55.438 44.5136L48.3927 43.0478L48.1836 31.1435L55.1729 29.4301C55.7873 26.9364 56.7345 24.5046 58.0147 22.2083L54.0715 16.192L62.3409 7.62703L68.4928 11.3529ZM74.8385 27.2121C69.9388 32.287 70.0813 40.3731 75.1562 45.2728C80.2312 50.1726 88.3172 50.0301 93.2158 44.9551C98.1144 39.8802 97.9731 31.7941 92.8981 26.8955C87.8243 21.9946 79.7383 22.1371 74.8385 27.2121Z" fill="#F5F5F5"/>
<path d="M260.501 215.193C262.129 214.21 263.863 213.464 265.65 212.956L266.71 207.86L275.321 207.709L276.56 212.764C278.365 213.209 280.122 213.894 281.785 214.82L286.137 211.967L292.332 217.949L289.635 222.398C290.619 224.026 291.364 225.76 291.873 227.547L296.969 228.608L297.12 237.218L292.065 238.458C291.62 240.261 290.936 242.02 290.01 243.681L292.862 248.033L286.881 254.228L282.432 251.53C280.803 252.513 279.07 253.26 277.282 253.767L276.221 258.863L267.611 259.013L266.372 253.958C264.567 253.513 262.809 252.829 261.147 251.903L256.795 254.755L250.6 248.773L253.297 244.325C252.314 242.696 251.567 240.963 251.059 239.175L245.963 238.114L245.812 229.504L250.868 228.265C251.313 226.461 251.997 224.702 252.923 223.04L250.071 218.688L256.052 212.493L260.501 215.193ZM265.091 226.664C261.548 230.335 261.651 236.184 265.322 239.727C268.991 243.271 274.841 243.168 278.385 239.497C281.928 235.826 281.825 229.978 278.154 226.434C274.483 222.891 268.635 222.993 265.091 226.664Z" fill="#F5F5F5"/>
<path d="M284.755 369.295C286.383 368.311 288.117 367.565 289.904 367.057L290.964 361.961L299.575 361.81L300.814 366.865C302.619 367.31 304.376 367.995 306.038 368.921L310.39 366.069L316.585 372.051L313.889 376.5C314.873 378.128 315.618 379.863 316.126 381.65L321.222 382.71L321.374 391.321L316.319 392.56C315.874 394.364 315.19 396.123 314.264 397.783L317.116 402.135L311.134 408.33L306.686 405.632C305.057 406.616 303.324 407.362 301.536 407.869L300.475 412.965L291.865 413.116L290.626 408.061C288.821 407.616 287.063 406.931 285.401 406.005L281.049 408.857L274.854 402.876L277.551 398.427C276.567 396.799 275.821 395.065 275.313 393.277L270.217 392.217L270.066 383.606L275.121 382.367C275.567 380.562 276.251 378.805 277.177 377.143L274.325 372.791L280.306 366.595L284.755 369.295ZM289.345 380.765C285.802 384.436 285.904 390.284 289.575 393.827C293.245 397.371 299.095 397.268 302.638 393.597C306.182 389.926 306.079 384.078 302.408 380.534C298.737 376.992 292.889 377.095 289.345 380.765Z" fill="#F5F5F5"/>
<path d="M78.0328 272.863C79.1307 272.2 80.2987 271.698 81.5041 271.354L82.2189 267.918L88.025 267.817L88.8601 271.225C90.0772 271.525 91.2627 271.986 92.3828 272.611L95.3168 270.687L99.4948 274.721L97.6762 277.72C98.3396 278.818 98.843 279.987 99.1852 281.192L102.621 281.907L102.723 287.713L99.3149 288.55C99.0147 289.766 98.5533 290.951 97.9285 292.072L99.851 295.006L95.8179 299.184L92.8185 297.366C91.7205 298.029 90.5514 298.533 89.346 298.875L88.6312 302.311L82.8251 302.413L81.9899 299.003C80.7729 298.703 79.5885 298.242 78.4673 297.617L75.5332 299.541L71.3553 295.507L73.1739 292.508C72.5105 291.41 72.007 290.242 71.6648 289.036L68.2286 288.321L68.127 282.515L71.5363 281.678C71.8365 280.462 72.2979 279.277 72.9228 278.156L70.9991 275.222L75.0322 271.044L78.0328 272.863ZM81.128 280.598C78.7382 283.073 78.8071 287.016 81.2833 289.406C83.7583 291.796 87.7015 291.725 90.0912 289.251C92.4809 286.776 92.4108 282.832 89.9358 280.443C87.4609 278.054 83.5177 278.123 81.128 280.598Z" fill="#F5F5F5"/>
<path d="M86.6538 317.603C88.6546 316.394 90.785 315.477 92.982 314.852L94.2855 308.588L104.869 308.402L106.392 314.616C108.61 315.163 110.771 316.004 112.813 317.142L118.162 313.636L125.777 320.989L122.462 326.456C123.672 328.458 124.589 330.588 125.213 332.785L131.476 334.089L131.661 344.672L125.448 346.195C124.901 348.412 124.06 350.573 122.921 352.616L126.427 357.965L119.075 365.58L113.607 362.265C111.605 363.475 109.474 364.39 107.277 365.015L105.974 371.279L95.3904 371.465L93.8673 365.251C91.6493 364.704 89.4885 363.862 87.4457 362.725L82.0974 366.231L74.482 358.879L77.798 353.41C76.5891 351.408 75.6711 349.279 75.0473 347.081L68.7834 345.777L68.5977 335.194L74.8114 333.67C75.358 331.453 76.2002 329.291 77.3378 327.249L73.8315 321.9L81.1829 314.284L86.6538 317.603ZM92.2952 331.701C87.9386 336.213 88.0659 343.401 92.5779 347.758C97.0887 352.113 104.278 351.987 108.633 347.475C112.989 342.963 112.863 335.775 108.351 331.419C103.84 327.063 96.6518 327.191 92.2952 331.701Z" fill="#F5F5F5"/>
<path d="M541.178 16.7515H380.535V287.431H541.178V16.7515Z" fill="#E0E0E0"/>
<path d="M536.303 21.8358H384.863V282.981H536.303V21.8358Z" fill="#F5F5F5"/>
<path d="M520.968 35.7875H460.583V129.49H520.968V35.7875Z" fill="white"/>
<path d="M493.988 44.0722C493.988 45.3173 492.978 46.3264 491.733 46.3264C490.488 46.3264 489.479 45.3173 489.479 44.0722C489.479 42.8271 490.488 41.8179 491.733 41.8179C492.978 41.8191 493.988 42.8283 493.988 44.0722Z" fill="#E0E0E0"/>
<path d="M460.112 155.569H399.726V249.272H460.112V155.569Z" fill="white"/>
<path d="M433.131 163.853C433.131 165.098 432.122 166.107 430.877 166.107C429.632 166.107 428.623 165.098 428.623 163.853C428.623 162.608 429.632 161.599 430.877 161.599C432.122 161.6 433.131 162.609 433.131 163.853Z" fill="#E0E0E0"/>
<path d="M450.482 35.7875H398.909V108.959H450.482V35.7875Z" fill="white"/>
<path d="M426.567 42.4335C426.567 43.4671 425.728 44.3058 424.695 44.3058C423.661 44.3058 422.822 43.4683 422.822 42.4335C422.822 41.3998 423.661 40.5612 424.695 40.5612C425.729 40.5612 426.567 41.3998 426.567 42.4335Z" fill="#E0E0E0"/>
<path d="M522.955 156.857L467.801 163.079L471.249 193.638L526.402 187.416L522.955 156.857Z" fill="white"/>
<path d="M496.03 167.672C497.084 167.672 497.939 166.817 497.939 165.763C497.939 164.708 497.084 163.853 496.03 163.853C494.975 163.853 494.12 164.708 494.12 165.763C494.12 166.817 494.975 167.672 496.03 167.672Z" fill="#E0E0E0"/>
<path d="M452.055 176.941C452.055 177.19 442.573 177.391 430.878 177.391C419.179 177.391 409.698 177.19 409.698 176.941C409.698 176.693 419.179 176.492 430.878 176.492C442.573 176.492 452.055 176.694 452.055 176.941Z" fill="#E0E0E0"/>
<path d="M452.055 183.646C452.055 183.895 442.573 184.095 430.878 184.095C419.179 184.095 409.698 183.895 409.698 183.646C409.698 183.398 419.179 183.196 430.878 183.196C442.573 183.196 452.055 183.398 452.055 183.646Z" fill="#E0E0E0"/>
<path d="M452.055 190.35C452.055 190.599 442.573 190.8 430.878 190.8C419.179 190.8 409.698 190.599 409.698 190.35C409.698 190.101 419.179 189.9 430.878 189.9C442.573 189.9 452.055 190.101 452.055 190.35Z" fill="#E0E0E0"/>
<path d="M452.055 197.054C452.055 197.303 442.573 197.504 430.878 197.504C419.179 197.504 409.698 197.303 409.698 197.054C409.698 196.806 419.179 196.605 430.878 196.605C442.573 196.605 452.055 196.806 452.055 197.054Z" fill="#E0E0E0"/>
<path d="M452.055 203.759C452.055 204.008 442.573 204.208 430.878 204.208C419.179 204.208 409.698 204.006 409.698 203.759C409.698 203.51 419.179 203.309 430.878 203.309C442.573 203.309 452.055 203.51 452.055 203.759Z" fill="#E0E0E0"/>
<path d="M452.055 210.463C452.055 210.712 442.573 210.913 430.878 210.913C419.179 210.913 409.698 210.711 409.698 210.463C409.698 210.216 419.179 210.013 430.878 210.013C442.573 210.012 452.055 210.214 452.055 210.463Z" fill="#E0E0E0"/>
<path d="M452.055 217.166C452.055 217.415 442.573 217.616 430.878 217.616C419.179 217.616 409.698 217.414 409.698 217.166C409.698 216.919 419.179 216.717 430.878 216.717C442.573 216.717 452.055 216.919 452.055 217.166Z" fill="#E0E0E0"/>
<path d="M517.785 169.761C517.82 170.007 508.459 171.531 496.879 173.165C485.296 174.801 475.881 175.925 475.846 175.679C475.811 175.434 485.17 173.909 496.754 172.274C508.333 170.64 517.75 169.514 517.785 169.761Z" fill="#E0E0E0"/>
<path d="M518.626 173.954C518.661 174.2 509.3 175.724 497.72 177.358C486.136 178.994 476.72 180.118 476.687 179.872C476.652 179.626 486.011 178.103 497.595 176.467C509.175 174.833 518.592 173.707 518.626 173.954Z" fill="#E0E0E0"/>
<path d="M519.396 177.826C519.431 178.072 510.07 179.596 498.49 181.23C486.907 182.864 477.491 183.99 477.457 183.744C477.422 183.497 486.781 181.973 498.365 180.339C509.943 178.705 519.361 177.579 519.396 177.826Z" fill="#E0E0E0"/>
<path d="M515.658 55.3901C515.658 55.6389 504.945 55.8398 491.734 55.8398C478.518 55.8398 467.808 55.6389 467.808 55.3901C467.808 55.1413 478.518 54.9404 491.734 54.9404C504.946 54.9404 515.658 55.1425 515.658 55.3901Z" fill="#E0E0E0"/>
<path d="M515.658 59.3764C515.658 59.6252 504.945 59.8261 491.734 59.8261C478.518 59.8261 467.808 59.6252 467.808 59.3764C467.808 59.1277 478.518 58.9268 491.734 58.9268C504.946 58.9268 515.658 59.1277 515.658 59.3764Z" fill="#E0E0E0"/>
<path d="M515.658 63.3628C515.658 63.6116 504.945 63.8125 491.734 63.8125C478.518 63.8125 467.808 63.6104 467.808 63.3628C467.808 63.114 478.518 62.9131 491.734 62.9131C504.946 62.9131 515.658 63.114 515.658 63.3628Z" fill="#E0E0E0"/>
<path d="M515.658 67.3492C515.658 67.598 504.945 67.7989 491.734 67.7989C478.518 67.7989 467.808 67.5968 467.808 67.3492C467.808 67.1004 478.518 66.8995 491.734 66.8995C504.946 66.8995 515.658 67.1004 515.658 67.3492Z" fill="#E0E0E0"/>
<path d="M515.658 71.3356C515.658 71.5844 504.945 71.7853 491.734 71.7853C478.518 71.7853 467.808 71.5844 467.808 71.3356C467.808 71.0868 478.518 70.8859 491.734 70.8859C504.946 70.8848 515.658 71.0868 515.658 71.3356Z" fill="#E0E0E0"/>
<path d="M515.658 75.3208C515.658 75.5696 504.945 75.7705 491.734 75.7705C478.518 75.7705 467.808 75.5684 467.808 75.3208C467.808 75.0732 478.518 74.8712 491.734 74.8712C504.946 74.8712 515.658 75.0732 515.658 75.3208Z" fill="#E0E0E0"/>
<path d="M515.658 79.3072C515.658 79.556 504.945 79.7569 491.734 79.7569C478.518 79.7569 467.808 79.556 467.808 79.3072C467.808 79.0584 478.518 78.8575 491.734 78.8575C504.946 78.8575 515.658 79.0596 515.658 79.3072Z" fill="#E0E0E0"/>
<path d="M515.658 91.1367C515.658 91.3855 504.945 91.5864 491.734 91.5864C478.518 91.5864 467.808 91.3855 467.808 91.1367C467.808 90.8879 478.518 90.687 491.734 90.687C504.946 90.687 515.658 90.8891 515.658 91.1367Z" fill="#E0E0E0"/>
<path d="M515.996 95.3474C515.996 95.5962 505.284 95.7971 492.071 95.7971C478.856 95.7971 468.145 95.5962 468.145 95.3474C468.145 95.0986 478.856 94.8977 492.071 94.8977C505.283 94.8977 515.996 95.0986 515.996 95.3474Z" fill="#E0E0E0"/>
<path d="M516.332 99.5579C516.332 99.8067 505.619 100.008 492.408 100.008C479.192 100.008 468.481 99.8067 468.481 99.5579C468.481 99.3092 479.192 99.1083 492.408 99.1083C505.62 99.1083 516.332 99.3092 516.332 99.5579Z" fill="#E0E0E0"/>
<path d="M516.67 103.769C516.67 104.017 505.957 104.218 492.746 104.218C479.53 104.218 468.819 104.017 468.819 103.769C468.819 103.52 479.53 103.319 492.746 103.319C505.957 103.318 516.67 103.52 516.67 103.769Z" fill="#E0E0E0"/>
<path d="M517.006 107.978C517.006 108.227 506.293 108.428 493.082 108.428C479.866 108.428 469.155 108.226 469.155 107.978C469.155 107.729 479.866 107.528 493.082 107.528C506.293 107.528 517.006 107.731 517.006 107.978Z" fill="#E0E0E0"/>
<path d="M517.344 112.189C517.344 112.438 506.631 112.638 493.42 112.638C480.204 112.638 469.493 112.438 469.493 112.189C469.493 111.94 480.204 111.739 493.42 111.739C506.631 111.739 517.344 111.94 517.344 112.189Z" fill="#E0E0E0"/>
<path d="M181.72 70.1068H147.104C144.712 70.1068 142.773 68.168 142.773 65.7759V17.8622C142.773 15.4701 144.712 13.5312 147.104 13.5312H169.058L186.051 31.0466V65.7759C186.051 68.1668 184.112 70.1068 181.72 70.1068Z" fill="#F5F5F5"/>
<path d="M180.762 70.1068H148.063C145.142 70.1068 142.773 67.7381 142.773 64.817V52.9407H186.051V64.817C186.051 67.7381 183.683 70.1068 180.762 70.1068Z" fill="#E0E0E0"/>
<path d="M158.111 64.0134L159.2 62.7064C159.66 63.3231 160.168 63.6384 160.773 63.6384C161.559 63.6384 161.972 63.1666 161.972 62.2345V58.2049H158.994V56.6316H163.919V62.1247C163.919 64.2178 162.866 65.2468 160.869 65.2468C159.733 65.2479 158.728 64.8123 158.111 64.0134Z" fill="#FAFAFA"/>
<path d="M165.09 64.4969L165.72 63.142C166.3 63.517 167.183 63.7716 167.982 63.7716C168.854 63.7716 169.181 63.5415 169.181 63.1783C169.181 62.1142 165.248 63.2028 165.248 60.6005C165.248 59.3659 166.361 58.4946 168.261 58.4946C169.157 58.4946 170.149 58.7001 170.766 59.0634L170.137 60.4066C169.496 60.0433 168.855 59.9219 168.261 59.9219C167.415 59.9219 167.051 60.1882 167.051 60.5269C167.051 61.64 170.984 60.5631 170.984 63.128C170.984 64.3381 169.858 65.1977 167.911 65.1977C166.808 65.1989 165.695 64.8964 165.09 64.4969Z" fill="#FAFAFA"/>
<path d="M151.942 43.9296L153.299 42.3388C154.188 43.6026 155.335 44.2812 156.715 44.2812C158.564 44.2812 159.523 43.1587 159.523 40.9582V31.7637H153.604V29.7279H161.84V40.8414C161.84 44.4914 160.062 46.2925 156.715 46.2925C154.773 46.2925 152.995 45.4503 151.942 43.9296Z" fill="#FAFAFA"/>
<path d="M164.72 44.7951L165.655 43.0174C166.709 43.7661 168.393 44.3045 170.007 44.3045C172.09 44.3045 172.955 43.6726 172.955 42.6203C172.955 39.8358 165.117 42.2465 165.117 37.3094C165.117 35.0867 167.106 33.5893 170.288 33.5893C171.902 33.5893 173.727 34.0109 174.803 34.7117L173.844 36.4894C172.722 35.7641 171.481 35.5071 170.264 35.5071C168.3 35.5071 167.34 36.2325 167.34 37.2148C167.34 40.1394 175.201 37.7532 175.201 42.5724C175.201 44.8184 173.142 46.2457 169.844 46.2457C167.785 46.2469 165.749 45.615 164.72 44.7951Z" fill="#FAFAFA"/>
<path d="M169.058 13.5312V27.0158C169.058 29.2408 170.861 31.0442 173.086 31.0442L186.052 31.0466L169.058 13.5312Z" fill="#EBEBEB"/>
<path d="M169.234 28.199C169.234 28.199 169.064 31.4694 172.787 32.5451C172.927 32.586 173.07 32.6152 173.213 32.6409C174.906 32.9434 186.051 34.9255 186.051 34.6697C186.051 34.3929 186.051 31.0466 186.051 31.0466H173.085C173.085 31.0466 169.848 30.9356 169.234 28.199Z" fill="#E0E0E0"/>
<path d="M0.613281 483.225L62.265 441.594L360.977 440.166L374.65 483.85L0.613281 483.225Z" fill="#455A64"/>
<path d="M373.872 500.281L0 500.009V482.41L374.037 483.579L373.872 500.281Z" fill="#455A64"/>
<path d="M364.702 483.478C364.702 483.647 283.969 483.745 184.403 483.697C84.8015 483.649 4.08569 483.475 4.08569 483.307C4.08569 483.139 84.8015 483.04 184.403 483.088C283.969 483.136 364.702 483.31 364.702 483.478Z" fill="#263238"/>
<path d="M271.698 97.3271H213.001C208.945 97.3271 205.657 94.0392 205.657 89.9827V8.73897C205.657 4.68251 208.945 1.39459 213.001 1.39459H250.226L279.042 31.0945V89.9827C279.042 94.0392 275.754 97.3271 271.698 97.3271Z" fill="#C32ADC"/>
<g opacity="0.2">
<path d="M271.476 97.3271H213.224C209.045 97.3271 205.657 93.9387 205.657 89.7596V69.6665C205.657 68.8676 206.305 68.2194 207.104 68.2194H277.595C278.394 68.2194 279.042 68.8676 279.042 69.6665V89.7596C279.042 93.9387 275.655 97.3271 271.476 97.3271Z" fill="black"/>
</g>
<g opacity="0.2">
<path d="M250.228 1.39459V24.2594C250.228 28.032 253.285 31.0898 257.057 31.0898L279.042 31.0933L250.228 1.39459Z" fill="white"/>
</g>
<g opacity="0.2">
<path d="M250.528 26.266C250.528 26.266 250.238 31.8117 256.552 33.6349C256.79 33.7038 257.033 33.754 257.275 33.7973C260.146 34.31 279.043 37.6715 279.043 37.2382C279.043 36.7687 279.043 31.0933 279.043 31.0933H257.058C257.058 31.0933 251.567 30.9065 250.528 26.266Z" fill="black"/>
</g>
<path d="M226.665 80.9013C226.665 77.4604 229.307 74.9994 232.861 74.9994C234.834 74.9994 236.48 75.7165 237.556 77.0212L235.86 78.5863C235.094 77.7056 234.132 77.249 232.992 77.249C230.855 77.249 229.339 78.7487 229.339 80.9013C229.339 83.0539 230.855 84.5536 232.992 84.5536C234.133 84.5536 235.095 84.0969 235.86 83.1999L237.556 84.765C236.48 86.086 234.834 86.8032 232.844 86.8032C229.308 86.8032 226.665 84.3422 226.665 80.9013Z" fill="#FAFAFA"/>
<path d="M238.333 85.4835L239.23 83.4944C240.192 84.1952 241.626 84.6846 242.997 84.6846C244.562 84.6846 245.197 84.1625 245.197 83.4617C245.197 81.3255 238.562 82.7936 238.562 78.5538C238.562 76.6138 240.127 74.9984 243.372 74.9984C244.807 74.9984 246.273 75.3406 247.334 76.0099L246.52 78.0154C245.46 77.4115 244.367 77.1183 243.357 77.1183C241.791 77.1183 241.188 77.7058 241.188 78.4218C241.188 80.5254 247.823 79.0747 247.823 83.2655C247.823 85.1729 246.242 86.8022 242.98 86.8022C241.171 86.8034 239.344 86.2661 238.333 85.4835Z" fill="#FAFAFA"/>
<path d="M248.73 85.4835L249.626 83.4944C250.589 84.1952 252.024 84.6846 253.394 84.6846C254.959 84.6846 255.595 84.1625 255.595 83.4617C255.595 81.3255 248.958 82.7936 248.958 78.5538C248.958 76.6138 250.523 74.9984 253.768 74.9984C255.204 74.9984 256.671 75.3406 257.731 76.0099L256.916 78.0154C255.856 77.4115 254.763 77.1183 253.753 77.1183C252.188 77.1183 251.585 77.7058 251.585 78.4218C251.585 80.5254 258.222 79.0747 258.222 83.2655C258.222 85.1729 256.64 86.8022 253.379 86.8022C251.568 86.8034 249.742 86.2661 248.73 85.4835Z" fill="#FAFAFA"/>
<path d="M230.393 43.9647C231.599 44.3314 232.149 45.0918 232.149 46.901V51.0953C232.149 52.3276 232.779 53.0354 234.064 53.0354H234.536V56.2334H233.016C229.738 56.2334 228.06 54.5549 228.06 51.5403V46.7959C228.06 45.9573 227.615 45.5625 226.907 45.5625H226.042V42.3645H226.907C227.615 42.3645 228.06 41.9709 228.06 41.1311V36.3855C228.06 33.3709 229.739 31.6925 233.016 31.6925H234.536V34.8905H234.064C232.78 34.8905 232.149 35.5983 232.149 36.8317V41.0272C232.149 42.8376 231.598 43.5968 230.393 43.9647Z" fill="#FAFAFA"/>
<path d="M258.66 42.3657V45.5637H257.794C257.086 45.5637 256.641 45.9573 256.641 46.7971V51.5415C256.641 54.5573 254.963 56.2345 251.686 56.2345H250.166V53.0365H250.638C251.922 53.0365 252.552 52.3275 252.552 51.0965V46.9022C252.552 45.093 253.102 44.3326 254.309 43.9658C253.102 43.5991 252.552 42.8387 252.552 41.0295V36.834C252.552 35.6006 251.923 34.8928 250.638 34.8928H250.166V31.6948H251.686C254.964 31.6948 256.641 33.3732 256.641 36.3878V41.1334C256.641 41.9721 257.086 42.3668 257.794 42.3668L258.66 42.3657Z" fill="#FAFAFA"/>
<path d="M353.894 156.306H294.31C290.193 156.306 286.855 152.968 286.855 148.851V66.3798C286.855 62.2626 290.193 58.9244 294.31 58.9244H332.099L361.35 89.0729V148.851C361.349 152.968 358.011 156.306 353.894 156.306Z" fill="#C32ADC"/>
<g opacity="0.2">
<path d="M353.293 156.306H294.91C290.461 156.306 286.854 152.7 286.854 148.251V126.758H361.348V148.251C361.349 152.7 357.742 156.306 353.293 156.306Z" fill="black"/>
</g>
<g opacity="0.2">
<path d="M332.098 58.9244V82.1349C332.098 85.9636 335.201 89.0682 339.031 89.0693L361.349 89.0728L332.098 58.9244Z" fill="white"/>
</g>
<g opacity="0.2">
<path d="M332.402 84.1719C332.402 84.1719 332.109 89.8017 338.518 91.6518C338.759 91.7207 339.005 91.7733 339.252 91.8177C342.166 92.3386 361.349 95.7503 361.349 95.31C361.349 94.8334 361.349 89.0729 361.349 89.0729H339.031C339.031 89.0729 333.458 88.8825 332.402 84.1719Z" fill="black"/>
</g>
<path d="M317.449 102.36L308.506 105.636L317.449 108.886V112.242L304.666 107.382V103.891L317.449 99.03V102.36Z" fill="#FAFAFA"/>
<path d="M327.058 92.4238H330.791L321.928 117.72H318.195L327.058 92.4238Z" fill="#FAFAFA"/>
<path d="M344.053 103.89V107.381L331.271 112.241V108.884L340.213 105.635L331.271 102.359V99.0289L344.053 103.89Z" fill="#FAFAFA"/>
<path d="M314.406 137.755V147.767H312.09V143.662H307.542V147.767H305.226V137.755H307.542V141.703H312.09V137.755H314.406Z" fill="#FAFAFA"/>
<path d="M318.853 139.643H315.649V137.755H324.374V139.643H321.17V147.767H318.853V139.643Z" fill="#FAFAFA"/>
<path d="M334.727 147.767L334.713 141.76L331.766 146.709H330.722L327.79 141.889V147.767H325.617V137.755H327.533L331.282 143.977L334.971 137.755H336.874L336.902 147.767H334.727Z" fill="#FAFAFA"/>
<path d="M339.273 137.755H341.589V145.88H346.609V147.768H339.271V137.755H339.273Z" fill="#FAFAFA"/>
<path d="M144.086 275.389H35.903C33.9303 275.389 32.3313 273.79 32.3313 271.817V93.0733C32.3313 91.1005 33.9303 89.5015 35.903 89.5015H144.084C146.057 89.5015 147.656 91.1005 147.656 93.0733V271.817C147.656 273.79 146.057 275.389 144.086 275.389Z" fill="white"/>
<path d="M147.656 110.272H32.3313V93.7157C32.3313 91.389 34.2176 89.5027 36.5443 89.5027H143.601C145.84 89.5027 147.656 91.3178 147.656 93.558V110.272Z" fill="#E0E0E0"/>
<path d="M143.788 275.389C143.78 275.354 144.331 275.44 145.275 275.058C145.736 274.86 146.277 274.508 146.752 273.932C147.211 273.353 147.595 272.526 147.594 271.543C147.581 267.563 147.563 261.714 147.538 254.185C147.515 239.1 147.482 217.29 147.441 190.344C147.423 163.388 147.4 131.295 147.376 95.6604L147.375 93.9878C147.377 93.4143 147.386 92.9004 147.237 92.3993C146.967 91.3937 146.214 90.5352 145.263 90.1054C144.786 89.887 144.268 89.7795 143.735 89.7854L142.037 89.7865C140.903 89.7865 139.765 89.7877 138.625 89.7877C134.063 89.7889 129.448 89.7912 124.786 89.7924C115.458 89.7947 105.935 89.797 96.2408 89.8005C76.8508 89.8029 56.7752 89.804 36.2138 89.8064C35.0201 89.797 33.8614 90.4242 33.2167 91.4217C32.9002 91.9181 32.6899 92.4881 32.6502 93.0779C32.6198 93.6678 32.642 94.3429 32.635 94.9713C32.635 97.5269 32.635 100.074 32.635 102.613C32.635 107.692 32.6339 112.737 32.6339 117.744C32.6327 127.759 32.6303 137.629 32.6292 147.326C32.6233 166.72 32.6175 185.427 32.6117 203.248C32.6023 221.069 32.593 238.003 32.5836 253.852C32.5813 257.814 32.5778 261.708 32.5755 265.531C32.5743 267.443 32.5719 269.336 32.5708 271.212C32.4178 273.032 33.7224 274.732 35.4441 275.073C36.271 275.221 37.2381 275.127 38.134 275.155C39.0438 275.156 39.9502 275.156 40.8507 275.157C42.6518 275.159 44.4353 275.161 46.1978 275.162C49.724 275.166 53.1743 275.169 56.5428 275.173C83.4897 275.214 105.296 275.246 120.38 275.27C127.909 275.294 133.757 275.314 137.735 275.327C139.711 275.34 141.22 275.35 142.248 275.357C143.267 275.368 143.788 275.389 143.788 275.389C143.788 275.389 143.267 275.41 142.249 275.42C141.222 275.427 139.711 275.437 137.736 275.451C133.758 275.463 127.91 275.483 120.381 275.508C105.297 275.531 83.4897 275.564 56.544 275.605C53.1743 275.608 49.7252 275.612 46.199 275.615C44.4353 275.616 42.653 275.619 40.8519 275.62C39.9514 275.621 39.045 275.621 38.1351 275.622C37.2159 275.591 36.3364 275.699 35.3471 275.535C34.3905 275.335 33.5134 274.773 32.9212 273.985C32.3208 273.209 32.0347 272.17 32.0931 271.213C32.0919 269.337 32.0907 267.444 32.0884 265.532C32.0861 261.709 32.0826 257.815 32.0802 253.853C32.072 238.005 32.0627 221.07 32.0522 203.25C32.0463 185.428 32.0405 166.722 32.0347 147.327C32.0335 137.629 32.0312 127.761 32.03 117.745C32.03 112.737 32.0288 107.692 32.0288 102.615C32.0288 100.075 32.0288 97.528 32.0288 94.9724C32.037 94.323 32.0125 93.718 32.0452 93.0301C32.0931 92.3409 32.3383 91.6705 32.7098 91.09C33.4596 89.9232 34.825 89.1862 36.2149 89.199C56.7764 89.2014 76.852 89.2037 96.242 89.2049C105.936 89.2072 115.46 89.2095 124.787 89.2119C129.451 89.213 134.064 89.2154 138.626 89.2165C139.766 89.2165 140.904 89.2177 142.038 89.2177H143.736C144.336 89.2119 144.949 89.3357 145.497 89.5891C146.598 90.0879 147.467 91.0807 147.779 92.2463C147.952 92.8257 147.94 93.447 147.936 93.9866L147.935 95.6592C147.911 131.294 147.889 163.387 147.87 190.343C147.829 217.29 147.796 239.099 147.773 254.184C147.747 261.714 147.729 267.563 147.715 271.543C147.705 272.559 147.299 273.404 146.821 273.991C146.327 274.573 145.77 274.924 145.297 275.115C144.82 275.313 144.429 275.351 144.176 275.384C143.919 275.393 143.788 275.389 143.788 275.389Z" fill="#263238"/>
<path d="M49.3304 101.506C49.3304 103.386 47.8073 104.909 45.928 104.909C44.0487 104.909 42.5256 103.386 42.5256 101.506C42.5256 99.6269 44.0487 98.1038 45.928 98.1038C47.8073 98.1038 49.3304 99.6269 49.3304 101.506Z" fill="white"/>
<path d="M56.3955 104.909C58.2746 104.909 59.7979 103.385 59.7979 101.506C59.7979 99.6271 58.2746 98.1038 56.3955 98.1038C54.5165 98.1038 52.9932 99.6271 52.9932 101.506C52.9932 103.385 54.5165 104.909 56.3955 104.909Z" fill="white"/>
<path d="M66.8643 104.909C68.7434 104.909 70.2667 103.385 70.2667 101.506C70.2667 99.6271 68.7434 98.1038 66.8643 98.1038C64.9852 98.1038 63.4619 99.6271 63.4619 101.506C63.4619 103.385 64.9852 104.909 66.8643 104.909Z" fill="white"/>
<path d="M82.5134 138.435H61.2757C60.0025 138.435 58.9712 137.404 58.9712 136.13C58.9712 134.857 60.0025 133.826 61.2757 133.826H82.5134C83.7865 133.826 84.8179 134.857 84.8179 136.13C84.8179 137.404 83.7865 138.435 82.5134 138.435Z" fill="#263238"/>
<path d="M82.5134 150.497H61.2757C60.0025 150.497 58.9712 149.465 58.9712 148.192C58.9712 146.919 60.0025 145.888 61.2757 145.888H82.5134C83.7865 145.888 84.8179 146.919 84.8179 148.192C84.8179 149.465 83.7865 150.497 82.5134 150.497Z" fill="#E0E0E0"/>
<path d="M83.122 183.536H61.8831C60.61 183.536 59.5786 182.505 59.5786 181.232C59.5786 179.958 60.61 178.927 61.8831 178.927H83.1208C84.3939 178.927 85.4253 179.958 85.4253 181.232C85.4253 182.505 84.3939 183.536 83.122 183.536Z" fill="#E0E0E0"/>
<path d="M82.5134 162.963H61.2757C60.0025 162.963 58.9712 161.932 58.9712 160.658C58.9712 159.385 60.0025 158.354 61.2757 158.354H82.5134C83.7865 158.354 84.8179 159.385 84.8179 160.658C84.8179 161.93 83.7865 162.963 82.5134 162.963Z" fill="#051534"/>
<path d="M82.5134 232.472H61.2757C60.0025 232.472 58.9712 231.44 58.9712 230.167C58.9712 228.895 60.0025 227.863 61.2757 227.863H82.5134C83.7865 227.863 84.8179 228.894 84.8179 230.167C84.8179 231.44 83.7865 232.472 82.5134 232.472Z" fill="#051534"/>
<path d="M116.538 138.435H95.3006C94.0274 138.435 92.9961 137.404 92.9961 136.13C92.9961 134.857 94.0274 133.826 95.3006 133.826H116.538C117.811 133.826 118.843 134.857 118.843 136.13C118.843 137.404 117.811 138.435 116.538 138.435Z" fill="#455A64"/>
<path d="M139.536 150.497H95.1032C93.9398 150.497 92.9961 149.465 92.9961 148.192C92.9961 146.919 93.9387 145.888 95.1032 145.888H139.536C140.7 145.888 141.642 146.919 141.642 148.192C141.642 149.465 140.7 150.497 139.536 150.497Z" fill="#263238"/>
<path d="M138.34 162.963H93.6012C92.4052 162.963 91.4346 161.932 91.4346 160.658C91.4346 159.385 92.404 158.354 93.6012 158.354H138.34C139.536 158.354 140.507 159.385 140.507 160.658C140.507 161.93 139.537 162.963 138.34 162.963Z" fill="#E0E0E0"/>
<path d="M106.022 173.043H61.2814C60.0854 173.043 59.1147 172.011 59.1147 170.738C59.1147 169.466 60.0842 168.434 61.2814 168.434H106.02C107.216 168.434 108.187 169.465 108.187 170.738C108.187 172.01 107.218 173.043 106.022 173.043Z" fill="#E0E0E0"/>
<path d="M50.8652 136.132C50.8652 137.425 49.8175 138.472 48.5245 138.472C47.2315 138.472 46.1838 137.425 46.1838 136.132C46.1838 134.839 47.2315 133.791 48.5245 133.791C49.8175 133.791 50.8652 134.839 50.8652 136.132Z" fill="#455A64"/>
<path d="M50.8652 124.588C50.8652 125.881 49.8175 126.929 48.5245 126.929C47.2315 126.929 46.1838 125.881 46.1838 124.588C46.1838 123.295 47.2315 122.248 48.5245 122.248C49.8175 122.248 50.8652 123.295 50.8652 124.588Z" fill="#455A64"/>
<path d="M50.8652 148.156C50.8652 149.449 49.8175 150.497 48.5245 150.497C47.2315 150.497 46.1838 149.449 46.1838 148.156C46.1838 146.863 47.2315 145.815 48.5245 145.815C49.8175 145.815 50.8652 146.864 50.8652 148.156Z" fill="#455A64"/>
<path d="M50.8652 160.658C50.8652 161.951 49.8175 162.999 48.5245 162.999C47.2315 162.999 46.1838 161.951 46.1838 160.658C46.1838 159.365 47.2315 158.318 48.5245 158.318C49.8175 158.318 50.8652 159.365 50.8652 160.658Z" fill="#455A64"/>
<path d="M83.122 217.27H61.8831C60.61 217.27 59.5786 216.239 59.5786 214.966C59.5786 213.693 60.61 212.661 61.8831 212.661H83.1208C84.3939 212.661 85.4253 213.693 85.4253 214.966C85.4253 216.238 84.3939 217.27 83.122 217.27Z" fill="#E0E0E0"/>
<path d="M82.5134 196.696H61.2757C60.0025 196.696 58.9712 195.665 58.9712 194.391C58.9712 193.119 60.0025 192.087 61.2757 192.087H82.5134C83.7865 192.087 84.8179 193.118 84.8179 194.391C84.8179 195.663 83.7865 196.696 82.5134 196.696Z" fill="#051534"/>
<path d="M138.34 196.696H93.6012C92.4052 196.696 91.4346 195.665 91.4346 194.391C91.4346 193.119 92.404 192.087 93.6012 192.087H138.34C139.536 192.087 140.507 193.118 140.507 194.391C140.507 195.663 139.537 196.696 138.34 196.696Z" fill="#E0E0E0"/>
<path d="M106.022 206.776H61.2814C60.0854 206.776 59.1147 205.744 59.1147 204.471C59.1147 203.198 60.0842 202.167 61.2814 202.167H106.02C107.216 202.167 108.187 203.198 108.187 204.471C108.187 205.744 107.218 206.776 106.022 206.776Z" fill="#E0E0E0"/>
<path d="M50.8652 194.391C50.8652 195.684 49.8175 196.732 48.5245 196.732C47.2315 196.732 46.1838 195.684 46.1838 194.391C46.1838 193.098 47.2315 192.051 48.5245 192.051C49.8175 192.051 50.8652 193.098 50.8652 194.391Z" fill="#455A64"/>
<path d="M73.5126 127.372H60.2161C59.5982 127.372 59.0972 126.871 59.0972 126.253V124.046C59.0972 123.428 59.5982 122.927 60.2161 122.927H73.5126C74.1305 122.927 74.6316 123.428 74.6316 124.046V126.253C74.6316 126.871 74.1305 127.372 73.5126 127.372Z" fill="#455A64"/>
<path d="M82.5134 244.754H61.2757C60.0025 244.754 58.9712 243.723 58.9712 242.45C58.9712 241.178 60.0025 240.145 61.2757 240.145H82.5134C83.7865 240.145 84.8179 241.177 84.8179 242.45C84.8179 243.723 83.7865 244.754 82.5134 244.754Z" fill="#263238"/>
<path d="M116.538 244.754H95.3006C94.0274 244.754 92.9961 243.723 92.9961 242.45C92.9961 241.178 94.0274 240.145 95.3006 240.145H116.538C117.811 240.145 118.843 241.177 118.843 242.45C118.843 243.723 117.811 244.754 116.538 244.754Z" fill="#455A64"/>
<path d="M50.8652 242.45C50.8652 243.743 49.8175 244.791 48.5245 244.791C47.2315 244.791 46.1838 243.743 46.1838 242.45C46.1838 241.157 47.2315 240.109 48.5245 240.109C49.8175 240.109 50.8652 241.157 50.8652 242.45Z" fill="#455A64"/>
<path d="M50.8652 253.551C50.8652 254.844 49.8175 255.891 48.5245 255.891C47.2315 255.891 46.1838 254.844 46.1838 253.551C46.1838 252.258 47.2315 251.21 48.5245 251.21C49.8175 251.21 50.8652 252.258 50.8652 253.551Z" fill="#455A64"/>
<path d="M73.5126 256.333H60.2161C59.5982 256.333 59.0972 255.832 59.0972 255.214V253.008C59.0972 252.39 59.5982 251.889 60.2161 251.889H73.5126C74.1305 251.889 74.6316 252.39 74.6316 253.008V255.214C74.6316 255.832 74.1305 256.333 73.5126 256.333Z" fill="#455A64"/>
<path d="M366.007 246.697H155.358V380.692H366.007V246.697Z" fill="white"/>
<path d="M193.297 246.697H155.358V380.692H193.297V246.697Z" fill="#EBEBEB"/>
<path d="M172.031 261.158C172.231 261.038 172.443 260.945 172.663 260.883L172.793 260.258L173.848 260.24L174 260.86C174.221 260.915 174.437 260.999 174.642 261.112L175.175 260.762L175.936 261.495L175.605 262.041C175.725 262.241 175.818 262.453 175.88 262.673L176.504 262.802L176.523 263.858L175.903 264.01C175.848 264.231 175.764 264.447 175.651 264.651L176.001 265.185L175.268 265.945L174.722 265.615C174.522 265.735 174.31 265.827 174.09 265.889L173.961 266.514L172.905 266.533L172.753 265.913C172.532 265.858 172.316 265.774 172.112 265.66L171.578 266.011L170.817 265.277L171.148 264.732C171.028 264.532 170.935 264.32 170.874 264.1L170.249 263.97L170.23 262.914L170.85 262.763C170.905 262.541 170.989 262.326 171.102 262.121L170.753 261.588L171.487 260.827L172.031 261.158ZM172.594 262.565C172.16 263.016 172.172 263.733 172.622 264.168C173.073 264.602 173.79 264.589 174.225 264.14C174.659 263.69 174.646 262.972 174.197 262.537C173.747 262.102 173.03 262.114 172.594 262.565Z" fill="#E0E0E0"/>
<path d="M180.796 290.76H164.257C163.318 290.76 162.558 289.999 162.558 289.06C162.558 288.121 163.319 287.361 164.257 287.361H180.796C181.735 287.361 182.495 288.122 182.495 289.06C182.495 289.998 181.735 290.76 180.796 290.76Z" fill="#E0E0E0"/>
<path d="M180.796 282.101H164.257C163.318 282.101 162.558 281.341 162.558 280.402C162.558 279.463 163.319 278.702 164.257 278.702H180.796C181.735 278.702 182.495 279.464 182.495 280.402C182.495 281.34 181.735 282.101 180.796 282.101Z" fill="#E0E0E0"/>
<path d="M180.796 274.18H164.257C163.318 274.18 162.558 273.419 162.558 272.48C162.558 271.541 163.319 270.781 164.257 270.781H180.796C181.735 270.781 182.495 271.541 182.495 272.48C182.495 273.419 181.735 274.18 180.796 274.18Z" fill="#E0E0E0"/>
<path d="M225.231 266.492H209.566C208.627 266.492 207.867 265.731 207.867 264.793C207.867 263.854 208.628 263.093 209.566 263.093H225.231C226.17 263.093 226.931 263.854 226.931 264.793C226.931 265.732 226.17 266.492 225.231 266.492Z" fill="#263238"/>
<path d="M225.231 275.389H209.566C208.627 275.389 207.867 274.628 207.867 273.689C207.867 272.75 208.628 271.99 209.566 271.99H225.231C226.17 271.99 226.931 272.75 226.931 273.689C226.931 274.628 226.17 275.389 225.231 275.389Z" fill="#E0E0E0"/>
<path d="M225.231 284.583H209.566C208.627 284.583 207.867 283.823 207.867 282.884C207.867 281.945 208.628 281.184 209.566 281.184H225.231C226.17 281.184 226.931 281.945 226.931 282.884C226.931 283.822 226.17 284.583 225.231 284.583Z" fill="#051534"/>
<path d="M218.549 302.359H209.566C208.627 302.359 207.867 301.599 207.867 300.66C207.867 299.72 208.628 298.96 209.566 298.96H218.549C219.488 298.96 220.249 299.72 220.249 300.66C220.249 301.597 219.488 302.359 218.549 302.359Z" fill="#263238"/>
<path d="M218.549 311.573H209.566C208.627 311.573 207.867 310.813 207.867 309.874C207.867 308.935 208.628 308.174 209.566 308.174H218.549C219.488 308.174 220.249 308.935 220.249 309.874C220.249 310.812 219.488 311.573 218.549 311.573Z" fill="#263238"/>
<path d="M245.246 311.573H228.775C227.836 311.573 227.075 310.813 227.075 309.874C227.075 308.935 227.837 308.174 228.775 308.174H245.246C246.185 308.174 246.945 308.935 246.945 309.874C246.945 310.812 246.184 311.573 245.246 311.573Z" fill="#E0E0E0"/>
<path d="M235.93 319.767H219.459C218.52 319.767 217.759 319.007 217.759 318.067C217.759 317.128 218.52 316.368 219.459 316.368H235.93C236.869 316.368 237.629 317.128 237.629 318.067C237.629 319.005 236.868 319.767 235.93 319.767Z" fill="#051534"/>
<path d="M239.579 329.113H228.266C227.625 329.113 227.106 328.593 227.106 327.953V326.875C227.106 326.234 227.626 325.715 228.266 325.715H239.579C240.22 325.715 240.739 326.235 240.739 326.875V327.953C240.739 328.593 240.219 329.113 239.579 329.113Z" fill="#051534"/>
<path d="M239.039 347.43H228.805C227.866 347.43 227.106 346.668 227.106 345.73C227.106 344.791 227.866 344.031 228.805 344.031H239.039C239.978 344.031 240.739 344.791 240.739 345.73C240.739 346.668 239.978 347.43 239.039 347.43Z" fill="#051534"/>
<path d="M239.039 366.775H228.805C227.866 366.775 227.106 366.014 227.106 365.076C227.106 364.137 227.866 363.377 228.805 363.377H239.039C239.978 363.377 240.739 364.138 240.739 365.076C240.739 366.015 239.978 366.775 239.039 366.775Z" fill="#051534"/>
<path d="M264.199 366.775H246.257C245.317 366.775 244.557 366.014 244.557 365.076C244.557 364.137 245.317 363.377 246.257 363.377H264.199C265.138 363.377 265.899 364.138 265.899 365.076C265.899 366.015 265.137 366.775 264.199 366.775Z" fill="#455A64"/>
<path d="M276.757 366.775H274.173C273.234 366.775 272.473 366.014 272.473 365.076C272.473 364.137 273.235 363.377 274.173 363.377H276.757C277.696 363.377 278.457 364.138 278.457 365.076C278.457 366.015 277.696 366.775 276.757 366.775Z" fill="#E0E0E0"/>
<path d="M263.124 347.43H247.961C247.022 347.43 246.261 346.668 246.261 345.73C246.261 344.791 247.023 344.031 247.961 344.031H263.124C264.063 344.031 264.823 344.791 264.823 345.73C264.823 346.668 264.063 347.43 263.124 347.43Z" fill="#E0E0E0"/>
<path d="M296.374 355.922H247.961C247.022 355.922 246.261 355.161 246.261 354.223C246.261 353.284 247.023 352.523 247.961 352.523H296.374C297.313 352.523 298.074 353.284 298.074 354.223C298.074 355.161 297.313 355.922 296.374 355.922Z" fill="#E0E0E0"/>
<path d="M301.966 347.43H271.056C270.117 347.43 269.357 346.668 269.357 345.73C269.357 344.791 270.117 344.031 271.056 344.031H301.966C302.905 344.031 303.666 344.791 303.666 345.73C303.666 346.668 302.905 347.43 301.966 347.43Z" fill="#455A64"/>
<path d="M260.236 329.113H246.352C245.711 329.113 245.192 328.593 245.192 327.953V326.875C245.192 326.234 245.712 325.715 246.352 325.715H260.236C260.877 325.715 261.396 326.235 261.396 326.875V327.953C261.396 328.593 260.876 329.113 260.236 329.113Z" fill="#455A64"/>
<path d="M271.319 329.113H267.058C266.417 329.113 265.898 328.593 265.898 327.953V326.875C265.898 326.234 266.418 325.715 267.058 325.715H271.319C271.96 325.715 272.479 326.235 272.479 326.875V327.953C272.48 328.593 271.96 329.113 271.319 329.113Z" fill="#E0E0E0"/>
<path d="M295.735 329.113H278.645C278.004 329.113 277.485 328.593 277.485 327.953V326.875C277.485 326.234 278.005 325.715 278.645 325.715H295.735C296.377 325.715 296.895 326.235 296.895 326.875V327.953C296.896 328.593 296.377 329.113 295.735 329.113Z" fill="#E0E0E0"/>
<path d="M247.087 319.767H243.417C242.478 319.767 241.717 319.007 241.717 318.067C241.717 317.128 242.479 316.368 243.417 316.368H247.087C248.026 316.368 248.786 317.128 248.786 318.067C248.786 319.005 248.024 319.767 247.087 319.767Z" fill="#263238"/>
<path d="M278.181 319.767H254.812C253.873 319.767 253.112 319.007 253.112 318.067C253.112 317.128 253.874 316.368 254.812 316.368H278.181C279.12 316.368 279.881 317.128 279.881 318.067C279.881 319.005 279.12 319.767 278.181 319.767Z" fill="#E0E0E0"/>
<path d="M250.328 266.492H234.663C233.724 266.492 232.963 265.731 232.963 264.793C232.963 263.854 233.725 263.093 234.663 263.093H250.328C251.267 263.093 252.027 263.854 252.027 264.793C252.027 265.732 251.267 266.492 250.328 266.492Z" fill="#455A64"/>
<path d="M270.512 275.389H234.663C233.724 275.389 232.963 274.628 232.963 273.689C232.963 272.75 233.725 271.99 234.663 271.99H270.512C271.451 271.99 272.212 272.75 272.212 273.689C272.212 274.628 271.451 275.389 270.512 275.389Z" fill="#263238"/>
<path d="M309.109 284.583H234.663C233.724 284.583 232.963 283.823 232.963 282.884C232.963 281.945 233.725 281.184 234.663 281.184H309.109C310.048 281.184 310.808 281.945 310.808 282.884C310.808 283.822 310.048 284.583 309.109 284.583Z" fill="#E0E0E0"/>
<path d="M269.766 291.059H234.664C233.725 291.059 232.964 290.298 232.964 289.359C232.964 288.42 233.726 287.66 234.664 287.66H269.766C270.705 287.66 271.465 288.42 271.465 289.359C271.465 290.298 270.704 291.059 269.766 291.059Z" fill="#E0E0E0"/>
<path d="M262.585 302.359H227.483C226.544 302.359 225.784 301.599 225.784 300.66C225.784 299.72 226.545 298.96 227.483 298.96H262.585C263.524 298.96 264.284 299.72 264.284 300.66C264.284 301.597 263.523 302.359 262.585 302.359Z" fill="#455A64"/>
<path d="M282.235 302.359H270.469C269.53 302.359 268.77 301.599 268.77 300.66C268.77 299.72 269.53 298.96 270.469 298.96H282.235C283.174 298.96 283.935 299.72 283.935 300.66C283.935 301.597 283.174 302.359 282.235 302.359Z" fill="#051534"/>
<path d="M312.317 302.304H290.092C289.152 302.304 288.392 301.544 288.392 300.605C288.392 299.666 289.154 298.905 290.092 298.905H312.317C313.256 298.905 314.017 299.666 314.017 300.605C314.017 301.543 313.256 302.304 312.317 302.304Z" fill="#263238"/>
<path d="M342.564 302.304H320.338C319.399 302.304 318.639 301.544 318.639 300.605C318.639 299.666 319.399 298.905 320.338 298.905H342.564C343.503 298.905 344.263 299.666 344.263 300.605C344.263 301.543 343.503 302.304 342.564 302.304Z" fill="#E0E0E0"/>
<path d="M173.634 299.925H164.258C163.319 299.925 162.559 299.163 162.559 298.225C162.559 297.286 163.32 296.526 164.258 296.526H173.634C174.573 296.526 175.333 297.286 175.333 298.225C175.333 299.165 174.573 299.925 173.634 299.925Z" fill="#E0E0E0"/>
<path d="M170.827 327.422H164.257C163.318 327.422 162.558 326.66 162.558 325.723C162.558 324.783 163.319 324.023 164.257 324.023H170.827C171.766 324.023 172.527 324.783 172.527 325.723C172.528 326.662 171.766 327.422 170.827 327.422Z" fill="#E0E0E0"/>
<path d="M182.495 309.091H164.257C163.318 309.091 162.558 308.33 162.558 307.392C162.558 306.453 163.319 305.692 164.257 305.692H182.495C183.434 305.692 184.195 306.454 184.195 307.392C184.195 308.33 183.434 309.091 182.495 309.091Z" fill="#E0E0E0"/>
<path d="M179.296 318.257H164.258C163.319 318.257 162.559 317.496 162.559 316.557C162.559 315.618 163.32 314.858 164.258 314.858H179.296C180.235 314.858 180.995 315.618 180.995 316.557C180.995 317.495 180.234 318.257 179.296 318.257Z" fill="#E0E0E0"/>
<path d="M201.888 264.793C201.888 265.746 201.114 266.519 200.161 266.519C199.208 266.519 198.435 265.746 198.435 264.793C198.435 263.84 199.208 263.066 200.161 263.066C201.114 263.066 201.888 263.84 201.888 264.793Z" fill="#455A64"/>
<path d="M200.161 257.452C201.115 257.452 201.888 256.679 201.888 255.725C201.888 254.772 201.115 253.999 200.161 253.999C199.208 253.999 198.435 254.772 198.435 255.725C198.435 256.679 199.208 257.452 200.161 257.452Z" fill="#455A64"/>
<path d="M200.161 275.389C201.115 275.389 201.888 274.616 201.888 273.662C201.888 272.709 201.115 271.936 200.161 271.936C199.208 271.936 198.435 272.709 198.435 273.662C198.435 274.616 199.208 275.389 200.161 275.389Z" fill="#455A64"/>
<path d="M200.161 284.61C201.115 284.61 201.888 283.837 201.888 282.884C201.888 281.93 201.115 281.157 200.161 281.157C199.208 281.157 198.435 281.93 198.435 282.884C198.435 283.837 199.208 284.61 200.161 284.61Z" fill="#455A64"/>
<path d="M200.161 293.83C201.115 293.83 201.888 293.057 201.888 292.104C201.888 291.151 201.115 290.378 200.161 290.378C199.208 290.378 198.435 291.151 198.435 292.104C198.435 293.057 199.208 293.83 200.161 293.83Z" fill="#455A64"/>
<path d="M201.888 301.325C201.888 302.278 201.114 303.052 200.161 303.052C199.208 303.052 198.435 302.278 198.435 301.325C198.435 300.372 199.208 299.599 200.161 299.599C201.114 299.599 201.888 300.372 201.888 301.325Z" fill="#455A64"/>
<path d="M200.161 312.272C201.115 312.272 201.888 311.499 201.888 310.546C201.888 309.592 201.115 308.819 200.161 308.819C199.208 308.819 198.435 309.592 198.435 310.546C198.435 311.499 199.208 312.272 200.161 312.272Z" fill="#455A64"/>
<path d="M200.161 321.493C201.115 321.493 201.888 320.72 201.888 319.767C201.888 318.813 201.115 318.041 200.161 318.041C199.208 318.041 198.435 318.813 198.435 319.767C198.435 320.72 199.208 321.493 200.161 321.493Z" fill="#455A64"/>
<path d="M201.888 328.987C201.888 329.94 201.114 330.713 200.161 330.713C199.208 330.713 198.435 329.94 198.435 328.987C198.435 328.034 199.208 327.261 200.161 327.261C201.114 327.261 201.888 328.034 201.888 328.987Z" fill="#455A64"/>
<path d="M201.888 338.208C201.888 339.162 201.114 339.935 200.161 339.935C199.208 339.935 198.435 339.162 198.435 338.208C198.435 337.255 199.208 336.482 200.161 336.482C201.114 336.482 201.888 337.255 201.888 338.208Z" fill="#455A64"/>
<path d="M200.161 349.156C201.115 349.156 201.888 348.383 201.888 347.43C201.888 346.476 201.115 345.703 200.161 345.703C199.208 345.703 198.435 346.476 198.435 347.43C198.435 348.383 199.208 349.156 200.161 349.156Z" fill="#455A64"/>
<path d="M201.888 356.65C201.888 357.603 201.114 358.376 200.161 358.376C199.208 358.376 198.435 357.603 198.435 356.65C198.435 355.697 199.208 354.924 200.161 354.924C201.114 354.924 201.888 355.697 201.888 356.65Z" fill="#455A64"/>
<path d="M200.161 367.598C201.115 367.598 201.888 366.825 201.888 365.871C201.888 364.918 201.115 364.145 200.161 364.145C199.208 364.145 198.435 364.918 198.435 365.871C198.435 366.825 199.208 367.598 200.161 367.598Z" fill="#455A64"/>
<path d="M361.527 228.427H161.669C158.183 228.427 155.358 231.252 155.358 234.738V246.697H366.007V232.906C366.007 230.432 364.001 228.427 361.527 228.427Z" fill="#E0E0E0"/>
<path d="M166.244 240.623C167.629 240.623 168.753 239.5 168.753 238.114C168.753 236.729 167.629 235.605 166.244 235.605C164.858 235.605 163.735 236.729 163.735 238.114C163.735 239.5 164.858 240.623 166.244 240.623Z" fill="white"/>
<path d="M176.474 238.114C176.474 239.501 175.351 240.623 173.965 240.623C172.579 240.623 171.457 239.5 171.457 238.114C171.457 236.729 172.58 235.605 173.965 235.605C175.351 235.604 176.474 236.728 176.474 238.114Z" fill="white"/>
<path d="M184.194 238.114C184.194 239.501 183.071 240.623 181.686 240.623C180.299 240.623 179.177 239.5 179.177 238.114C179.177 236.729 180.3 235.605 181.686 235.605C183.072 235.604 184.194 236.728 184.194 238.114Z" fill="white"/>
<path d="M200.161 378.6L217.966 397.849L234.129 378.6H200.161Z" fill="white"/>
<path d="M360.294 380.691C360.286 380.648 360.955 380.747 362.137 380.349C362.721 380.147 363.425 379.789 364.102 379.167C364.778 378.555 365.419 377.651 365.737 376.484C365.911 375.902 365.952 375.266 365.939 374.585C365.936 373.904 365.934 373.188 365.932 372.436C365.927 370.931 365.922 369.288 365.918 367.508C365.91 363.944 365.9 359.835 365.89 355.21C365.866 336.696 365.834 309.922 365.793 276.839C365.787 268.568 365.78 259.901 365.773 250.871C365.769 246.356 365.767 241.75 365.764 237.057C365.748 235.896 365.795 234.678 365.729 233.549C365.599 232.424 365.128 231.331 364.351 230.487C363.595 229.627 362.543 229.04 361.421 228.794C360.307 228.59 359.055 228.712 357.848 228.678C338.394 228.687 317.608 228.697 295.735 228.706C273.862 228.712 250.901 228.718 227.099 228.724C215.198 228.725 203.086 228.727 190.794 228.728C184.648 228.728 178.457 228.729 172.225 228.729C169.109 228.729 165.983 228.729 162.847 228.729C162.077 228.741 161.247 228.701 160.524 228.758C159.783 228.831 159.06 229.064 158.413 229.431C157.114 230.163 156.141 231.453 155.807 232.91C155.568 233.906 155.695 235.03 155.661 236.128V239.419C155.661 241.611 155.661 243.798 155.661 245.981C155.661 250.346 155.661 254.691 155.66 259.016C155.659 267.664 155.659 276.229 155.658 284.697C155.654 301.634 155.652 318.188 155.649 334.268C155.646 342.307 155.644 350.228 155.643 358.02C155.642 361.915 155.64 365.779 155.639 369.608C155.646 371.515 155.621 373.446 155.654 375.309C155.736 377.119 156.824 378.819 158.382 379.698C159.154 380.151 160.045 380.378 160.933 380.407C161.866 380.409 162.797 380.413 163.725 380.415C165.587 380.416 167.441 380.416 169.284 380.418C172.971 380.419 176.622 380.421 180.235 380.422C187.46 380.426 194.532 380.429 201.441 380.433H201.552L201.628 380.513C207.231 386.412 212.667 392.135 217.934 397.68L217.569 397.691C222.569 391.745 227.364 386.043 231.988 380.544L232.057 380.461H232.164C271.592 380.504 303.62 380.538 325.803 380.562C336.884 380.589 345.502 380.61 351.362 380.624C354.281 380.638 356.511 380.65 358.021 380.657C359.524 380.669 360.294 380.691 360.294 380.691C360.294 380.691 359.524 380.714 358.023 380.725C356.513 380.732 354.283 380.744 351.364 380.758C345.505 380.772 336.886 380.793 325.805 380.819C303.622 380.844 271.595 380.878 232.167 380.921L232.343 380.839C227.726 386.345 222.939 392.053 217.947 398.007L217.771 398.217L217.582 398.018C212.308 392.478 206.865 386.762 201.255 380.87L201.442 380.95C194.534 380.954 187.461 380.957 180.236 380.961C176.623 380.962 172.972 380.964 169.285 380.965C167.441 380.967 165.588 380.967 163.726 380.968C162.793 380.965 161.858 380.963 160.92 380.962C159.942 380.932 158.959 380.68 158.107 380.182C156.389 379.215 155.19 377.341 155.096 375.344C155.06 373.413 155.084 371.532 155.076 369.609C155.075 365.78 155.074 361.917 155.073 358.021C155.07 350.23 155.068 342.308 155.066 334.269C155.063 318.189 155.06 301.635 155.056 284.698C155.055 276.23 155.055 267.665 155.054 259.017C155.054 254.693 155.054 250.347 155.053 245.982C155.053 243.8 155.053 241.613 155.053 239.42V236.129V234.481C155.042 233.938 155.082 233.33 155.214 232.773C155.585 231.15 156.668 229.716 158.112 228.904C158.831 228.494 159.637 228.235 160.461 228.154C161.305 228.092 162.047 228.137 162.845 228.123C165.981 228.123 169.107 228.123 172.222 228.123C178.455 228.123 184.645 228.124 190.791 228.124C203.083 228.126 215.194 228.128 227.096 228.129C250.899 228.135 273.859 228.141 295.733 228.147C317.606 228.156 338.392 228.165 357.846 228.175C359.065 228.213 360.255 228.08 361.521 228.305C362.749 228.575 363.894 229.219 364.718 230.157C365.563 231.077 366.077 232.272 366.216 233.498C366.286 234.733 366.234 235.875 366.249 237.06C366.246 241.753 366.244 246.359 366.24 250.874C366.233 259.903 366.227 268.57 366.22 276.842C366.179 309.924 366.147 336.698 366.123 355.212C366.113 359.837 366.103 363.947 366.095 367.51C366.091 369.29 366.086 370.935 366.081 372.438C366.079 373.189 366.077 373.906 366.074 374.587C366.084 375.266 366.036 375.93 365.854 376.519C365.519 377.708 364.856 378.622 364.162 379.237C363.467 379.862 362.75 380.214 362.156 380.409C361.559 380.606 361.085 380.663 360.769 380.685C360.453 380.693 360.294 380.691 360.294 380.691Z" fill="#263238"/>
<path d="M330.31 201.169H171.9C169.856 201.169 168.198 199.512 168.198 197.468V116.705C168.198 114.661 169.856 113.004 171.9 113.004H331.034C333.078 113.004 334.735 114.661 334.735 116.705V196.744C334.736 199.188 332.754 201.169 330.31 201.169Z" fill="white"/>
<path d="M334.736 131.937H168.198V117.061C168.198 114.82 170.014 113.004 172.255 113.004H330.679C332.919 113.004 334.735 114.82 334.735 117.061V131.937H334.736Z" fill="#E0E0E0"/>
<path d="M330.05 201.169C330.047 201.141 330.497 201.186 331.321 200.958C332.114 200.727 333.36 200.108 334.146 198.627C334.541 197.892 334.713 196.972 334.66 195.939C334.656 194.907 334.651 193.778 334.646 192.557C334.638 190.11 334.629 187.289 334.618 184.115C334.595 171.401 334.562 153.026 334.521 130.322C334.518 127.483 334.514 124.577 334.511 121.605C334.51 120.119 334.507 118.617 334.506 117.099C334.638 115.624 333.825 114.176 332.482 113.565C331.815 113.234 331.097 113.222 330.297 113.241C329.514 113.242 328.728 113.242 327.937 113.243C326.357 113.245 324.761 113.247 323.151 113.248C319.929 113.25 316.648 113.254 313.31 113.256C299.957 113.266 285.689 113.275 270.676 113.284C240.647 113.291 207.636 113.3 172.983 113.309C172.427 113.31 171.923 113.293 171.439 113.415C170.952 113.53 170.49 113.743 170.084 114.037C169.271 114.622 168.707 115.536 168.555 116.521C168.477 116.999 168.51 117.544 168.503 118.084V119.694V122.909C168.503 127.187 168.502 131.439 168.502 135.659C168.501 144.097 168.498 152.414 168.497 160.585C168.495 168.756 168.492 176.783 168.49 184.643C168.489 188.574 168.486 192.463 168.485 196.307C168.407 198.144 169.551 199.911 171.235 200.563C172.066 200.926 172.963 200.895 173.926 200.888C174.871 200.888 175.812 200.889 176.75 200.889C206.779 200.914 233.823 200.936 256.539 200.954C279.242 200.995 297.616 201.028 310.328 201.051C316.669 201.076 321.596 201.096 324.953 201.109C326.615 201.121 327.886 201.132 328.756 201.139C329.611 201.148 330.05 201.169 330.05 201.169C330.05 201.169 329.611 201.19 328.755 201.201C327.885 201.208 326.614 201.217 324.952 201.231C321.595 201.244 316.668 201.264 310.327 201.288C297.614 201.312 279.24 201.345 256.537 201.385C233.822 201.404 206.779 201.426 176.749 201.451C175.81 201.452 174.868 201.452 173.925 201.452C173.011 201.46 171.959 201.499 171.021 201.089C169.122 200.365 167.825 198.338 167.913 196.308C167.912 192.463 167.91 188.575 167.908 184.644C167.906 176.784 167.904 168.757 167.901 160.586C167.9 152.415 167.898 144.1 167.897 135.66C167.897 131.44 167.895 127.189 167.895 122.91V119.696V118.085C167.905 117.551 167.865 117.014 167.955 116.426C168.131 115.282 168.785 114.222 169.727 113.545C170.195 113.205 170.733 112.957 171.298 112.824C171.868 112.682 172.458 112.703 172.982 112.702C207.633 112.71 240.646 112.718 270.675 112.726C285.688 112.735 299.955 112.745 313.309 112.754C316.647 112.758 319.928 112.76 323.15 112.762C324.76 112.763 326.356 112.766 327.936 112.767C328.727 112.768 329.513 112.768 330.295 112.769C331.049 112.749 331.94 112.763 332.679 113.142C334.201 113.815 335.118 115.533 334.966 117.101C334.965 118.62 334.963 120.122 334.962 121.608C334.958 124.579 334.955 127.486 334.951 130.324C334.91 153.028 334.877 171.403 334.854 184.118C334.844 187.291 334.834 190.112 334.826 192.559C334.821 193.781 334.816 194.909 334.812 195.941C334.813 196.454 334.806 196.959 334.712 197.424C334.606 197.886 334.456 198.312 334.255 198.686C333.429 200.198 332.147 200.806 331.338 201.02C330.499 201.229 330.05 201.169 330.05 201.169Z" fill="#263238"/>
<path d="M180.592 127.047C182.304 127.047 183.693 125.659 183.693 123.946C183.693 122.233 182.304 120.845 180.592 120.845C178.879 120.845 177.491 122.233 177.491 123.946C177.491 125.659 178.879 127.047 180.592 127.047Z" fill="white"/>
<path d="M193.235 123.946C193.235 125.658 191.847 127.047 190.134 127.047C188.422 127.047 187.033 125.658 187.033 123.946C187.033 122.234 188.422 120.845 190.134 120.845C191.847 120.845 193.235 122.234 193.235 123.946Z" fill="white"/>
<path d="M199.677 127.047C201.389 127.047 202.778 125.659 202.778 123.946C202.778 122.233 201.389 120.845 199.677 120.845C197.964 120.845 196.576 122.233 196.576 123.946C196.576 125.659 197.964 127.047 199.677 127.047Z" fill="white"/>
<path d="M216.185 158.618H196.826C195.666 158.618 194.726 157.678 194.726 156.518C194.726 155.358 195.666 154.418 196.826 154.418H216.185C217.345 154.418 218.285 155.358 218.285 156.518C218.285 157.678 217.345 158.618 216.185 158.618Z" fill="#263238"/>
<path d="M216.185 169.612H196.826C195.666 169.612 194.726 168.672 194.726 167.512C194.726 166.352 195.666 165.412 196.826 165.412H216.185C217.345 165.412 218.285 166.352 218.285 167.512C218.285 168.672 217.345 169.612 216.185 169.612Z" fill="#E0E0E0"/>
<path d="M318.382 158.618H262.229C261.069 158.618 260.129 157.678 260.129 156.518C260.129 155.358 261.069 154.418 262.229 154.418H318.382C319.542 154.418 320.482 155.358 320.482 156.518C320.482 157.678 319.542 158.618 318.382 158.618Z" fill="#E0E0E0"/>
<path d="M216.185 180.975H196.826C195.666 180.975 194.726 180.034 194.726 178.875C194.726 177.715 195.666 176.775 196.826 176.775H216.185C217.345 176.775 218.285 177.715 218.285 178.875C218.285 180.034 217.345 180.975 216.185 180.975Z" fill="#051534"/>
<path d="M304.986 169.612H285.626C284.467 169.612 283.526 168.672 283.526 167.512C283.526 166.352 284.467 165.412 285.626 165.412H304.986C306.146 165.412 307.086 166.352 307.086 167.512C307.087 168.672 306.146 169.612 304.986 169.612Z" fill="#051534"/>
<path d="M247.202 158.618H227.841C226.681 158.618 225.741 157.678 225.741 156.518C225.741 155.358 226.681 154.418 227.841 154.418H247.2C248.36 154.418 249.3 155.358 249.3 156.518C249.302 157.678 248.361 158.618 247.202 158.618Z" fill="#455A64"/>
<path d="M272.145 169.612H227.841C226.681 169.612 225.741 168.672 225.741 167.512C225.741 166.352 226.681 165.412 227.841 165.412H272.145C273.305 165.412 274.245 166.352 274.245 167.512C274.245 168.672 273.305 169.612 272.145 169.612Z" fill="#263238"/>
<path d="M315.602 180.975H227.747C226.64 180.975 225.742 180.034 225.742 178.875C225.742 177.715 226.64 176.775 227.747 176.775H315.602C316.709 176.775 317.607 177.715 317.607 178.875C317.607 180.034 316.709 180.975 315.602 180.975Z" fill="#E0E0E0"/>
<path d="M271.223 188.979H227.841C226.681 188.979 225.741 188.039 225.741 186.879C225.741 185.719 226.681 184.779 227.841 184.779H271.221C272.381 184.779 273.322 185.719 273.322 186.879C273.323 188.038 272.382 188.979 271.223 188.979Z" fill="#E0E0E0"/>
<path d="M187.336 156.517C187.336 157.695 186.38 158.651 185.202 158.651C184.023 158.651 183.068 157.695 183.068 156.517C183.068 155.338 184.023 154.383 185.202 154.383C186.38 154.384 187.336 155.338 187.336 156.517Z" fill="#455A64"/>
<path d="M187.336 145.995C187.336 147.174 186.38 148.129 185.202 148.129C184.023 148.129 183.068 147.174 183.068 145.995C183.068 144.817 184.023 143.861 185.202 143.861C186.38 143.861 187.336 144.817 187.336 145.995Z" fill="#455A64"/>
<path d="M185.202 169.614C186.38 169.614 187.336 168.658 187.336 167.48C187.336 166.301 186.38 165.346 185.202 165.346C184.023 165.346 183.068 166.301 183.068 167.48C183.068 168.658 184.023 169.614 185.202 169.614Z" fill="#455A64"/>
<path d="M185.202 181.009C186.38 181.009 187.336 180.053 187.336 178.875C187.336 177.696 186.38 176.741 185.202 176.741C184.023 176.741 183.068 177.696 183.068 178.875C183.068 180.053 184.023 181.009 185.202 181.009Z" fill="#455A64"/>
<path d="M208.207 147.524H196.285C195.667 147.524 195.166 147.023 195.166 146.405V144.591C195.166 143.974 195.667 143.472 196.285 143.472H208.207C208.825 143.472 209.326 143.974 209.326 144.591V146.405C209.326 147.023 208.825 147.524 208.207 147.524Z" fill="#455A64"/>
<path d="M86.6434 475.693C76.9011 479.935 67.5139 480.325 58.5904 475.693L52.0776 421.108H92.5547L86.6434 475.693Z" fill="#6F4439"/>
<path d="M89.8754 417.942L88.6572 414.044L58.1665 410.321C57.3361 410.219 56.5477 410.712 56.2755 411.504L54.0622 417.943H50.1646V425.008C65.477 427.706 80.1343 427.866 94.0159 425.008V417.943H89.8754V417.942Z" fill="#E0E0E0"/>
<path d="M89.8754 417.942C89.8813 417.934 89.9782 417.926 90.1604 417.917C90.3765 417.909 90.6405 417.901 90.964 417.889C91.7057 417.874 92.7218 417.853 94.0171 417.827L94.1316 417.825L94.1328 417.942C94.1503 419.764 94.1736 422.149 94.2005 425.007L94.2017 425.155L94.0545 425.187C89.2003 426.208 82.7483 427.182 75.2322 427.338C67.722 427.518 59.178 426.892 50.2825 425.335L50.1132 425.307L49.8621 425.265V425.007C49.8632 422.608 49.8632 420.246 49.8644 417.942V417.641H50.1657C51.4856 417.642 52.7856 417.643 54.0634 417.644L53.7819 417.845C54.5271 415.689 55.2547 413.582 55.9625 411.533C56.119 410.965 56.5757 410.416 57.148 410.188C57.433 410.068 57.7461 410.011 58.0521 410.028C58.3569 410.052 58.5882 410.091 58.8592 410.121C59.9034 410.251 60.93 410.379 61.9404 410.505C65.9746 411.013 69.7309 411.485 73.138 411.914C79.882 412.79 85.2326 413.485 88.6712 413.931L88.746 413.94L88.7658 414.01C89.122 415.238 89.4012 416.2 89.6044 416.904C89.6885 417.211 89.7574 417.461 89.8135 417.666C89.8614 417.84 89.8813 417.934 89.8754 417.942C89.8696 417.95 89.8369 417.873 89.7785 417.713C89.7096 417.517 89.6255 417.278 89.5227 416.985C89.2867 416.279 88.9632 415.312 88.5497 414.077L88.6443 414.156C85.1999 413.763 79.8388 413.148 73.0819 412.375C69.6713 411.971 65.9115 411.526 61.8738 411.047C60.8634 410.926 59.8356 410.803 58.7914 410.678C58.2425 410.615 57.7811 410.509 57.3711 410.71C56.9518 410.893 56.6435 411.24 56.5068 411.719C55.8048 413.77 55.083 415.879 54.3448 418.038L54.2759 418.239H54.0634C52.7856 418.24 51.4856 418.241 50.1657 418.242L50.4671 417.941C50.4682 420.244 50.4683 422.607 50.4694 425.006L50.2183 424.707L50.3865 424.735C59.2469 426.285 67.7453 426.932 75.2205 426.795C82.7004 426.681 89.1279 425.772 93.9798 424.828L93.8338 425.007C93.8606 422.149 93.884 419.765 93.9015 417.942L94.016 418.056C92.6985 418.029 91.6636 418.01 90.9091 417.994C90.5937 417.983 90.3368 417.975 90.1265 417.966C89.9548 417.958 89.8696 417.95 89.8754 417.942Z" fill="#263238"/>
<path d="M89.4982 457.598C78.9219 459.307 67.2489 459.059 54.895 457.598L53.2119 441.051C66.2468 442.452 79.0329 442.512 91.5398 441.051L89.4982 457.598Z" fill="#AE7461"/>
<path d="M70.0309 446.364C68.4483 447.323 67.8059 449.338 68.6036 451.055L69.7039 453.425C70.5016 455.142 72.4545 455.951 74.2077 455.361L70.0309 446.364Z" fill="#6F4439"/>
<path d="M70.769 446.022L74.947 455.018C76.5296 454.06 77.172 452.044 76.3743 450.327L75.274 447.957C74.4763 446.24 72.5222 445.431 70.769 446.022Z" fill="#6F4439"/>
<path d="M90.2211 418.045C90.2304 418.086 89.7399 418.232 88.8429 418.461C87.947 418.696 86.6365 418.977 85.006 419.268C81.7472 419.853 77.1804 420.374 72.1183 420.368C67.055 420.353 62.4893 419.812 59.2329 419.213C57.6035 418.915 56.2942 418.63 55.3995 418.389C54.5037 418.157 54.0131 418.009 54.0236 417.968C54.0329 417.927 54.541 417.997 55.4497 418.158C56.3573 418.326 57.6736 418.547 59.303 418.789C62.5605 419.277 67.0947 419.745 72.1194 419.761C77.143 419.766 81.6783 419.318 84.9382 418.844C86.5688 418.609 87.8863 418.394 88.7938 418.23C89.7025 418.073 90.2118 418.004 90.2211 418.045Z" fill="#263238"/>
<path d="M111.022 336.878C111.022 336.878 104.354 338.315 103.195 343.049C102.036 347.783 112.483 461.011 112.902 463.77C113.561 468.102 117.216 473.607 125.448 473.31C132.622 473.052 230.395 473.28 255.014 473.337C258.286 473.345 260.251 470.558 260.682 467.245L139.626 460.099L111.022 336.878Z" fill="#E0E0E0"/>
<path d="M107.985 340.655L118.471 462.764C118.672 464.759 120.334 466.287 122.339 466.32L260.681 466.941L234.106 440.569L144.234 439.936L134.622 344.27C134.488 342.999 133.564 341.952 132.319 341.661L112.187 336.97C109.896 336.437 107.757 338.313 107.985 340.655Z" fill="#E0E0E0"/>
<path d="M107.986 340.654C107.986 340.654 107.946 340.457 107.964 340.064C107.979 339.677 108.081 339.072 108.502 338.413C108.911 337.765 109.702 337.059 110.855 336.863C111.424 336.75 112.067 336.847 112.694 337.014C113.334 337.16 114.018 337.316 114.743 337.481C117.648 338.148 121.225 338.969 125.429 339.934C127.533 340.418 129.793 340.939 132.203 341.494C133.471 341.705 134.617 342.827 134.761 344.217C134.896 345.525 135.035 346.87 135.177 348.253C137.427 370.381 140.639 401.977 144.494 439.907L144.236 439.673C171.209 439.851 201.627 440.052 234.108 440.267L234.231 440.268L234.317 440.355C242.833 448.804 251.783 457.683 260.896 466.723L261.424 467.247L260.681 467.243C258.746 467.235 256.653 467.225 254.553 467.216C218.577 467.046 184.308 466.885 153.138 466.737C145.346 466.698 137.747 466.659 130.364 466.622C128.518 466.612 126.686 466.603 124.867 466.594C123.953 466.584 123.065 466.596 122.138 466.568C121.175 466.511 120.245 466.109 119.546 465.46C118.843 464.813 118.378 463.923 118.243 462.985C118.142 462.076 118.086 461.212 118.005 460.329C117.856 458.573 117.707 456.832 117.56 455.107C116.388 441.297 115.295 428.434 114.298 416.69C112.323 393.21 110.724 374.206 109.618 361.059C109.079 354.499 108.661 349.403 108.376 345.931C108.242 344.211 108.139 342.896 108.069 341.996C108.004 341.111 107.986 340.654 107.986 340.654C107.986 340.654 108.046 341.106 108.132 341.992C108.216 342.89 108.339 344.203 108.5 345.922C108.811 349.391 109.267 354.483 109.855 361.039C111.007 374.183 112.671 393.179 114.728 416.652C115.747 428.394 116.864 441.256 118.064 455.062C118.213 456.788 118.364 458.529 118.516 460.284C118.596 461.156 118.658 462.057 118.755 462.913C118.874 463.733 119.282 464.514 119.899 465.08C120.513 465.649 121.329 465.998 122.169 466.047C123.045 466.072 123.97 466.06 124.873 466.068C126.692 466.075 128.523 466.082 130.37 466.089C137.753 466.118 145.35 466.148 153.143 466.179C184.313 466.312 218.582 466.457 254.556 466.611C256.655 466.621 258.748 466.63 260.683 466.639L260.467 467.159C251.356 458.116 242.409 449.235 233.894 440.785L234.103 440.871C201.622 440.628 171.205 440.4 144.233 440.198L143.998 440.196L143.975 439.962C140.208 402.022 137.07 370.42 134.873 348.286C134.737 346.904 134.605 345.559 134.475 344.252C134.343 342.988 133.324 341.965 132.142 341.759C129.733 341.191 127.475 340.659 125.375 340.164C121.179 339.171 117.607 338.325 114.706 337.638C113.983 337.467 113.301 337.304 112.662 337.153C112.024 336.977 111.431 336.884 110.873 336.984C109.759 337.161 108.98 337.834 108.57 338.46C108.147 339.095 108.032 339.686 108.004 340.069C107.973 340.454 108.001 340.654 107.986 340.654Z" fill="#263238"/>
<path d="M209.248 463.768H222.108L205.85 442.68H198.219L209.248 463.768Z" fill="#263238"/>
<path d="M112.739 346.174L122.559 452.271L140.856 437.719L132.979 348.33C132.915 347.613 132.366 347.035 131.654 346.932L114.501 344.479C113.503 344.336 112.635 345.17 112.739 346.174Z" fill="#263238"/>
<path d="M132.389 463.768H145.662L159.149 442.68H151.516L132.389 463.768Z" fill="#263238"/>
<path d="M148.679 463.768H161.539L168.587 442.68H160.954L148.679 463.768Z" fill="#263238"/>
<path d="M164.419 463.768H177.279L177.972 442.68H170.339L164.419 463.768Z" fill="#263238"/>
<path d="M179.015 463.768H191.873L187.126 442.68H179.494L179.015 463.768Z" fill="#263238"/>
<path d="M194.227 463.768H207.086L196.609 442.68H188.978L194.227 463.768Z" fill="#263238"/>
<path d="M221.46 459.658C221.46 459.759 201.85 459.84 177.667 459.84C153.475 459.84 133.87 459.759 133.87 459.658C133.87 459.558 153.475 459.476 177.667 459.476C201.85 459.476 221.46 459.558 221.46 459.658Z" fill="#E0E0E0"/>
<path d="M219.13 455.791C219.13 455.891 200.507 455.973 177.539 455.973C154.565 455.973 135.946 455.891 135.946 455.791C135.946 455.691 154.565 455.609 177.539 455.609C200.507 455.609 219.13 455.691 219.13 455.791Z" fill="#E0E0E0"/>
<path d="M219.129 452.282C219.129 452.484 201.606 452.648 179.994 452.648C158.376 452.648 140.856 452.484 140.856 452.282C140.856 452.08 158.376 451.918 179.994 451.918C201.606 451.918 219.129 452.081 219.129 452.282Z" fill="#E0E0E0"/>
<path d="M219.668 449.08C219.668 449.282 202.522 449.445 181.375 449.445C160.221 449.445 143.079 449.282 143.079 449.08C143.079 448.878 160.221 448.714 181.375 448.714C202.522 448.715 219.668 448.879 219.668 449.08Z" fill="#E0E0E0"/>
<path d="M221.46 446.741C221.46 446.943 204.202 447.107 182.918 447.107C161.627 447.107 144.373 446.943 144.373 446.741C144.373 446.54 161.628 446.376 182.918 446.376C204.203 446.377 221.46 446.54 221.46 446.741Z" fill="#E0E0E0"/>
<path d="M223.359 444.299C223.359 444.501 205.777 444.665 184.095 444.665C162.404 444.665 144.825 444.501 144.825 444.299C144.825 444.098 162.404 443.933 184.095 443.933C205.777 443.935 223.359 444.098 223.359 444.299Z" fill="#E0E0E0"/>
<path d="M120.406 462.764C128.395 455.29 136.384 447.815 144.373 440.341Z" fill="#E0E0E0"/>
<path d="M144.373 440.341C144.487 440.463 139.215 445.583 132.598 451.774C125.979 457.967 120.521 462.887 120.407 462.764C120.292 462.641 125.563 457.523 132.182 451.329C138.799 445.139 144.257 440.218 144.373 440.341Z" fill="#263238"/>
<path d="M540.969 356.819C540.969 356.819 539.794 344.423 508.898 336.489C493.98 332.658 458.371 330.818 454.336 353.964C454.205 354.713 436.613 500.281 436.613 500.281H502.447L540.969 356.819Z" fill="#455A64"/>
<path d="M530.541 500.281H500.168L510.311 357.663C511.054 350.722 518.237 345.72 526.354 346.487L529.073 346.744C537.191 347.512 542.331 355.331 542.099 364.24L530.541 500.281Z" fill="#455A64"/>
<path d="M502.447 495.147C502.28 495.133 504.425 467.04 507.238 432.406C510.052 397.761 512.469 369.695 512.636 369.709C512.803 369.723 510.658 397.81 507.844 432.456C505.031 467.089 502.614 495.161 502.447 495.147Z" fill="#263238"/>
<path d="M535.138 350.084C535.095 350.2 533.557 349.419 530.869 349.079C528.222 348.723 524.32 349.004 520.739 351.049C517.165 353.109 514.952 356.336 513.923 358.8C512.86 361.292 512.757 363.014 512.634 362.992C512.599 362.989 512.596 362.562 512.694 361.797C512.79 361.032 513.031 359.933 513.524 358.638C514.476 356.067 516.711 352.668 520.435 350.522C524.167 348.39 528.229 348.176 530.929 348.653C532.295 348.882 533.366 349.227 534.075 349.531C534.787 349.832 535.153 350.052 535.138 350.084Z" fill="#263238"/>
<path d="M439.242 171.777C439.547 163.428 433.888 162.299 429.531 163.261C424.238 159.367 416.204 159.805 411.365 164.252C407.4 162.089 402.301 162.173 398.409 164.465C394.516 166.757 391.97 171.175 391.937 175.693C387.396 175.136 382.638 177.752 380.678 181.886C378.719 186.02 379.703 191.359 383.01 194.522C378.151 196.293 375.122 202.023 376.397 207.035C377.67 212.047 383.067 215.636 388.182 214.873L439.414 180.755C442.487 177.521 439.08 176.235 439.242 171.777Z" fill="#263238"/>
<path d="M386.702 216.406C387.75 193.096 406.523 174.503 429.842 173.673L432.159 173.591C457.195 174.162 470.696 195.744 469.434 220.754L468.774 304.081L468.61 319.902L411.368 333.511L410.786 300.528C410.786 300.528 386.634 297.647 385.484 273.644C384.929 262.051 385.727 238.088 386.702 216.406Z" fill="#AE7461"/>
<path d="M410.585 300.501C410.585 300.501 425.953 300.878 441.723 290.172C441.723 290.172 434.937 307.718 410.898 306.407L410.585 300.501Z" fill="#6F4439"/>
<path d="M393.691 240.627C393.691 242.439 395.227 243.934 397.121 243.97C399.01 244.003 400.546 242.566 400.545 240.752C400.544 238.939 399.009 237.442 397.119 237.407C395.226 237.371 393.691 238.814 393.691 240.627Z" fill="#263238"/>
<path d="M392.057 229.201C392.498 229.634 395.026 227.618 398.718 227.497C402.403 227.323 405.179 229.125 405.563 228.659C405.753 228.451 405.291 227.66 404.082 226.843C402.89 226.029 400.881 225.269 398.583 225.36C396.285 225.454 394.382 226.369 393.301 227.275C392.195 228.186 391.839 229.009 392.057 229.201Z" fill="#263238"/>
<path d="M423.355 239.866C423.355 241.679 424.891 243.173 426.785 243.208C428.675 243.243 430.211 241.804 430.21 239.99C430.21 238.179 428.673 236.681 426.783 236.646C424.891 236.61 423.355 238.052 423.355 239.866Z" fill="#263238"/>
<path d="M427.342 227.432C427.783 227.864 430.316 225.849 434.005 225.729C437.689 225.555 440.465 227.357 440.849 226.89C441.039 226.683 440.581 225.891 439.366 225.075C438.175 224.261 436.167 223.5 433.868 223.59C431.571 223.685 429.667 224.601 428.585 225.506C427.485 226.417 427.127 227.239 427.342 227.432Z" fill="#263238"/>
<path d="M416.16 255.215C416.169 255.004 413.863 254.688 410.128 254.346C409.182 254.283 408.284 254.128 408.102 253.49C407.856 252.817 408.214 251.787 408.631 250.674C409.436 248.362 410.278 245.939 411.163 243.4C414.671 233.045 417.173 224.546 416.755 224.408C416.336 224.271 413.155 232.551 409.648 242.905C408.806 245.458 408 247.892 407.235 250.218C406.918 251.302 406.346 252.538 406.878 253.934C407.157 254.629 407.866 255.116 408.476 255.256C409.087 255.418 409.617 255.41 410.084 255.422C413.832 255.489 416.153 255.424 416.16 255.215Z" fill="#263238"/>
<path d="M427.111 257.38C426.51 257.366 426.644 261.373 423.318 264.337C419.996 267.311 415.71 267.013 415.699 267.574C415.652 267.827 416.678 268.318 418.482 268.302C420.252 268.3 422.813 267.641 424.849 265.827C426.879 264.009 427.695 261.651 427.774 260.003C427.867 258.323 427.385 257.347 427.111 257.38Z" fill="#263238"/>
<path d="M426.92 216.893C427.393 217.836 430.54 216.863 434.404 216.789C438.266 216.627 441.513 217.405 441.876 216.436C442.032 215.975 441.356 215.125 439.972 214.357C438.6 213.59 436.505 212.982 434.189 213.05C431.874 213.124 429.857 213.856 428.577 214.705C427.288 215.556 426.709 216.444 426.92 216.893Z" fill="#263238"/>
<path d="M392.534 219.051C393.143 219.919 395.725 219.168 398.782 219.27C401.844 219.264 404.399 220.096 405.036 219.248C405.317 218.834 404.949 217.976 403.855 217.13C402.778 216.288 400.944 215.556 398.842 215.521C396.74 215.489 394.885 216.164 393.781 216.972C392.661 217.783 392.266 218.63 392.534 219.051Z" fill="#263238"/>
<path d="M388.62 205.311C388.62 205.311 394.419 190.048 401.545 186.28C410.173 181.719 414.295 191.22 422.578 188.584C430.861 185.948 439.097 181.574 447.877 187.737C457.486 194.484 453.279 199.605 454.235 210.24C458.116 253.354 466.439 265.29 467.959 244.863C468.125 242.625 474.249 240.633 474.832 231.181C475.587 218.925 475.528 204.08 472.495 195.51C469.937 188.286 465.593 183.388 457.926 178.088C445.824 169.724 429.621 170.111 418.662 171.608C407.702 173.107 386.948 186.517 388.62 205.311Z" fill="#263238"/>
<path d="M466.405 244.265C466.424 240.553 469.515 237.513 473.219 237.732C477.713 238 482.788 240.365 482.82 249.631C482.88 266.067 466.367 262.736 466.336 262.265C466.317 261.945 466.369 251.143 466.405 244.265Z" fill="#AE7461"/>
<path d="M469.89 256.068C469.963 256.015 470.178 256.267 470.662 256.487C471.134 256.701 471.946 256.847 472.802 256.523C474.537 255.88 475.988 253.118 476.057 250.155C476.094 248.66 475.775 247.236 475.241 246.059C474.735 244.858 473.955 244.021 473.08 243.869C472.21 243.671 471.593 244.196 471.393 244.66C471.174 245.12 471.28 245.447 471.193 245.476C471.147 245.517 470.839 245.202 470.968 244.522C471.035 244.196 471.226 243.807 471.612 243.491C472.006 243.168 472.585 243.002 473.193 243.067C474.462 243.15 475.606 244.312 476.194 245.604C476.85 246.901 477.244 248.501 477.203 250.181C477.11 253.493 475.425 256.599 473.052 257.294C471.897 257.6 470.932 257.256 470.432 256.869C469.922 256.465 469.834 256.098 469.89 256.068Z" fill="#6F4439"/>
<path d="M464.953 212.467C462.873 213.999 460.674 215.579 458.114 215.925C455.553 216.27 452.563 214.899 452.039 212.369C451.804 211.234 452.035 209.898 451.253 209.04C450.318 208.018 448.676 208.407 447.306 208.602C442.551 209.279 437.543 206.076 436.162 201.475C435.009 203.342 432.165 203.363 430.281 202.242C428.396 201.119 427.142 199.218 425.641 197.619C424.14 196.018 422.064 194.613 419.905 195C418.697 195.215 417.586 195.979 416.362 195.913C414.199 195.799 413.057 193.311 412.655 191.183C412.252 189.055 411.91 186.567 410.042 185.469C408.311 184.452 406.141 185.153 404.166 185.516C402.192 185.879 399.613 185.504 399.036 183.582C398.734 182.574 399.132 181.486 399.665 180.577C402.078 176.463 407.589 174.476 412.072 176.106C413.486 170.624 418.409 166.222 424.015 165.429C429.62 164.634 435.572 167.497 438.452 172.372C441.81 169.101 446.804 167.6 451.409 168.479C456.015 169.359 460.105 172.594 462.021 176.874C465.977 175.681 470.583 177.064 473.23 180.238C475.877 183.411 476.407 188.192 474.522 191.87C477.533 193.451 480.164 196.293 480.345 199.689C480.528 203.086 477.338 206.589 474.026 205.812C475.446 208.411 474.495 212.041 471.985 213.61C469.474 215.178 465.794 214.444 464.081 212.029" fill="#263238"/>
<path d="M475.231 205.732C475.286 205.686 475.583 207.1 474.32 208.924C473.694 209.79 472.603 210.706 471.1 211.003C469.631 211.304 467.804 211.005 466.371 209.809L467.061 209.681C466.3 211.123 465.279 212.601 463.93 213.891C463.061 214.713 462.089 215.422 461.005 215.857C459.943 216.325 458.718 216.409 457.711 216.282C455.622 216.127 453.767 215.073 452.877 213.732C451.954 212.423 451.633 211.187 451.426 210.364C451.23 209.53 451.196 209.056 451.252 209.042C451.322 209.023 451.478 209.469 451.778 210.255C452.083 211.031 452.506 212.194 453.405 213.324C455.045 215.623 460.158 216.645 463.279 213.204C464.533 212.007 465.521 210.609 466.268 209.257L466.54 208.763L466.96 209.128C468.123 210.141 469.688 210.46 470.962 210.248C472.258 210.048 473.249 209.316 473.879 208.577C475.144 207.035 475.087 205.694 475.231 205.732Z" fill="#455A64"/>
<path d="M281.103 420.729C281.103 420.729 250.119 419.8 248.262 419.22C246.405 418.639 241.88 418.524 239.675 419.22C237.47 419.916 228.65 423.05 228.65 423.05L209.932 428.039C209.932 428.039 191.121 440.343 191.515 442.805C191.908 445.267 193.951 446.955 197.318 445.678C200.683 444.402 217.665 435.582 217.665 435.582L236.305 433.609C236.305 433.609 261.799 442.767 266.944 442.313C272.089 441.859 285.28 439.628 285.28 439.628C285.28 439.628 287.137 426.416 286.208 424.327C285.281 422.238 281.103 420.729 281.103 420.729Z" fill="#AE7461"/>
<path d="M192.862 453.749C192.862 453.749 208.563 436.913 212.915 434.642C217.266 432.371 241.481 428.399 241.481 428.399C241.481 428.399 249.238 425.182 252.075 426.318C254.913 427.453 284.993 431.993 286.316 432.182C287.641 432.371 279.884 458.668 279.884 458.668C279.884 458.668 269.479 460.56 257.372 457.722C245.264 454.883 241.103 451.1 241.103 451.1L229.016 447.927L221.622 450.748C221.622 450.748 220.294 461.695 214.996 461.128L212.536 459.425L214.428 447.317L206.671 450.533C206.671 450.533 200.617 459.614 196.077 458.289C191.537 456.965 192.862 453.749 192.862 453.749Z" fill="#AE7461"/>
<path d="M192.862 453.749C192.892 453.752 192.669 454.189 192.741 455.063C192.785 455.493 192.938 456.032 193.327 456.541C193.711 457.052 194.328 457.506 195.104 457.835C195.881 458.163 196.81 458.445 197.829 458.226C198.838 457.996 199.849 457.433 200.835 456.701C202.804 455.219 204.719 453.052 206.534 450.442L206.564 450.4L206.608 450.381C208.933 449.408 211.546 448.313 214.353 447.138L214.669 447.005L214.617 447.346C214.057 450.989 213.429 455.077 212.756 459.459L212.663 459.239C213.414 459.756 214.263 460.342 215.126 460.936L215.02 460.896C216.01 460.985 216.995 460.606 217.748 459.895C218.508 459.193 219.104 458.27 219.554 457.267C220.471 455.269 221.041 453.017 221.367 450.715L221.389 450.561L221.53 450.507C223.834 449.624 226.348 448.662 228.921 447.676L229.001 447.645L229.085 447.668C232.903 448.665 236.979 449.731 241.175 450.827L241.229 450.841L241.293 450.891C243.669 452.748 246.65 454.029 249.655 455.153C252.695 456.243 255.893 457.126 259.18 457.802C262.469 458.475 265.878 458.837 269.341 458.948C272.799 459.045 276.342 458.914 279.83 458.368L279.593 458.58C280.128 456.724 280.702 454.729 281.281 452.723C282.941 446.774 284.612 440.918 285.825 435.129C285.964 434.407 286.1 433.678 286.156 432.973C286.17 432.799 286.173 432.62 286.156 432.484C286.167 432.408 286.083 432.363 286.204 432.461C286.225 432.473 286.249 432.479 286.27 432.479L286.24 432.474L286.171 432.464L286.034 432.444L284.943 432.28C283.493 432.058 282.053 431.838 280.621 431.618C277.76 431.167 274.937 430.722 272.157 430.284C266.6 429.387 261.217 428.508 256.052 427.522C254.758 427.252 253.495 427.036 252.214 426.644C251.068 426.197 249.798 426.349 248.58 426.534C246.134 426.967 243.791 427.766 241.578 428.636L241.549 428.648L241.522 428.653C233.057 430.075 225.315 431.467 218.561 433.089C216.876 433.496 215.248 433.935 213.749 434.497C212.27 435.078 211.085 436.132 209.932 437.078C207.646 439.017 205.661 440.935 203.871 442.664C200.301 446.133 197.584 448.942 195.722 450.843C194.808 451.784 194.1 452.51 193.603 453.019C193.122 453.51 192.862 453.749 192.862 453.749C192.862 453.749 193.085 453.471 193.545 452.963C194.029 452.441 194.718 451.697 195.61 450.735C197.437 448.798 200.121 445.956 203.665 442.451C205.442 440.705 207.414 438.771 209.701 436.804C210.274 436.313 210.865 435.821 211.502 435.353C212.127 434.878 212.829 434.431 213.603 434.137C215.141 433.55 216.77 433.104 218.461 432.684C225.232 431.022 232.966 429.6 241.439 428.148L241.383 428.164C243.632 427.273 245.977 426.465 248.492 426.009C249.732 425.818 251.108 425.641 252.398 426.133C253.578 426.492 254.884 426.721 256.158 426.981C261.309 427.953 266.696 428.822 272.25 429.711C275.029 430.145 277.851 430.586 280.712 431.033C282.143 431.25 283.584 431.47 285.033 431.69L286.122 431.853L286.257 431.873L286.325 431.883L286.362 431.889C286.405 431.898 286.45 431.915 286.491 431.938C286.76 432.141 286.719 432.303 286.749 432.403C286.776 432.631 286.767 432.823 286.754 433.017C286.693 433.784 286.555 434.514 286.415 435.248C285.194 441.088 283.528 446.933 281.865 452.892C281.285 454.901 280.709 456.897 280.174 458.755L280.121 458.94L279.936 458.969C276.366 459.526 272.818 459.652 269.32 459.554C265.824 459.439 262.383 459.071 259.059 458.388C255.738 457.701 252.527 456.808 249.453 455.702C247.919 455.143 246.425 454.517 244.986 453.811C243.549 453.092 242.167 452.341 240.91 451.312L241.028 451.376C236.836 450.27 232.762 449.195 228.946 448.188L229.108 448.179C226.533 449.157 224.016 450.113 221.709 450.988L221.871 450.78C221.528 453.144 220.949 455.409 219.993 457.479C219.523 458.511 218.899 459.484 218.065 460.25C217.243 461.026 216.092 461.473 214.968 461.359L214.91 461.353L214.861 461.319C214.001 460.721 213.155 460.131 212.406 459.612L212.29 459.531L212.312 459.392C213.009 455.014 213.657 450.93 214.235 447.289L214.502 447.495C211.688 448.651 209.068 449.727 206.735 450.685L206.809 450.624C204.949 453.255 203.009 455.414 200.986 456.906C199.974 457.641 198.932 458.21 197.872 458.438C196.794 458.657 195.807 458.341 195.033 457.995C194.242 457.645 193.609 457.162 193.22 456.619C192.826 456.078 192.682 455.513 192.653 455.069C192.608 454.169 192.862 453.749 192.862 453.749Z" fill="#6F4439"/>
<path d="M240.414 439.5C240.408 439.542 239.984 439.529 239.222 439.471C238.459 439.412 237.358 439.307 235.998 439.165C234.588 439.008 232.982 438.829 231.229 438.634C230.779 438.582 230.319 438.527 229.852 438.472C229.382 438.402 228.972 438.432 228.48 438.501C227.529 438.632 226.541 438.86 225.537 439.112C221.599 440.255 217.658 441.016 216.141 443.352C215.334 444.412 214.96 445.458 214.739 446.175C214.529 446.9 214.472 447.319 214.429 447.316C214.389 447.315 214.364 446.881 214.509 446.119C214.666 445.365 214.985 444.256 215.794 443.097C216.205 442.53 216.725 441.943 217.399 441.451C218.07 440.967 218.889 440.56 219.743 440.262C221.453 439.639 223.354 439.045 225.388 438.522C226.405 438.266 227.405 438.039 228.405 437.909C228.884 437.84 229.449 437.814 229.916 437.894C230.385 437.956 230.842 438.016 231.292 438.076C233.042 438.319 234.644 438.541 236.051 438.736C237.404 438.933 238.498 439.103 239.252 439.233C240.005 439.367 240.42 439.458 240.414 439.5Z" fill="#6F4439"/>
<path d="M198.246 448.149C198.219 448.12 198.674 447.645 199.545 446.841C200.416 446.037 201.701 444.901 203.329 443.543C204.96 442.188 206.927 440.605 209.199 438.954C210.34 438.136 211.554 437.298 212.871 436.505C213.534 436.115 214.221 435.735 214.963 435.412C215.725 435.091 216.493 434.885 217.278 434.669C223.551 432.94 229.423 432.488 233.602 431.861C235.621 431.61 237.296 431.402 238.578 431.242C239.756 431.109 240.409 431.056 240.415 431.097C240.42 431.139 239.778 431.271 238.611 431.477C237.336 431.686 235.671 431.958 233.665 432.286C229.498 433.022 223.647 433.542 217.438 435.255C216.666 435.467 215.889 435.678 215.2 435.968C214.499 436.271 213.826 436.638 213.174 437.018C211.878 437.79 210.666 438.61 209.524 439.411C207.249 441.025 205.26 442.569 203.6 443.877C202.018 445.152 200.705 446.21 199.7 447.019C198.785 447.768 198.277 448.183 198.246 448.149Z" fill="#6F4439"/>
<path d="M393.921 338.442C393.921 338.442 385.66 349.783 379.116 363.413C373.507 375.094 355.349 414.858 355.349 414.858L281.386 418.741L282.477 447.317C282.477 447.317 353.916 472.768 369.908 467.859C385.901 462.95 402.936 444.51 402.936 444.51L410.584 323.973C410.584 323.973 404.239 322.777 393.921 338.442Z" fill="#C32ADC"/>
<path d="M409.386 324.244C409.386 324.244 390.421 367.26 387.649 385.482C382.148 421.657 380.3 444.299 380.3 444.299L373.852 500.281H500.17C500.17 500.281 504.352 396.527 501.666 361.738C499.653 335.674 479.691 319.44 471.524 310.525C471.033 309.988 468.783 302.691 468.783 302.691L409.921 317.766L409.386 324.244Z" fill="#C32ADC"/>
<path d="M403.277 330.781C403.286 330.786 403.237 330.924 403.131 331.189C403.011 331.481 402.851 331.87 402.649 332.361C402.203 333.422 401.568 334.93 400.759 336.856C399.134 340.764 396.792 346.431 394.437 353.619C392.064 360.8 389.743 369.518 387.906 379.351C386.027 389.175 384.505 400.077 383.235 411.555C380.908 434.537 378.8 455.338 377.272 470.435C376.49 477.941 375.856 484.026 375.414 488.273C375.184 490.35 375.006 491.976 374.878 493.119C374.813 493.647 374.763 494.064 374.724 494.378C374.686 494.661 374.661 494.806 374.651 494.804C374.64 494.803 374.645 494.656 374.662 494.371C374.686 494.056 374.717 493.638 374.757 493.106C374.856 491.959 374.999 490.33 375.18 488.247C375.576 483.995 376.144 477.904 376.845 470.39C378.306 455.314 380.236 434.484 382.633 411.488C383.903 400 385.444 389.084 387.357 379.245C389.228 369.398 391.601 360.663 394.03 353.482C396.444 346.293 398.85 340.644 400.543 336.762C401.378 334.815 402.075 333.326 402.538 332.311C402.764 331.829 402.942 331.449 403.076 331.162C403.199 330.907 403.268 330.778 403.277 330.781Z" fill="#263238"/>
<g opacity="0.3">
<path d="M468.902 398.498C467.74 387.037 462.59 375.54 453.162 368.921L376.141 478.907C389.738 486.238 404.835 493.811 419.942 490.579C428.068 488.841 435.294 484.048 441.154 478.155C453.334 465.906 459.941 449.216 464.585 432.578C467.683 421.483 470.065 409.959 468.902 398.498Z" fill="black"/>
</g>
<path d="M477.634 385.211C468.038 419.168 446.442 460.602 439.808 468.926C426.852 485.188 409.728 488.699 399.511 488.699C390.821 488.699 317.376 474.396 295.612 470.12C291.937 469.398 289.057 466.551 288.287 462.885L288.098 461.985L278.3 459.346L283.517 433.056L284.558 431.599L389.6 434.904L420.157 349.796C420.734 348.823 429.559 320.263 453.487 321.561" fill="#C32ADC"/>
<path d="M453.487 321.559C453.487 321.559 453.218 321.57 452.693 321.569C452.167 321.578 451.382 321.527 450.352 321.626C448.301 321.748 445.209 322.165 441.525 323.723C437.872 325.308 433.722 328.178 429.998 332.615C426.235 337.029 422.93 342.855 420.304 349.881L420.318 349.852C412.601 371.416 402.121 400.7 389.85 434.991L389.784 435.172L389.592 435.166C358.331 434.195 322.616 433.084 284.549 431.9L284.804 431.773C284.479 432.229 284.121 432.73 283.764 433.23L283.814 433.113C282.305 440.717 280.7 448.805 279.078 456.981C278.913 457.81 278.748 458.64 278.598 459.404L278.378 459.051C281.78 459.967 285.072 460.854 288.176 461.689L288.368 461.741L288.395 461.921C288.729 464.107 289.677 466.123 291.282 467.581C292.067 468.308 292.977 468.903 293.967 469.302C294.946 469.724 296.016 469.884 297.105 470.103C301.422 470.946 305.707 471.783 309.96 472.614C318.47 474.251 326.848 475.863 335.073 477.445C351.531 480.563 367.386 483.529 382.51 486.088C386.293 486.715 390.03 487.315 393.724 487.837C395.573 488.069 397.41 488.328 399.223 488.411C401.048 488.435 402.872 488.343 404.663 488.139C411.849 487.374 418.627 485.098 424.516 481.77C430.425 478.441 435.355 473.987 439.33 469.133C441.288 466.691 442.865 464.024 444.426 461.445C445.956 458.844 447.399 456.268 448.767 453.729C459.643 433.376 466.765 416.118 471.29 404.101C473.513 398.073 475.094 393.346 476.099 390.123C476.595 388.518 476.972 387.291 477.231 386.453C477.489 385.627 477.635 385.209 477.635 385.209C477.635 385.209 477.528 385.639 477.288 386.47C477.043 387.312 476.683 388.545 476.213 390.159C475.243 393.395 473.697 398.137 471.506 404.182C467.044 416.232 459.979 433.525 449.137 453.929C447.774 456.474 446.334 459.059 444.805 461.671C443.245 464.261 441.671 466.937 439.687 469.423C435.69 474.324 430.721 478.829 424.76 482.199C418.818 485.571 411.977 487.877 404.719 488.661C402.908 488.87 401.069 488.965 399.216 488.942C397.346 488.859 395.509 488.6 393.651 488.37C389.948 487.851 386.207 487.255 382.42 486.631C367.284 484.086 351.425 481.133 334.963 478.023C326.737 476.444 318.358 474.835 309.846 473.202C305.592 472.373 301.306 471.537 296.989 470.695C295.926 470.481 294.795 470.313 293.737 469.861C292.68 469.433 291.708 468.8 290.871 468.023C289.165 466.496 288.133 464.257 287.803 462.044L288.021 462.276C284.918 461.441 281.625 460.554 278.223 459.637L277.948 459.564L278.003 459.284C278.155 458.521 278.318 457.693 278.483 456.862C280.107 448.686 281.712 440.598 283.222 432.994L283.235 432.93L283.273 432.876C283.631 432.375 283.989 431.875 284.314 431.419L284.408 431.288L284.57 431.292C322.635 432.503 358.35 433.64 389.61 434.634L389.352 434.809C401.696 400.543 412.237 371.282 419.998 349.734L420.012 349.705C422.619 342.767 426.003 336.841 429.799 332.441C433.566 327.992 437.766 325.122 441.457 323.554C445.178 322.012 448.289 321.623 450.35 321.531C451.385 321.446 452.171 321.513 452.697 321.519C453.221 321.539 453.487 321.559 453.487 321.559Z" fill="#263238"/>
<path d="M366.454 428.163C366.273 428.257 364.82 424.369 361.389 420.73C358.001 417.05 354.227 415.326 354.333 415.152C354.361 415.088 355.335 415.428 356.778 416.258C358.218 417.083 360.095 418.454 361.835 420.315C363.569 422.182 364.802 424.151 365.524 425.646C366.249 427.143 366.519 428.139 366.454 428.163Z" fill="#263238"/>
<path d="M402.301 455.494C402.197 455.509 401.992 454.148 401.383 452.029C400.779 449.911 399.682 447.052 397.936 444.181C396.179 441.316 394.138 439.034 392.529 437.528C390.923 436.018 389.805 435.214 389.866 435.128C389.891 435.093 390.19 435.265 390.713 435.606C391.242 435.938 391.965 436.484 392.816 437.209C394.522 438.653 396.663 440.94 398.454 443.865C400.237 446.794 401.293 449.743 401.797 451.919C402.053 453.008 402.207 453.9 402.262 454.523C402.327 455.144 402.343 455.488 402.301 455.494Z" fill="#263238"/>
<g opacity="0.3">
<path d="M374.281 434.239L380.396 434.466C381.382 410.474 386.327 386.55 390.557 362.913C379.774 384.933 376.949 409.869 374.281 434.239Z" fill="black"/>
</g>
<path d="M469.473 310.525C469.478 310.544 469.279 310.613 468.896 310.725C468.445 310.849 467.889 311.001 467.215 311.187C465.666 311.599 463.571 312.156 461.023 312.834C455.794 314.222 448.588 316.215 440.578 318.236C432.566 320.261 425.239 321.819 419.892 322.697C417.219 323.139 415.048 323.451 413.541 323.605C412.845 323.675 412.272 323.733 411.806 323.78C411.408 323.814 411.198 323.821 411.196 323.8C411.193 323.779 411.398 323.731 411.79 323.659C412.252 323.582 412.819 323.486 413.508 323.37C415.003 323.144 417.16 322.769 419.817 322.273C425.132 321.289 432.425 319.668 440.43 317.645C448.432 315.626 455.656 313.699 460.916 312.417C463.544 311.767 465.68 311.274 467.159 310.957C467.845 310.817 468.409 310.701 468.868 310.606C469.259 310.533 469.467 310.505 469.473 310.525Z" fill="#263238"/>
</svg>
