<svg width="448" height="448" viewBox="0 0 448 448" fill="none" xmlns="http://www.w3.org/2000/svg">
<path d="M227.64 434.509C338.422 434.509 428.23 379.551 428.23 311.756C428.23 243.962 338.422 189.003 227.64 189.003C116.857 189.003 27.0493 243.962 27.0493 311.756C27.0493 379.551 116.857 434.509 227.64 434.509Z" fill="#F5F5F5"/>
<path d="M329.139 362.694C328.37 362.694 327.224 362.563 326.142 361.939L290.68 341.464C289.411 340.732 288.652 339.503 288.652 338.183C288.652 336.86 289.411 335.632 290.68 334.9L349.402 300.997C350.484 300.372 351.629 300.24 352.4 300.24C353.17 300.24 354.316 300.372 355.397 300.997L390.858 321.471C392.129 322.203 392.888 323.43 392.888 324.753C392.888 326.076 392.129 327.302 390.858 328.035L332.136 361.938C331.055 362.563 329.91 362.694 329.139 362.694Z" fill="#E0E0E0"/>
<path d="M254.607 407.581C249.993 407.581 245.523 407.073 241.324 406.071C237.004 405.045 233.057 403.588 229.595 401.74L229.508 401.692C228.798 401.293 227.88 400.742 226.7 400.008C225.593 399.317 224.457 398.587 223.288 397.821C222.116 397.055 221.018 396.319 219.991 395.612C218.922 394.882 218.1 394.291 217.49 393.818C214.457 391.446 212.167 388.728 210.67 385.731C209.024 382.427 208.54 378.943 209.23 375.369C209.884 371.982 211.697 368.605 214.619 365.337C217.381 362.247 221.248 359.405 226.441 356.653C232.195 353.603 237.769 351.363 243.009 349.993C248.271 348.618 253.329 347.901 258.042 347.862L258.488 347.86C263.088 347.86 267.476 348.433 271.53 349.559C275.636 350.702 279.515 352.251 283.061 354.162C284.471 354.943 285.985 355.865 287.609 356.93C289.254 358.008 290.63 358.974 291.814 359.884C294.017 361.513 295.569 363.332 296.428 365.288C297.257 367.197 297.524 369.111 297.228 370.998C297.36 370.989 297.491 370.983 297.623 370.98L297.87 370.976C299.543 370.976 301.087 371.471 302.347 372.407C304.053 373.614 304.911 375.614 304.594 377.677C304.374 379.102 304.006 380.64 303.5 382.252C302.894 384.173 301.8 386.142 300.241 388.11C298.785 389.954 296.841 391.825 294.299 393.833C291.844 395.769 288.586 397.818 284.615 399.922C279.644 402.558 274.574 404.511 269.544 405.728C264.54 406.935 259.618 407.558 254.911 407.58L254.607 407.581ZM251.464 377.213C251.624 377.33 251.805 377.455 252.008 377.588C253.596 378.628 255.165 379.241 256.679 379.41C256.962 379.442 257.238 379.459 257.502 379.459C258.18 379.459 258.814 379.355 259.422 379.142C259.275 379.038 259.113 378.927 258.935 378.81C257.333 377.761 255.742 377.131 254.21 376.938C253.933 376.904 253.658 376.885 253.392 376.885C252.728 376.886 252.091 376.994 251.464 377.213Z" fill="#E0E0E0"/>
<path d="M149.481 391.243L34.1411 324.804C31.7085 323.399 31.7085 321.122 34.1411 319.717L268.218 184.625C270.651 183.22 274.596 183.22 277.029 184.625L392.369 251.065C394.802 252.469 394.802 254.746 392.369 256.151L158.291 391.243C155.858 392.648 151.913 392.648 149.481 391.243Z" fill="#E0E0E0"/>
<path d="M141.751 53.1866L135.88 56.5761C135.909 56.3136 135.929 56.0538 135.929 55.7993V54.0987C135.929 51.072 133.805 49.8454 131.183 51.3587C130.122 51.9716 129.145 52.9428 128.355 54.079C127.925 50.2737 124.94 48.8562 121.313 50.9492C117.392 53.2134 114.213 58.7194 114.213 63.2468V65.7915C114.213 66.9644 114.43 67.9517 114.814 68.7393L109.938 71.5546C108.484 72.3941 107.306 74.4352 107.306 76.1143C107.306 77.7934 108.484 78.4735 109.938 77.6339L141.751 59.2677C143.205 58.4282 144.383 56.3871 144.383 54.708C144.383 53.028 143.205 52.347 141.751 53.1866Z" fill="#EBEBEB"/>
<path d="M102.945 37.5935L99.7068 38.8389V31.7049C99.7068 26.0494 95.1964 24.6937 90.2988 27.5215C85.4013 30.3493 81.4311 37.2261 81.4311 42.8807V43.9165C80.3201 43.473 78.8847 43.645 77.3158 44.5509C73.7909 46.5857 70.9345 51.5343 70.9345 55.6039V56.0743L66.4195 58.6817C64.0989 60.0212 62.2173 63.28 62.2173 65.9599C62.2173 68.6398 64.0989 69.7258 66.4195 68.3863L102.946 47.298C105.266 45.9576 107.148 42.6989 107.148 40.0189C107.147 37.3399 105.266 36.253 102.945 37.5935Z" fill="#EBEBEB"/>
<path d="M54.5968 298.864L60.6949 295.34C60.6949 295.34 64.3246 280.259 62.8785 266.688C60.8446 247.608 48.2853 240.429 43.5097 242.074C38.734 243.719 37.3505 249.272 45.2533 260.636C49.9152 267.34 55.6424 281.305 54.5968 298.864Z" fill="#1A56CC"/>
<g opacity="0.15">
<path d="M54.5968 298.864L60.6949 295.34C60.6949 295.34 64.3246 280.259 62.8785 266.688C60.8446 247.608 48.2853 240.429 43.5097 242.074C38.734 243.719 37.3505 249.272 45.2533 260.636C49.9152 267.34 55.6424 281.305 54.5968 298.864Z" fill="black"/>
</g>
<path d="M57.1235 291.455C57.1037 291.454 57.0849 291.452 57.0652 291.448C56.8358 291.404 56.6844 291.183 56.7283 290.953C60.0713 273.355 53.9238 253.579 46.3105 245.351C46.1519 245.179 46.1618 244.912 46.3338 244.753C46.5059 244.596 46.7729 244.605 46.9315 244.776C54.6827 253.155 60.9512 273.254 57.5589 291.111C57.5204 291.321 57.3304 291.465 57.1235 291.455Z" fill="white"/>
<path d="M37.7466 310.762C36.7834 311.252 34.2209 309.06 33.5068 308.527C32.2846 307.614 31.3196 306.36 30.7068 304.966C29.9935 303.344 29.8797 301.638 30.2166 299.899C30.3914 298.998 30.6897 298.126 30.9881 297.257C31.2802 296.404 31.5732 295.552 31.8653 294.699C32.1538 293.858 32.4459 292.987 32.3778 292.1C32.2398 290.313 30.7274 288.99 29.3484 287.844C27.8243 286.578 26.2536 284.93 26.3701 282.793C26.4606 281.144 27.3916 279.656 28.4784 278.413C29.5653 277.17 30.8358 276.088 31.8285 274.768C32.5427 273.819 33.1197 272.69 33.0713 271.501C33.0408 270.763 32.7711 270.056 32.4531 269.39C31.7685 267.96 30.8367 266.636 30.3923 265.115C29.9469 263.593 30.1145 261.738 31.3357 260.727C32.3375 259.897 33.7675 259.846 35.0595 259.998C36.2548 260.137 37.399 260.738 38.4195 261.374C41.7177 263.432 43.4515 267.548 46.9781 269.182C48.3382 269.812 49.8543 270.011 51.2825 270.467C52.7107 270.923 54.1497 271.736 54.7527 273.109C55.9417 275.816 53.3245 278.945 54.1121 281.794C54.8092 284.315 57.171 285.386 58.412 287.689C58.9541 288.696 59.0338 289.833 58.8815 290.967C58.6225 292.886 58.2695 294.287 57.2364 296.384C56.3825 298.117 53.9786 301.393 53.9786 301.393C53.9786 301.393 37.8945 310.687 37.7466 310.762Z" fill="#1A56CC"/>
<path d="M47.0812 305.897C47.0758 305.897 47.0696 305.896 47.0696 305.896C46.8303 305.874 46.6601 305.668 46.6807 305.436C48.2245 288.697 41.2554 269.78 35.7791 264.11C35.6169 263.943 35.6214 263.675 35.7898 263.512C35.9583 263.35 36.2253 263.355 36.3884 263.523C41.974 269.306 49.0892 288.539 47.5238 305.514C47.5032 305.74 47.307 305.908 47.0812 305.897Z" fill="white"/>
<path d="M45.4191 285.258C45.3779 285.256 45.3357 285.248 45.2954 285.233C39.9902 283.295 33.2881 282.662 33.2218 282.657C32.9889 282.635 32.8177 282.429 32.8392 282.196C32.8607 281.964 33.0471 281.788 33.2998 281.813C33.3679 281.821 40.1766 282.462 45.5866 284.439C45.8061 284.518 45.919 284.761 45.8384 284.981C45.7721 285.159 45.5992 285.268 45.4191 285.258Z" fill="white"/>
<path d="M41.7671 320.562L149.004 382.464C152.484 384.474 156.585 384.516 160.192 382.674L376.088 258.018C379.489 256.054 382.247 251.662 382.248 248.208C382.249 244.754 379.492 240.362 376.091 238.399L269.251 176.715C265.864 174.759 260.321 174.759 256.933 176.715L41.7671 300.943C38.3659 302.907 35.6089 307.298 35.6089 310.753C35.6089 314.207 38.3659 318.599 41.7671 320.562Z" fill="#37474F"/>
<path d="M149.004 382.464L41.7671 320.562C38.3659 318.598 35.6089 314.207 35.6089 310.753C35.6089 307.298 38.3659 302.906 41.7671 300.943L154.84 235.66V384.001C152.832 384.018 150.832 383.519 149.004 382.464Z" fill="#263238"/>
<path d="M151.555 371.434C154.541 373.158 159.429 373.158 162.415 371.434L376.117 248.055C380.711 245.403 380.711 241.062 376.117 238.409L269.26 176.715C265.873 174.759 260.33 174.759 256.942 176.715L41.777 300.943C38.3901 302.899 38.3901 306.099 41.777 308.055L151.555 371.434Z" fill="#455A64"/>
<path d="M161.933 359.011C165.165 360.878 170.406 360.878 173.638 359.011L357.521 252.845C360.753 250.979 360.753 247.954 357.521 246.087L256.999 188.057C253.78 186.199 248.513 186.199 245.294 188.057L61.4102 294.224C58.1917 296.082 58.1917 299.123 61.4102 300.982L161.933 359.011Z" fill="#37474F"/>
<path d="M251.503 186.683C253.504 186.733 255.48 187.181 256.999 188.058L357.521 246.088C360.753 247.955 360.753 250.98 357.521 252.846L337.596 264.35L251.503 209.374V186.683Z" fill="#263238"/>
<path d="M245.225 192.451C248.443 190.593 253.711 190.593 256.929 192.451L357.452 250.481C358.091 250.85 358.595 251.266 358.98 251.707C358.603 252.117 358.119 252.501 357.521 252.845L173.638 359.011C170.406 360.878 165.165 360.878 161.933 359.011L61.4102 300.982C60.7794 300.617 60.2758 300.207 59.8923 299.769C60.2669 299.356 60.7399 298.965 61.3412 298.618L245.225 192.451Z" fill="#FAFAFA"/>
<path d="M320.777 218.946L302.962 208.66C301.899 208.046 301.845 207.082 302.843 206.507C303.84 205.93 305.51 205.962 306.573 206.575L324.388 216.862C325.451 217.475 325.504 218.439 324.507 219.015C323.51 219.59 321.841 219.559 320.777 218.946Z" fill="#263238"/>
<path d="M290.185 201.31C289.188 200.733 289.188 199.801 290.185 199.225C291.182 198.649 292.799 198.649 293.796 199.225C294.793 199.801 294.793 200.733 293.796 201.31C292.799 201.885 291.182 201.885 290.185 201.31Z" fill="#263238"/>
<path d="M282.963 197.134C281.966 196.559 281.966 195.625 282.963 195.049C283.96 194.474 285.577 194.474 286.574 195.049C287.571 195.625 287.571 196.558 286.574 197.134C285.577 197.71 283.96 197.71 282.963 197.134Z" fill="#263238"/>
<path d="M340.739 230.492C339.742 229.917 339.742 228.984 340.739 228.407C341.736 227.831 343.353 227.831 344.35 228.407C345.347 228.984 345.347 229.916 344.35 230.492C343.353 231.068 341.736 231.068 340.739 230.492Z" fill="#263238"/>
<path d="M333.517 226.317C332.52 225.741 332.52 224.808 333.517 224.232C334.514 223.656 336.131 223.656 337.128 224.232C338.125 224.808 338.125 225.741 337.128 226.317C336.131 226.893 334.514 226.893 333.517 226.317Z" fill="#263238"/>
<path d="M157.442 329.359V329.748C157.442 330.37 157.878 331.126 158.416 331.437L179.335 343.514C179.873 343.825 180.747 343.825 181.284 343.514L215.923 323.515C216.461 323.204 216.898 322.448 216.898 321.826V321.438C216.898 320.816 216.461 320.06 215.923 319.749L195.005 307.671C194.466 307.361 193.593 307.361 193.055 307.671L158.416 327.67C157.878 327.981 157.442 328.737 157.442 329.359Z" fill="#1A56CC"/>
<path d="M157.442 329.359V329.748C157.442 330.37 157.878 331.126 158.416 331.437L179.335 343.514C179.873 343.825 180.747 343.825 181.284 343.514L215.923 323.515C216.461 323.204 216.898 322.448 216.898 321.826V321.438C216.898 320.816 216.461 320.06 215.923 319.749L195.005 307.671C194.466 307.361 193.593 307.361 193.055 307.671L158.416 327.67C157.878 327.981 157.442 328.737 157.442 329.359Z" fill="#1A56CC"/>
<path opacity="0.3" d="M215.924 319.749L195.006 307.671C194.467 307.361 193.593 307.361 193.055 307.671L180.309 315.03V343.747H180.308C180.661 343.747 181.015 343.669 181.284 343.514L215.923 323.515C216.461 323.204 216.898 322.448 216.898 321.826V321.438C216.898 320.816 216.462 320.06 215.924 319.749Z" fill="white"/>
<path opacity="0.15" d="M215.924 319.749L195.006 307.671C194.467 307.361 193.593 307.361 193.055 307.671L180.309 315.03V343.747H180.308C180.661 343.747 181.015 343.669 181.284 343.514L215.923 323.515C216.461 323.204 216.898 322.448 216.898 321.826V321.438C216.898 320.816 216.462 320.06 215.924 319.749Z" fill="black"/>
<path opacity="0.3" d="M180.31 315.03L158.417 327.67C157.879 327.981 157.443 328.737 157.443 329.359V329.748C157.443 330.37 157.879 331.126 158.417 331.437L179.335 343.514C179.604 343.669 179.957 343.747 180.31 343.747H180.311V315.03H180.31Z" fill="white"/>
<path opacity="0.2" d="M180.31 315.03L158.417 327.67C157.879 327.981 157.443 328.737 157.443 329.359V329.748C157.443 330.37 157.879 331.126 158.417 331.437L179.335 343.514C179.604 343.669 179.957 343.747 180.31 343.747H180.311V315.03H180.31Z" fill="black"/>
<path d="M175.985 338.939L158.416 328.795C157.878 328.485 157.878 327.98 158.416 327.669L193.055 307.67C193.593 307.36 194.467 307.36 195.005 307.67L215.923 319.748C216.461 320.059 216.461 320.563 215.923 320.874L210.177 324.192L208.165 325.353L181.284 340.873C180.746 341.184 179.872 341.184 179.334 340.873L177.629 339.889L175.985 338.939Z" fill="#1A56CC"/>
<path opacity="0.3" d="M175.985 338.939L158.416 328.795C157.878 328.485 157.878 327.98 158.416 327.669L193.055 307.67C193.593 307.36 194.467 307.36 195.005 307.67L215.923 319.748C216.461 320.059 216.461 320.563 215.923 320.874L210.177 324.192L208.165 325.353L181.284 340.873C180.746 341.184 179.872 341.184 179.334 340.873L177.629 339.889L175.985 338.939Z" fill="white"/>
<path opacity="0.15" d="M191.934 322.089L215.924 319.748L192.145 321.095L195.006 307.672C194.713 307.504 194.325 307.435 193.943 307.449L189.457 325.593L158.02 328.186C157.998 328.406 158.126 328.63 158.416 328.797L183.804 327.323L180.309 341.107L184.778 327.267L189.113 327.015C189.659 326.984 190.157 326.763 190.544 326.417H190.547L190.548 326.414C190.909 326.089 191.173 325.656 191.28 325.156L191.934 322.089Z" fill="black"/>
<path opacity="0.3" d="M165.522 327.567L189.458 325.593L190.314 322.163L190.787 320.254L193.947 307.448C193.624 307.46 193.304 307.529 193.056 307.672L175.736 317.672L158.417 327.671C158.168 327.814 158.04 327.999 158.021 328.186L162.821 327.79L165.522 327.567Z" fill="white"/>
<path d="M190.069 304.808C192.257 303.545 195.804 303.545 197.992 304.808C200.179 306.071 200.179 308.118 197.992 309.382C195.805 310.645 192.257 310.645 190.069 309.382C187.882 308.118 187.882 306.07 190.069 304.808Z" fill="#F28F8F"/>
<path d="M191.264 307.847C191.194 307.841 191.139 307.823 191.099 307.79C191.061 307.758 191.045 307.72 191.054 307.68L191.382 306.24C191.391 306.205 191.403 306.162 191.419 306.113C191.434 306.064 191.474 306.021 191.539 305.982L192.341 305.519C192.389 305.492 192.448 305.478 192.518 305.478C192.589 305.478 192.647 305.492 192.696 305.519L196.937 307.969C196.985 307.996 197.009 308.03 197.01 308.071C197.009 308.111 196.986 308.145 196.937 308.173L196.077 308.669C196.029 308.698 195.97 308.711 195.9 308.711C195.829 308.711 195.77 308.697 195.722 308.669L192.853 307.013L192.663 307.805C192.654 307.846 192.621 307.877 192.568 307.901C192.513 307.926 192.45 307.936 192.38 307.93L191.264 307.847Z" fill="#FAFAFA"/>
<path d="M230.302 314.096L206.766 300.507C206.231 300.198 206.231 299.696 206.766 299.387L292.173 250.075C292.709 249.766 293.577 249.766 294.113 250.075L317.652 263.665C318.188 263.974 318.188 264.476 317.652 264.785L232.241 314.096C231.706 314.405 230.837 314.405 230.302 314.096Z" fill="#1A56CC"/>
<path d="M225.778 298.742C225.698 298.788 225.616 298.811 225.531 298.811C225.448 298.811 225.384 298.81 225.342 298.807L220.449 298.255L223.345 299.927C223.396 299.957 223.422 299.993 223.422 300.036C223.421 300.08 223.396 300.117 223.345 300.146L222.775 300.474C222.723 300.504 222.66 300.519 222.585 300.52C222.51 300.519 222.447 300.505 222.395 300.474L217.853 297.852C217.802 297.822 217.776 297.786 217.776 297.743C217.776 297.7 217.802 297.663 217.853 297.633L218.345 297.349C218.425 297.304 218.508 297.28 218.591 297.28C218.676 297.28 218.739 297.281 218.781 297.285L223.676 297.837L220.778 296.164C220.727 296.134 220.702 296.098 220.701 296.054C220.702 296.011 220.727 295.975 220.778 295.945L221.349 295.616C221.4 295.587 221.463 295.572 221.538 295.572C221.614 295.572 221.676 295.587 221.729 295.616L226.27 298.239C226.322 298.268 226.348 298.305 226.348 298.348C226.347 298.392 226.322 298.428 226.27 298.458L225.778 298.742Z" fill="#FAFAFA"/>
<path d="M225.482 296.802C225.22 296.65 225.013 296.485 224.86 296.305C224.708 296.124 224.62 295.942 224.6 295.756C224.58 295.571 224.625 295.388 224.741 295.209C224.856 295.029 225.044 294.863 225.306 294.711C225.569 294.559 225.855 294.45 226.164 294.382C226.474 294.315 226.784 294.284 227.097 294.29C227.408 294.298 227.714 294.341 228.012 294.418C228.313 294.497 228.583 294.606 228.821 294.744L229.139 294.926C229.191 294.955 229.216 294.992 229.217 295.036C229.216 295.079 229.191 295.116 229.139 295.145L226.79 296.501C226.898 296.563 227.015 296.606 227.142 296.627C227.269 296.65 227.398 296.654 227.53 296.644C227.66 296.632 227.789 296.607 227.916 296.567C228.043 296.526 228.157 296.476 228.261 296.417C228.411 296.33 228.518 296.251 228.58 296.179C228.643 296.107 228.683 296.04 228.696 295.978C228.71 295.926 228.727 295.886 228.746 295.86C228.765 295.832 228.803 295.803 228.859 295.77L229.422 295.445C229.474 295.416 229.537 295.4 229.614 295.399C229.692 295.398 229.754 295.413 229.801 295.445C229.862 295.486 229.911 295.556 229.945 295.654C229.98 295.753 229.979 295.87 229.942 296.006C229.904 296.141 229.821 296.287 229.692 296.442C229.563 296.597 229.368 296.752 229.105 296.903C228.843 297.055 228.559 297.166 228.255 297.235C227.95 297.305 227.638 297.336 227.32 297.325C227 297.314 226.685 297.266 226.374 297.177C226.059 297.089 225.763 296.965 225.482 296.802ZM226.15 295.198C226.015 295.277 225.917 295.356 225.862 295.434C225.805 295.512 225.776 295.589 225.774 295.663C225.771 295.737 225.792 295.807 225.834 295.872C225.875 295.937 225.927 295.993 225.987 296.038L227.576 295.121C227.497 295.086 227.406 295.054 227.303 295.024C227.2 294.995 227.087 294.978 226.965 294.975C226.842 294.972 226.714 294.987 226.578 295.02C226.443 295.052 226.301 295.111 226.15 295.198Z" fill="#FAFAFA"/>
<path d="M233.517 292.568L232.141 291.042C232.117 291.012 232.1 290.98 232.087 290.943C232.075 290.906 232.103 290.868 232.168 290.831L232.702 290.523C232.754 290.493 232.818 290.478 232.893 290.478C232.968 290.478 233.031 290.493 233.083 290.523C233.102 290.533 233.116 290.543 233.124 290.555L235.305 293.039C235.334 293.071 235.352 293.106 235.362 293.144C235.37 293.182 235.342 293.22 235.277 293.258L234.742 293.566C234.677 293.605 234.611 293.62 234.549 293.614C234.486 293.607 234.424 293.596 234.362 293.583L231.804 292.893L232.999 294.37C233.023 294.405 233.04 294.441 233.052 294.478C233.064 294.513 233.036 294.551 232.971 294.589L232.437 294.898C232.37 294.935 232.305 294.952 232.24 294.947C232.174 294.941 232.113 294.931 232.057 294.914L227.752 293.656C227.735 293.651 227.716 293.642 227.698 293.633C227.646 293.603 227.62 293.566 227.621 293.522C227.62 293.479 227.645 293.443 227.697 293.413L228.232 293.104C228.297 293.066 228.362 293.05 228.425 293.057C228.489 293.065 228.546 293.073 228.598 293.088L231.241 293.883L229.906 292.333C229.877 292.307 229.863 292.272 229.86 292.229C229.857 292.188 229.88 292.152 229.932 292.122L230.467 291.814C230.519 291.784 230.582 291.77 230.655 291.771C230.727 291.772 230.785 291.781 230.834 291.798L233.517 292.568Z" fill="#FAFAFA"/>
<path d="M236.695 290.327C236.435 290.176 236.227 290.01 236.075 289.83C235.922 289.65 235.834 289.467 235.815 289.282C235.794 289.097 235.84 288.914 235.955 288.734C236.069 288.554 236.258 288.388 236.521 288.236C236.783 288.085 237.069 287.975 237.378 287.907C237.688 287.84 237.998 287.809 238.311 287.816C238.622 287.823 238.928 287.866 239.228 287.943C239.528 288.022 239.797 288.13 240.036 288.268L240.353 288.451C240.405 288.481 240.43 288.516 240.431 288.56C240.43 288.603 240.405 288.64 240.353 288.67L238.005 290.025C238.112 290.088 238.23 290.13 238.357 290.152C238.483 290.173 238.612 290.178 238.744 290.168C238.875 290.157 239.004 290.131 239.131 290.091C239.257 290.049 239.373 289.999 239.475 289.94C239.625 289.853 239.732 289.774 239.795 289.703C239.857 289.631 239.897 289.564 239.91 289.501C239.925 289.449 239.941 289.41 239.961 289.384C239.98 289.356 240.017 289.326 240.073 289.294L240.636 288.969C240.687 288.939 240.752 288.924 240.829 288.922C240.906 288.921 240.969 288.938 241.016 288.969C241.076 289.01 241.124 289.08 241.159 289.179C241.194 289.276 241.193 289.394 241.156 289.53C241.118 289.664 241.035 289.81 240.907 289.966C240.777 290.121 240.582 290.275 240.32 290.427C240.057 290.578 239.774 290.689 239.47 290.759C239.164 290.83 238.852 290.859 238.534 290.849C238.214 290.838 237.9 290.79 237.588 290.701C237.274 290.614 236.98 290.489 236.695 290.327ZM237.365 288.724C237.229 288.802 237.132 288.881 237.077 288.96C237.021 289.038 236.99 289.114 236.988 289.189C236.986 289.264 237.006 289.333 237.049 289.397C237.09 289.463 237.142 289.518 237.202 289.565L238.79 288.647C238.712 288.612 238.62 288.58 238.517 288.55C238.413 288.521 238.301 288.504 238.18 288.501C238.057 288.499 237.928 288.514 237.792 288.546C237.658 288.577 237.515 288.636 237.365 288.724Z" fill="#FAFAFA"/>
<path d="M240.353 286.511C240.33 286.368 240.362 286.229 240.448 286.095C240.535 285.96 240.664 285.844 240.838 285.743C241.133 285.573 241.429 285.465 241.727 285.421C242.025 285.376 242.317 285.374 242.602 285.415C242.57 285.325 242.56 285.234 242.574 285.139C242.588 285.043 242.621 284.952 242.669 284.864C242.718 284.776 242.784 284.694 242.865 284.616C242.948 284.539 243.04 284.471 243.144 284.412C243.411 284.258 243.678 284.155 243.946 284.104C244.214 284.052 244.476 284.038 244.737 284.061C244.998 284.083 245.25 284.14 245.493 284.229C245.736 284.319 245.969 284.426 246.189 284.553L248.08 285.645C248.132 285.675 248.158 285.711 248.158 285.755C248.157 285.798 248.132 285.835 248.08 285.864L247.545 286.173C247.493 286.203 247.429 286.218 247.356 286.218C247.281 286.218 247.218 286.203 247.165 286.173L245.31 285.102C244.991 284.917 244.707 284.825 244.458 284.821C244.21 284.819 243.975 284.881 243.756 285.008C243.568 285.116 243.469 285.244 243.458 285.392C243.446 285.539 243.587 285.704 243.882 285.885L245.774 286.977C245.826 287.008 245.852 287.043 245.852 287.087C245.851 287.13 245.826 287.167 245.774 287.197L245.239 287.506C245.188 287.535 245.124 287.55 245.05 287.551C244.974 287.55 244.912 287.535 244.86 287.505L243.004 286.434C242.685 286.25 242.401 286.156 242.153 286.153C241.904 286.15 241.67 286.213 241.45 286.34C241.258 286.451 241.158 286.584 241.151 286.735C241.144 286.888 241.296 287.055 241.612 287.237L243.468 288.309C243.519 288.338 243.545 288.375 243.545 288.419C243.545 288.462 243.519 288.499 243.468 288.528L242.933 288.836C242.881 288.866 242.818 288.881 242.743 288.881C242.668 288.881 242.605 288.867 242.553 288.836L239.278 286.946C239.226 286.916 239.2 286.88 239.2 286.836C239.2 286.793 239.225 286.756 239.277 286.726L239.811 286.417C239.864 286.388 239.926 286.372 240.002 286.372C240.077 286.372 240.14 286.388 240.192 286.417L240.353 286.511Z" fill="#FAFAFA"/>
<path d="M246.449 283.624C246.37 283.557 246.308 283.471 246.263 283.367C246.218 283.263 246.208 283.146 246.235 283.018C246.261 282.889 246.332 282.754 246.448 282.614C246.566 282.473 246.744 282.333 246.984 282.195C247.223 282.057 247.47 281.951 247.724 281.877C247.981 281.803 248.239 281.761 248.498 281.751C248.758 281.741 249.018 281.768 249.28 281.832C249.539 281.896 249.789 281.997 250.027 282.134L252.096 283.328C252.147 283.358 252.173 283.394 252.173 283.438C252.172 283.481 252.147 283.518 252.096 283.547L251.561 283.856C251.509 283.886 251.445 283.901 251.371 283.901C251.296 283.901 251.233 283.886 251.181 283.855L250.949 283.722C250.987 283.857 250.961 284.006 250.872 284.169C250.781 284.331 250.595 284.495 250.309 284.66C250.107 284.777 249.899 284.865 249.687 284.926C249.473 284.987 249.263 285.019 249.058 285.026C248.852 285.031 248.653 285.012 248.46 284.968C248.267 284.924 248.092 284.857 247.932 284.765C247.609 284.578 247.471 284.366 247.517 284.127C247.565 283.889 247.748 283.64 248.066 283.381L249.015 282.606C248.823 282.494 248.623 282.452 248.418 282.479C248.212 282.506 248.015 282.573 247.827 282.683C247.71 282.75 247.635 282.813 247.602 282.87C247.569 282.926 247.551 282.989 247.545 283.056C247.542 283.103 247.527 283.14 247.507 283.167C247.486 283.196 247.454 283.222 247.413 283.247L246.758 283.624C246.712 283.651 246.658 283.666 246.597 283.669C246.535 283.672 246.487 283.657 246.449 283.624ZM249.606 284.092C249.765 284 249.885 283.905 249.964 283.808C250.044 283.711 250.089 283.616 250.097 283.524C250.108 283.433 250.085 283.347 250.035 283.269C249.982 283.19 249.908 283.123 249.809 283.065L249.739 283.024L248.952 283.674C248.791 283.804 248.702 283.913 248.68 283.997C248.66 284.082 248.703 284.157 248.811 284.218C248.909 284.275 249.032 284.287 249.18 284.257C249.328 284.225 249.47 284.17 249.606 284.092Z" fill="#FAFAFA"/>
<path d="M248.988 279.578C249.04 279.548 249.102 279.533 249.178 279.533C249.252 279.533 249.316 279.548 249.368 279.578L249.915 279.894C249.967 279.924 249.992 279.961 249.993 280.004C249.993 280.048 249.968 280.084 249.916 280.114L249.311 280.463C249.259 280.493 249.196 280.508 249.12 280.508C249.045 280.508 248.982 280.493 248.93 280.463L248.383 280.146C248.331 280.116 248.305 280.081 248.305 280.037C248.305 279.994 248.331 279.957 248.383 279.927L248.988 279.578ZM253.944 282.261C253.996 282.291 254.021 282.327 254.022 282.371C254.02 282.414 253.996 282.451 253.944 282.48L253.409 282.788C253.357 282.818 253.294 282.833 253.22 282.834C253.145 282.833 253.081 282.819 253.03 282.788L249.754 280.898C249.702 280.868 249.677 280.832 249.677 280.788C249.676 280.745 249.701 280.708 249.753 280.678L250.288 280.369C250.34 280.34 250.403 280.324 250.479 280.324C250.553 280.324 250.617 280.34 250.669 280.37L253.944 282.261Z" fill="#FAFAFA"/>
<path d="M255.829 281.173C255.881 281.202 255.907 281.239 255.907 281.283C255.906 281.326 255.881 281.363 255.829 281.392L255.295 281.701C255.242 281.73 255.179 281.745 255.105 281.745C255.029 281.745 254.966 281.731 254.915 281.701L250.302 279.038C250.251 279.008 250.225 278.971 250.225 278.927C250.225 278.884 250.251 278.848 250.302 278.818L250.837 278.51C250.889 278.48 250.952 278.465 251.027 278.465C251.102 278.465 251.165 278.48 251.217 278.51L255.829 281.173Z" fill="#FAFAFA"/>
<path d="M227.937 302.529L297.621 262.298C298.478 261.803 299.733 261.725 300.423 262.124C301.114 262.523 300.979 263.247 300.122 263.742L230.431 303.979C229.573 304.473 228.321 304.55 227.632 304.15C226.943 303.749 227.08 303.024 227.937 302.529Z" fill="#FAFAFA"/>
<path d="M232.829 305.354L302.513 265.123C303.37 264.628 304.625 264.55 305.316 264.949C306.006 265.348 305.871 266.073 305.015 266.567L235.323 306.804C234.465 307.298 233.213 307.376 232.524 306.975C231.836 306.575 231.972 305.849 232.829 305.354Z" fill="#FAFAFA"/>
<path d="M129.363 331.467L92.9672 310.454L256.005 216.323L293.144 236.908L129.363 331.467Z" fill="#E0E0E0"/>
<path d="M119.518 200.461L274.577 110.937L280.782 114.52C282.386 115.446 283.699 117.719 283.699 119.572V233.956C283.699 235.808 282.386 238.082 280.782 239.008L131.557 325.164C129.953 326.09 127.327 326.09 125.723 325.164L122.436 323.266C120.832 322.34 119.519 320.066 119.519 318.214L119.518 200.461Z" fill="#1A56CC"/>
<path opacity="0.2" d="M119.518 200.461L274.577 110.937L280.782 114.52C282.386 115.446 283.699 117.719 283.699 119.572V233.956C283.699 235.808 282.386 238.082 280.782 239.008L131.557 325.164C129.953 326.09 127.327 326.09 125.723 325.164L122.436 323.266C120.832 322.34 119.519 320.066 119.519 318.214L119.518 200.461Z" fill="black"/>
<path d="M273.723 100.882L274.357 100.537L271.948 99.1371V99.1389C271.741 99.0179 271.527 98.914 271.308 98.8333L203.066 73.5464C201.259 72.8771 198.914 73.6235 197.825 75.2121L121.489 186.691C120.401 188.28 119.518 191.129 119.518 193.055C119.518 196.241 119.518 200.459 119.518 200.459L121.885 201.833L274.578 110.936V103.532C274.578 102.631 274.249 101.695 273.723 100.882Z" fill="#1A56CC"/>
<path opacity="0.1" d="M200.986 75.7523C200.684 75.9844 200.416 76.2756 200.196 76.5892L123.853 188.064C123.295 188.889 122.783 190.052 122.435 191.249L120.063 189.878C120.238 189.296 120.447 188.726 120.68 188.192C120.691 188.169 120.691 188.157 120.703 188.146C120.808 187.914 120.913 187.692 121.028 187.471C121.051 187.436 121.063 187.401 121.086 187.366C121.214 187.122 121.353 186.889 121.493 186.691L197.824 75.2165C197.941 75.0418 198.068 74.9029 198.208 74.7515C198.336 74.6234 198.475 74.4961 198.615 74.3796L200.986 75.7523Z" fill="black"/>
<path opacity="0.35" d="M274.33 100.526C274.12 100.398 273.9 100.294 273.679 100.212L205.427 74.9155C203.985 74.3806 202.195 74.7524 200.986 75.7523L198.615 74.3806C199.835 73.3923 201.614 73.0088 203.067 73.5437L271.307 98.8288C271.528 98.9103 271.737 99.0152 271.947 99.1424L274.33 100.526Z" fill="white"/>
<path d="M121.081 187.362C121.213 187.121 121.348 186.895 121.488 186.691C121.349 186.895 121.213 187.121 121.081 187.362Z" fill="#1A56CC"/>
<path d="M198.209 74.7523C198.337 74.6215 198.474 74.4979 198.617 74.3805C198.474 74.497 198.335 74.6179 198.209 74.7523Z" fill="#1A56CC"/>
<path d="M120.059 189.88C120.233 189.296 120.444 188.722 120.679 188.189C120.443 188.722 120.233 189.295 120.059 189.88Z" fill="#1A56CC"/>
<path d="M120.698 188.141C120.802 187.907 120.913 187.687 121.025 187.474C120.913 187.687 120.803 187.907 120.698 188.141Z" fill="#1A56CC"/>
<path opacity="0.2" d="M197.825 75.2121C197.938 75.0472 198.072 74.8985 198.209 74.7524C198.069 74.8949 197.938 75.0472 197.825 75.2121Z" fill="black"/>
<path d="M200.191 76.5856L123.854 188.065C122.766 189.655 121.884 192.504 121.884 194.429C121.884 197.615 121.884 201.833 121.884 201.833L276.945 112.304L276.943 104.906C276.943 102.98 275.479 100.876 273.672 100.207L205.43 74.9199C203.626 74.2506 201.279 74.997 200.191 76.5856Z" fill="#1A56CC"/>
<path opacity="0.05" d="M276.944 104.906C276.944 104.021 276.625 103.104 276.115 102.3L122.434 191.249C122.434 191.249 122.426 191.262 122.419 191.273C122.09 192.377 121.884 193.508 121.884 194.429C121.884 197.616 121.884 201.833 121.884 201.833L276.945 112.304L276.944 104.906Z" fill="black"/>
<path d="M270.321 73.4846C270.321 72.6881 270.044 72.1263 269.594 71.8611C269.138 71.5923 265.317 69.3917 264.861 69.1291C264.406 68.8666 263.777 68.9042 263.082 69.3057L135.896 142.733C134.507 143.536 133.38 145.487 133.38 147.092L133.38 299.409C133.38 300.211 133.662 300.775 134.117 301.038C134.572 301.302 138.385 303.502 138.841 303.765C139.296 304.027 139.926 303.99 140.62 303.588L267.806 230.16C269.196 229.357 270.322 227.406 270.322 225.801L270.321 73.4846Z" fill="#1A56CC"/>
<path opacity="0.95" d="M270.321 73.4846C270.321 72.6881 270.044 72.1263 269.594 71.8611C269.138 71.5923 265.317 69.3917 264.861 69.1291C264.406 68.8666 263.777 68.9042 263.082 69.3057L135.896 142.733C134.507 143.536 133.38 145.487 133.38 147.092L133.38 299.409C133.38 300.211 133.662 300.775 134.117 301.038C134.572 301.302 138.385 303.502 138.841 303.765C139.296 304.027 139.926 303.99 140.62 303.588L267.806 230.16C269.196 229.357 270.322 227.406 270.322 225.801L270.321 73.4846Z" fill="white"/>
<path d="M140.619 303.589L267.804 230.161C269.195 229.358 270.321 227.407 270.321 225.802L270.32 73.4846C270.32 71.8798 269.193 71.2285 267.804 72.0313L140.618 145.458C139.228 146.261 138.101 148.213 138.101 149.818L138.102 302.135C138.102 303.741 139.229 304.392 140.619 303.589Z" fill="#1A56CC"/>
<path opacity="0.8" d="M140.619 303.589L267.804 230.161C269.195 229.358 270.321 227.407 270.321 225.802L270.32 73.4846C270.32 71.8798 269.193 71.2285 267.804 72.0313L140.618 145.458C139.228 146.261 138.101 148.213 138.101 149.818L138.102 302.135C138.102 303.741 139.229 304.392 140.619 303.589Z" fill="white"/>
<path d="M138.098 302.135C138.098 302.844 138.319 303.367 138.691 303.67C137.842 303.193 134.541 301.275 134.122 301.043C133.657 300.776 133.379 300.217 133.379 299.416V147.089C133.379 146.287 133.657 145.404 134.122 144.613L138.842 147.333C138.377 148.123 138.099 149.018 138.099 149.821V302.135H138.098Z" fill="#1A56CC"/>
<path opacity="0.7" d="M138.098 302.135C138.098 302.844 138.319 303.367 138.691 303.67C137.842 303.193 134.541 301.275 134.122 301.043C133.657 300.776 133.379 300.217 133.379 299.416V147.089C133.379 146.287 133.657 145.404 134.122 144.613L138.842 147.333C138.377 148.123 138.099 149.018 138.099 149.821V302.135H138.098Z" fill="white"/>
<path opacity="0.05" d="M138.098 302.135C138.098 302.844 138.319 303.367 138.691 303.67C137.842 303.193 134.541 301.275 134.122 301.043C133.657 300.776 133.379 300.217 133.379 299.416V147.089C133.379 146.287 133.657 145.404 134.122 144.613L138.842 147.333C138.377 148.123 138.099 149.018 138.099 149.821V302.135H138.098Z" fill="black"/>
<path d="M184.516 187.017C183.956 201.186 184.909 231.551 184.909 231.551C184.909 231.551 199.929 236.091 210.141 234.398C220.352 232.705 242.189 217.238 242.189 217.238L238.549 184.375L184.516 187.017Z" fill="#37474F"/>
<path d="M219.387 231.035L221.827 207.89C231.4 202.182 234.515 194.281 234.515 194.281C225.803 205.688 216.714 203.842 216.714 203.842V232.26C217.584 231.885 218.478 231.475 219.387 231.035Z" fill="#263238"/>
<path d="M244.547 144.323C246.98 131.991 248.083 115.602 237.353 112.594C234.558 111.811 227.443 112.355 227.443 112.355L215.875 112.929C209.434 113.751 200.398 115.031 198.031 115.614C191.817 117.142 189.972 127.293 187.186 149.788C185.442 163.873 183.958 174.869 183.958 188.577C195.323 198.767 230.844 194.754 238.927 188.127C239.262 172.589 240.108 166.825 244.547 144.323Z" fill="#455A64"/>
<path d="M213.914 108.728C213.803 110.98 216.395 114.781 220.36 117.449C224.326 120.118 227.744 121.198 228.178 122.312C226.296 122.665 224.595 123.598 223.195 126.829C221.857 129.915 221.869 130.014 217.292 126.829C212.714 123.643 208.619 116.335 208.629 113.9C208.639 111.466 212.227 106.756 213.989 107.155L213.914 108.728Z" fill="#37474F"/>
<path d="M228.178 122.312C229.519 120.848 230.789 117.165 230.952 115.574C231.115 113.983 231.538 109.8 231.538 109.8C231.538 109.8 232.628 110.082 233.122 110.829C233.617 111.576 236.052 116.611 235.973 119.422C235.894 122.234 235.235 126.036 234.285 127.64C233.335 129.243 232.698 126.414 232.078 125.318C231.27 123.894 230.164 122.351 228.178 122.312Z" fill="#37474F"/>
<path d="M226.366 125.538C226.366 125.538 226.587 135.694 225.653 141.093C225.653 141.093 228.709 141.653 231.694 140.931C231.694 140.931 230.145 142.839 224.467 141.962C224.465 141.962 226.211 131.362 226.366 125.538Z" fill="#37474F"/>
<path d="M250.408 78.6455C250.276 69.7455 242.955 62.6375 234.055 62.7693C225.729 62.892 218.974 69.3092 218.245 77.4224L210.927 72.2158C210.927 72.2158 208.257 71.7991 206.214 73.9513C204.21 76.0623 205.442 82.5565 208.07 88.8966C208.07 88.8966 210.713 100.472 211.733 102.365C212.753 104.259 214.808 104.77 214.808 104.77L214.555 97.7267L243.831 95.6247L240.934 93.5639C246.6 90.9977 250.506 85.2615 250.408 78.6455Z" fill="#263238"/>
<path d="M214.13 89.3455C213.204 89.9171 212.36 87.9593 210.676 86.9549C209.246 86.101 206.03 84.6038 203.908 88.1556C201.623 91.9815 205.77 97.2715 208.674 98.361C212.974 99.9756 214.514 96.6039 214.514 96.6039L213.626 114.526C219.481 125.192 236.86 124.504 230.951 115.573L231.661 108.662C231.661 108.662 236.291 109.295 238.54 108.913C242.282 108.278 244.597 105.284 245.675 101.208C247.406 94.6614 248.022 89.3876 246.282 76.5873C244.375 62.5586 228.027 62.6536 219.282 68.3396C210.536 74.0274 214.13 89.3455 214.13 89.3455Z" fill="#FFA8A7"/>
<path d="M249.852 63.4905C248.664 62.8427 247.228 62.7925 245.896 63.0362C246.196 61.0184 244.828 59.0401 243.032 58.2247C240.856 57.2364 238.891 57.5859 236.975 59.0338C237.371 57.6092 236.075 56.1577 234.63 55.8423C233.185 55.5269 231.697 56.0233 230.317 56.5519C228.261 57.3377 226.237 58.2113 224.15 58.9093C220.471 60.1386 216.555 60.8401 213.227 62.8337C212.442 63.3041 211.684 63.857 211.148 64.5998C210.399 65.6382 210.149 66.9715 210.207 68.251C210.227 68.6775 210.297 69.0941 210.384 69.5063C210.137 69.2375 209.85 69 209.512 68.8244C207.94 68.0108 206.037 68.6721 205.26 70.301L210.803 73.1718C210.665 74.2882 210.527 75.4046 210.414 76.5237C210.116 79.4796 209.542 82.9239 210.21 85.8636C210.285 86.1961 210.34 86.5831 210.571 86.8501C210.571 86.8501 212.004 87.8895 213.454 89.6546C213.883 90.177 214.401 91.0201 215.096 91.2253C215.787 91.4296 216.767 91.0416 217.011 90.3517C217.158 89.9377 217.117 89.4835 217.074 89.0462C216.895 87.2247 216.715 85.404 216.536 83.5824C216.489 83.0959 216.443 82.5879 216.625 82.1345C216.869 81.5243 217.462 81.1426 217.961 80.7161C219.234 79.6284 220.038 78.0102 220.136 76.3392C220.168 75.8141 220.133 75.2765 220.283 74.772C220.398 74.3868 220.702 73.7856 221.142 73.7847C221.997 73.7811 226.637 74.7918 227.803 74.9513C233.875 75.7836 240.398 75.9449 245.754 72.9657C247.84 71.8054 251.355 69.3996 251.72 66.82C251.909 65.4778 251.04 64.1383 249.852 63.4905Z" fill="#263238"/>
<path d="M231.662 108.662C231.662 108.662 223.266 107.1 220.317 105.587C218.343 104.575 216.702 102.794 216.212 101.645C216.212 101.645 216.797 104.121 218.58 106.332C220.761 109.036 231.433 110.89 231.433 110.89L231.662 108.662Z" fill="#F28F8F"/>
<path d="M231.303 87.8383C231.317 88.7406 230.623 89.4807 229.755 89.4905C228.887 89.5013 228.172 88.7782 228.159 87.876C228.146 86.9737 228.838 86.2345 229.707 86.2237C230.575 86.2139 231.29 86.9369 231.303 87.8383Z" fill="#263238"/>
<path d="M228.245 81.9758L224.558 83.7678C224.083 82.7106 224.524 81.4526 225.542 80.958C226.56 80.4625 227.77 80.9186 228.245 81.9758Z" fill="#263238"/>
<path d="M228.288 97.6603L234.951 100.049C234.324 101.957 232.323 102.971 230.483 102.311C228.642 101.652 227.66 99.5697 228.288 97.6603Z" fill="#B16668"/>
<path d="M232.496 102.397C232.232 100.51 230.499 99.1835 228.605 99.4308C228.458 99.4505 228.319 99.4944 228.178 99.5311C228.41 100.777 229.245 101.869 230.483 102.312C231.157 102.553 231.853 102.566 232.496 102.397Z" fill="#F28F8F"/>
<path d="M245.723 83.1935L242.163 81.3352C242.646 80.3586 243.834 79.9831 244.817 80.4956C245.8 81.0091 246.206 82.2169 245.723 83.1935Z" fill="#263238"/>
<path d="M243.912 87.5722C243.925 88.4745 243.232 89.2137 242.364 89.2245C241.495 89.2352 240.78 88.5121 240.768 87.6099C240.754 86.7076 241.448 85.9684 242.315 85.9576C243.183 85.9469 243.898 86.67 243.912 87.5722Z" fill="#263238"/>
<path d="M235.891 86.5947L236.204 96.7652L242.202 95.3701L235.891 86.5947Z" fill="#F28F8F"/>
<path d="M279.765 235.48C279.719 235.561 279.673 235.631 279.603 235.712L214.987 215.223C209.912 212.969 203.971 214.804 201.024 219.521L131.946 322.191L129.391 323.667L129.368 323.678C128.594 324.108 127.9 324.167 127.391 323.899L198.434 218.069C201.382 213.352 207.335 211.516 212.409 213.759L279.765 235.48Z" fill="#1A56CC"/>
<path opacity="0.4" d="M194.661 229.599L194.824 229.459L131.943 322.195L129.386 323.672L129.363 323.684C128.596 324.114 127.898 324.16 127.386 323.905L192.174 228.111L194.661 229.599Z" fill="white"/>
<path opacity="0.4" d="M279.771 235.483C279.724 235.565 279.677 235.635 279.608 235.715L214.983 215.219C209.914 212.964 203.974 214.801 201.02 219.521L198.463 218.033C201.416 213.336 207.345 211.522 212.414 213.754L279.771 235.483Z" fill="white"/>
<path d="M283.646 118.84H283.634C283.494 118.003 283.053 117.771 282.484 118.165C282.262 118.317 282.007 118.572 281.74 118.933L281.415 119.387L217.65 216.329L208.129 229.593C207.059 231.104 204.711 231.976 202.886 231.558L194.667 229.605L131.925 206.507C131.472 206.402 131.042 206.39 130.647 206.46C130.484 206.495 130.321 206.542 130.17 206.611L132.534 205.244L192.687 227.289L200.607 230.116C202.421 230.546 204.769 229.674 205.851 228.151L215.371 214.899L279.45 117.503C279.659 117.213 279.915 117.003 280.171 116.84L274.626 113.643L276.951 112.307L280.788 114.515C282.181 115.33 283.355 117.155 283.646 118.84Z" fill="#1A56CC"/>
<path opacity="0.4" d="M217.645 216.323L208.124 229.587C207.054 231.099 204.706 231.971 202.88 231.552L194.661 229.599L194.824 229.459L195.22 228.831L200.602 230.11C202.415 230.54 204.764 229.668 205.845 228.145L215.273 215.032L217.645 216.323Z" fill="white"/>
<path opacity="0.1" d="M280.781 114.511L276.945 112.302L274.619 113.639L280.165 116.836C280.169 116.839 280.174 116.843 280.178 116.847L280.168 116.841C279.89 117.017 279.644 117.232 279.447 117.504L215.364 214.894L215.271 215.022V215.034L217.643 216.324L281.408 119.382L281.733 118.929C282 118.569 282.256 118.312 282.477 118.162C283.046 117.767 283.488 117.999 283.627 118.836H283.639C283.351 117.149 282.176 115.324 280.781 114.511Z" fill="black"/>
<path d="M133.198 208.362L119.518 200.461L119.519 318.213C119.519 320.066 120.832 322.34 122.436 323.266L125.723 325.164C127.328 326.09 129.953 326.09 131.557 325.164L133.198 324.216V208.362Z" fill="#1A56CC"/>
<path opacity="0.15" d="M133.198 208.362L119.518 200.461L119.519 318.213C119.519 320.066 120.832 322.34 122.436 323.266L125.723 325.164C127.328 326.09 129.953 326.09 131.557 325.164L133.198 324.216V208.362Z" fill="black"/>
<path d="M283.704 119.573V233.955C283.704 234.92 283.356 235.977 282.797 236.907C282.332 237.674 281.751 238.36 281.089 238.825L280.972 238.883C280.902 238.93 280.856 238.977 280.786 239.012L131.564 325.155L131.541 325.167C130.762 325.608 130.064 325.666 129.553 325.399C129.099 325.167 128.786 324.691 128.681 324.004C128.658 323.841 128.646 323.668 128.646 323.481V209.089C128.646 207.24 130.099 206.078 131.924 206.508L194.666 229.606L202.885 231.56C204.71 231.978 207.058 231.106 208.128 229.595L217.649 216.33L281.414 119.388L281.739 118.935C282.82 117.433 283.704 117.713 283.704 119.573Z" fill="#1A56CC"/>
<path d="M280.784 239.012C280.851 238.978 280.908 238.933 280.976 238.888L281.088 238.821C281.75 238.36 282.334 237.676 282.795 236.912C283.346 235.996 283.689 234.95 283.7 234.008L217.654 216.33L261.882 249.925L280.784 239.012Z" fill="#1A56CC"/>
<path opacity="0.2" d="M280.784 239.012C280.851 238.978 280.908 238.933 280.976 238.888L281.088 238.821C281.75 238.36 282.334 237.676 282.795 236.912C283.346 235.996 283.689 234.95 283.7 234.008L217.654 216.33L261.882 249.925L280.784 239.012Z" fill="black"/>
<path d="M128.643 323.475C128.643 324.441 128.992 325.103 129.553 325.395C130.069 325.665 130.766 325.608 131.54 325.17L131.562 325.159L182.938 295.499L194.671 229.601L128.646 321.575L128.643 323.475Z" fill="#1A56CC"/>
<path opacity="0.15" d="M200.997 219.508L129.548 325.392C128.99 325.102 128.641 324.439 128.641 323.474L128.646 321.573L198.44 218.067C198.44 218.055 198.451 218.043 198.463 218.032L200.997 219.508Z" fill="black"/>
<path d="M282.794 236.912C282.334 237.676 281.75 238.36 281.087 238.821L280.975 238.888L131.561 325.159L131.539 325.169C130.764 325.607 130.068 325.663 129.552 325.394L201.008 219.491C203.969 214.762 209.953 212.926 215.057 215.18L282.794 236.912Z" fill="#1A56CC"/>
<path opacity="0.15" d="M120.062 189.878L122.434 191.249C122.097 192.365 121.887 193.505 121.887 194.435C121.887 197.62 121.887 201.829 121.887 201.829L119.516 200.457C119.516 200.457 119.516 196.237 119.516 193.051C119.516 192.133 119.725 190.993 120.062 189.878Z" fill="black"/>
<path d="M132.534 205.244L130.169 206.611L127.774 205.228L121.88 201.833L124.17 200.473L132.534 205.244Z" fill="#1A56CC"/>
<path opacity="0.1" d="M132.638 205.289L124.17 200.474L121.88 201.834L127.774 205.228L130.169 206.611L130.194 206.597C130.337 206.534 130.489 206.488 130.642 206.456C131.037 206.386 131.467 206.397 131.921 206.502L136.688 208.261L191.457 228.424L192.314 227.153L132.638 205.289Z" fill="black"/>
<path d="M198.03 115.614C190.429 116.16 185.216 117.97 180.316 129.741C177.149 137.35 164.733 164.696 163.531 169.215C162.119 174.525 158.945 214.869 158.945 214.869L166.2 217.591C166.2 217.591 163.714 226.273 161.615 231.234C159.196 236.953 171.011 235.755 174.806 230.554C178.612 225.339 181.187 218.397 179.114 215.957C176.373 212.73 173.355 210.629 173.355 210.629L181.298 174.635L197.953 139.228C197.953 139.228 206.309 121.825 198.03 115.614Z" fill="#FFA8A7"/>
<path d="M173.355 210.629C169.472 208.438 165.994 208.528 165.994 208.528C165.994 208.528 169.809 207.305 173.7 208.527L173.355 210.629Z" fill="#F28F8F"/>
<path d="M199.756 115.264C195.487 115.228 187.521 115.037 182.362 124.357C177.203 133.676 169.906 151.385 169.906 151.385C169.906 151.385 172.94 158.846 189.173 160.405L201.61 133.944C201.61 133.944 204.638 121.801 199.756 115.264Z" fill="#37474F"/>
<path d="M254.839 121.375C261.251 126.43 271.668 134.383 276.731 137.566C280.557 132.935 287.597 123.568 289.306 121.516C291.479 118.908 298.338 114.648 298.338 114.648L300.928 125.038C300.928 125.038 287.923 149.027 283.21 153.468C278.245 158.147 274.652 156.207 264.948 151.759C255.781 147.557 245.828 142.347 245.828 142.347C247.801 124.91 246.464 115.466 238.133 112.525C243.734 113.221 249.457 117.133 254.839 121.375Z" fill="#FFA8A7"/>
<path d="M271.589 134.057C268.236 134.978 261.308 144.837 262.573 151.075L244.919 142.348C247.056 130.312 247.516 115.442 237.353 112.593C236.601 112.378 235.534 112.271 234.378 112.217C239.441 111.715 242.745 111.863 248.049 115.85C253.354 119.837 271.589 134.057 271.589 134.057Z" fill="#37474F"/>
<path d="M276.731 137.566C274.201 139.783 273.383 143.783 272.893 145.365C272.893 145.365 272.366 140.744 275.268 136.615L276.731 137.566Z" fill="#F28F8F"/>
<path d="M301.311 103.023L307.36 99.3521C307.36 99.3521 308.057 132.006 308.079 133.068C308.101 134.129 309.349 135.165 309.349 135.165L303.298 138.832C303.298 138.832 302.05 137.796 302.027 136.736C302.006 135.675 301.311 103.023 301.311 103.023Z" fill="#37474F"/>
<path d="M307.651 112.961C307.651 112.961 309.389 113.375 310.054 116.071C310.719 118.767 311.053 123.917 309.504 125.614C307.956 127.311 305.841 128.051 304.435 127.441C301.806 126.299 302.606 120.966 304.713 119.736C308.079 117.77 307.676 115.605 307.676 115.605L307.651 112.961Z" fill="#FFA8A7"/>
<path d="M293.862 103.122L296.514 106.355L296.991 129.383L294.297 133.885L303.298 138.831C302.511 138.15 302.104 137.45 302.027 136.735L301.4 107.261L293.862 103.122Z" fill="#455A64"/>
<path d="M294.297 133.886L294.327 135.3L303.328 140.246L303.299 138.832L294.297 133.886Z" fill="#1A56CC"/>
<path d="M303.328 140.246L309.379 136.58L309.349 135.166L303.299 138.832L303.328 140.246Z" fill="#1A56CC"/>
<path opacity="0.1" d="M303.328 140.246L309.379 136.58L309.349 135.166L303.299 138.832L303.328 140.246Z" fill="black"/>
<path d="M295.623 87.1414C294.445 86.8502 293.083 87.3457 291.819 88.6978L291.773 88.7471C289.276 91.4198 288.118 96.424 289.184 99.9229L289.204 99.9874C289.757 101.8 290.799 102.85 292.021 103.073L297.253 104.333L300.459 88.3089L295.623 87.1414Z" fill="#1A56CC"/>
<path opacity="0.7" d="M295.623 87.1414C294.445 86.8502 293.083 87.3457 291.819 88.6978L291.773 88.7471C289.276 91.4198 288.118 96.424 289.184 99.9229L289.204 99.9874C289.757 101.8 290.799 102.85 292.021 103.073L297.253 104.333L300.459 88.3089L295.623 87.1414Z" fill="white"/>
<path opacity="0.05" d="M292.021 103.072L297.253 104.332L298.316 99.0205L288.795 96.8146C288.774 97.9095 288.895 98.9721 289.184 99.9219L289.204 99.9864C289.757 101.799 290.799 102.85 292.021 103.072Z" fill="black"/>
<path d="M306.229 87.5903L306.228 87.5938C304.905 87.2901 303.398 87.7784 301.966 89.1135C301.816 89.2505 301.666 89.4002 301.516 89.5597C301.34 89.7487 301.172 89.9423 301.008 90.1492C300.735 90.4879 300.479 90.8463 300.239 91.2289C299.797 91.9215 299.409 92.6768 299.078 93.4752C298.193 95.6184 297.724 98.0511 297.776 100.322C297.803 101.468 297.963 102.57 298.27 103.578C298.923 105.715 300.119 107.013 301.536 107.388L296.555 106.239L296.558 106.228C294.791 105.739 293.261 104.37 292.619 102.266C292.326 101.304 292.167 100.253 292.131 99.163C292.053 96.8495 292.523 94.3568 293.429 92.1661C293.76 91.3687 294.147 90.6098 294.59 89.9199C294.83 89.5373 295.085 89.1762 295.358 88.8402C295.522 88.6323 295.693 88.4361 295.866 88.2506C296.013 88.092 296.167 87.9442 296.323 87.8053C297.755 86.5428 299.522 86.1208 301.146 86.4228L301.148 86.4192L301.286 86.4496C301.344 86.464 301.404 86.4765 301.464 86.4935L306.229 87.5903Z" fill="#1A56CC"/>
<path opacity="0.1" d="M296.555 106.239L296.558 106.228C294.791 105.739 293.261 104.37 292.619 102.266C292.326 101.305 292.167 100.253 292.131 99.1631L297.777 100.322C297.804 101.468 297.964 102.57 298.271 103.577C298.924 105.715 300.12 107.012 301.537 107.387L296.555 106.239Z" fill="black"/>
<path d="M309.609 91.435C310.947 95.8245 309.494 102.098 306.363 105.45C304.79 107.137 303.088 107.764 301.617 107.408C301.59 107.403 301.563 107.396 301.535 107.388C300.118 107.013 298.922 105.715 298.269 103.578C296.932 99.1881 298.384 92.9143 301.515 89.5597C303.077 87.8877 304.765 87.2569 306.227 87.5929C307.694 87.928 308.939 89.2362 309.609 91.435Z" fill="#1A56CC"/>
<path opacity="0.2" d="M309.609 91.435C310.947 95.8245 309.494 102.098 306.363 105.45C304.79 107.137 303.088 107.764 301.617 107.408C301.59 107.403 301.563 107.396 301.535 107.388C300.118 107.013 298.922 105.715 298.269 103.578C296.932 99.1881 298.384 92.9143 301.515 89.5597C303.077 87.8877 304.765 87.2569 306.227 87.5929C307.694 87.928 308.939 89.2362 309.609 91.435Z" fill="black"/>
<path d="M330.361 83.8683C330.361 83.8683 324.505 89.5471 321.707 101.623C321.158 103.995 320.823 106.2 320.64 108.207C319.889 116.419 321.67 121.375 321.67 121.375C318.056 116.939 313.885 112.476 308.368 109.767C304.954 108.091 301.747 106.964 301.747 106.964L301.749 106.957C300.412 106.645 299.312 105.414 298.711 103.441C298.315 102.142 298.173 100.672 298.257 99.1612C298.304 98.2061 298.443 97.2348 298.664 96.2824C299.233 93.8255 300.343 91.4941 301.854 89.8742C303.263 88.3671 304.791 87.7462 306.128 88.0526L306.13 88.0472C306.13 88.0472 309.506 88.4451 313.31 88.4415C319.455 88.4352 325.164 86.2624 330.361 83.8683Z" fill="#1A56CC"/>
<path opacity="0.7" d="M330.361 83.8683C330.361 83.8683 324.505 89.5471 321.707 101.623C321.158 103.995 320.823 106.2 320.64 108.207C319.889 116.419 321.67 121.375 321.67 121.375C318.056 116.939 313.885 112.476 308.368 109.767C304.954 108.091 301.747 106.964 301.747 106.964L301.749 106.957C300.412 106.645 299.312 105.414 298.711 103.441C298.315 102.142 298.173 100.672 298.257 99.1612C298.304 98.2061 298.443 97.2348 298.664 96.2824C299.233 93.8255 300.343 91.4941 301.854 89.8742C303.263 88.3671 304.791 87.7462 306.128 88.0526L306.13 88.0472C306.13 88.0472 309.506 88.4451 313.31 88.4415C319.455 88.4352 325.164 86.2624 330.361 83.8683Z" fill="white"/>
<path opacity="0.05" d="M320.64 108.207C319.889 116.419 321.67 121.375 321.67 121.375C318.056 116.939 313.885 112.476 308.368 109.767C304.954 108.091 301.747 106.964 301.747 106.964L301.749 106.957C300.412 106.645 299.312 105.414 298.711 103.441C298.315 102.142 298.173 100.672 298.257 99.1613C304.319 100.193 314.311 102.455 320.64 108.207Z" fill="black"/>
<path d="M346.458 89.7864C347.853 94.3632 347.972 99.8019 347.036 105.143L347.037 105.146C345.836 111.987 342.913 118.659 338.727 123.139C331.275 131.116 322.655 129.117 319.472 118.677C318.744 116.287 318.364 113.666 318.298 110.945C318.141 104.244 319.897 96.9499 323.092 91.1062C323.541 90.2819 324.019 89.4898 324.525 88.73C324.735 88.4137 324.951 88.1019 325.171 87.7982L325.174 87.7973C325.486 87.3645 325.806 86.9452 326.138 86.5411C326.483 86.1209 326.835 85.7132 327.199 85.3252C334.652 77.3481 343.275 79.3426 346.458 89.7864Z" fill="#1A56CC"/>
<path opacity="0.1" d="M347.037 105.146C345.836 111.987 342.913 118.659 338.727 123.139C331.275 131.116 322.655 129.117 319.472 118.677C318.744 116.287 318.364 113.666 318.298 110.945L318.3 110.945C319.324 112.108 322.11 113.366 322.683 111.715C322.753 114.148 323.095 116.472 323.735 118.57C324.649 121.57 326.057 123.788 327.804 124.987C329.295 126.008 330.988 126.243 332.831 125.677C334.624 125.134 336.505 123.838 338.278 121.945C341.837 118.134 344.442 112.443 345.711 106.508C345.711 106.508 346.42 106.813 347.037 105.146Z" fill="black"/>
<path d="M345.516 90.7102C346.922 95.321 346.89 101.02 345.713 106.508C344.444 112.443 341.839 118.135 338.279 121.946C336.507 123.839 334.625 125.135 332.833 125.678C330.99 126.244 329.297 126.009 327.806 124.988C326.059 123.789 324.652 121.572 323.736 118.57C323.097 116.473 322.754 114.149 322.685 111.716C322.657 110.798 322.668 109.863 322.719 108.92C322.805 107.28 323.003 105.604 323.313 103.949C323.376 103.607 323.443 103.269 323.513 102.932C323.629 102.37 323.757 101.807 323.9 101.253C324.38 99.3494 325.002 97.4884 325.745 95.726C325.752 95.7081 325.764 95.6857 325.771 95.6651C326.269 94.4913 326.818 93.365 327.415 92.297C327.846 91.5282 328.303 90.7926 328.784 90.0919C328.984 89.7972 329.19 89.5104 329.401 89.2291C329.655 88.8931 329.914 88.5652 330.18 88.2444C330.438 87.9353 330.704 87.6369 330.972 87.3466C332.747 85.4426 334.632 84.155 336.423 83.6067C340.391 82.3944 343.792 85.0546 345.516 90.7102Z" fill="#1A56CC"/>
<path opacity="0.3" d="M345.516 90.7102C346.922 95.321 346.89 101.02 345.713 106.508C344.444 112.443 341.839 118.135 338.279 121.946C336.507 123.839 334.625 125.135 332.833 125.678C330.99 126.244 329.297 126.009 327.806 124.988C326.059 123.789 324.652 121.572 323.736 118.57C323.097 116.473 322.754 114.149 322.685 111.716C322.657 110.798 322.668 109.863 322.719 108.92C322.805 107.28 323.003 105.604 323.313 103.949C323.376 103.607 323.443 103.269 323.513 102.932C323.629 102.37 323.757 101.807 323.9 101.253C324.38 99.3494 325.002 97.4884 325.745 95.726C325.752 95.7081 325.764 95.6857 325.771 95.6651C326.269 94.4913 326.818 93.365 327.415 92.297C327.846 91.5282 328.303 90.7926 328.784 90.0919C328.984 89.7972 329.19 89.5104 329.401 89.2291C329.655 88.8931 329.914 88.5652 330.18 88.2444C330.438 87.9353 330.704 87.6369 330.972 87.3466C332.747 85.4426 334.632 84.155 336.423 83.6067C340.391 82.3944 343.792 85.0546 345.516 90.7102Z" fill="black"/>
<path d="M332.382 97.5198L329.906 109.997C328.108 109.884 325.08 109.747 322.682 109.857C322.688 109.546 322.701 109.236 322.719 108.921C322.805 107.281 323.004 105.605 323.313 103.949C323.376 103.608 323.443 103.269 323.513 102.932C323.629 102.371 323.757 101.808 323.9 101.253C324.38 99.3503 325.002 97.4893 325.745 95.7269C325.752 95.7089 325.764 95.6865 325.771 95.6659C325.882 95.4079 325.993 95.1507 326.108 94.8981C328.935 96.4544 332.382 97.5198 332.382 97.5198Z" fill="#1A56CC"/>
<g opacity="0.4">
<path d="M332.382 97.5198L329.906 109.997C328.108 109.884 325.08 109.747 322.682 109.857C322.688 109.546 322.701 109.236 322.719 108.921C322.805 107.281 323.004 105.605 323.313 103.949C323.376 103.608 323.443 103.269 323.513 102.932C323.629 102.371 323.757 101.808 323.9 101.253C324.38 99.3503 325.002 97.4893 325.745 95.7269C325.752 95.7089 325.764 95.6865 325.771 95.6659C325.882 95.4079 325.993 95.1507 326.108 94.8981C328.935 96.4544 332.382 97.5198 332.382 97.5198Z" fill="white"/>
</g>
<path d="M330.379 109.824C329.08 110.22 327.985 109.407 327.449 107.65L327.433 107.596C326.591 104.835 327.51 100.871 329.481 98.7607L329.519 98.7195C330.044 98.1568 330.612 97.7716 331.16 97.604C332.458 97.208 333.553 98.0206 334.089 99.7786L334.105 99.8324C334.947 102.594 334.029 106.558 332.058 108.668L332.019 108.709C331.493 109.271 330.926 109.656 330.379 109.824Z" fill="#1A56CC"/>
<g opacity="0.7">
<path d="M330.379 109.824C329.08 110.22 327.985 109.407 327.449 107.65L327.433 107.596C326.591 104.835 327.51 100.871 329.481 98.7607L329.519 98.7195C330.044 98.1568 330.612 97.7716 331.16 97.604C332.458 97.208 333.553 98.0206 334.089 99.7786L334.105 99.8324C334.947 102.594 334.029 106.558 332.058 108.668L332.019 108.709C331.493 109.271 330.926 109.656 330.379 109.824Z" fill="white"/>
</g>
<path d="M327.363 77.7227C326.649 77.9404 325.895 77.5381 325.677 76.8249L321.868 64.332C321.651 63.6178 322.052 62.8634 322.766 62.6457C323.48 62.428 324.235 62.8303 324.452 63.5435L328.261 76.0364C328.48 76.7505 328.078 77.505 327.363 77.7227Z" fill="#E0E0E0"/>
<path d="M316.925 84.2348C316.478 84.371 315.973 84.2715 315.608 83.9301L306.064 75.0149C305.518 74.5051 305.489 73.6512 305.998 73.1056C306.505 72.5617 307.361 72.5312 307.908 73.0402L317.452 81.9554C317.998 82.4652 318.026 83.3191 317.517 83.8647C317.35 84.0439 317.145 84.1676 316.925 84.2348Z" fill="#E0E0E0"/>
<path d="M323.453 148.046C323.234 148.113 322.995 148.125 322.756 148.069C322.029 147.901 321.576 147.175 321.745 146.448L324.692 133.725C324.86 132.998 325.585 132.544 326.312 132.714C327.04 132.882 327.492 133.608 327.324 134.335L324.376 147.058C324.263 147.546 323.9 147.91 323.453 148.046Z" fill="#E0E0E0"/>
<path d="M347.157 142.649C346.443 142.866 345.689 142.464 345.471 141.75L341.662 129.257C341.444 128.544 341.846 127.788 342.56 127.571C343.274 127.353 344.028 127.755 344.246 128.469L348.055 140.962C348.273 141.676 347.871 142.432 347.157 142.649Z" fill="#E0E0E0"/>
<path d="M361.213 125.599C360.766 125.735 360.262 125.635 359.896 125.294L350.351 116.38C349.806 115.871 349.777 115.016 350.286 114.47C350.793 113.926 351.65 113.895 352.195 114.405L361.741 123.319C362.287 123.828 362.315 124.683 361.806 125.229C361.638 125.409 361.433 125.531 361.213 125.599Z" fill="#E0E0E0"/>
<path d="M370.174 108.774C369.955 108.841 369.716 108.852 369.476 108.798L356.754 105.849C356.026 105.681 355.574 104.955 355.742 104.228C355.911 103.501 356.637 103.049 357.363 103.217L370.086 106.164C370.813 106.333 371.266 107.059 371.097 107.785C370.984 108.274 370.621 108.637 370.174 108.774Z" fill="#E0E0E0"/>
<path d="M369.526 89.7191L357.033 93.528C356.319 93.7458 355.564 93.3435 355.346 92.6302C355.129 91.917 355.53 91.1617 356.244 90.944L368.737 87.1351C369.451 86.9173 370.206 87.3196 370.423 88.0329C370.641 88.747 370.24 89.5014 369.526 89.7191Z" fill="#E0E0E0"/>
<path d="M350.522 83.0879C350.075 83.224 349.571 83.1246 349.205 82.7832C348.66 82.2743 348.631 81.4195 349.14 80.8738L358.054 71.3296C358.559 70.7849 359.417 70.7553 359.963 71.2642C360.508 71.7732 360.538 72.6279 360.028 73.1736L351.114 82.7178C350.947 82.8979 350.742 83.0207 350.522 83.0879Z" fill="#E0E0E0"/>
<path d="M339.66 77.3033C339.441 77.3705 339.201 77.3821 338.963 77.3275C338.235 77.159 337.783 76.4333 337.951 75.7066L340.9 62.9834C341.069 62.2559 341.795 61.8034 342.521 61.9718C343.249 62.1403 343.701 62.866 343.533 63.5927L340.584 76.3159C340.47 76.8033 340.106 77.1671 339.66 77.3033Z" fill="#E0E0E0"/>
<path d="M289.306 121.517C291.883 118.25 291.981 116.204 293.989 114.603C295.997 113.001 298.019 112.898 301.008 113.755C303.261 114.402 305.904 114.079 306.817 114.916C307.075 115.089 306.671 116.538 305.613 117.057C304.34 117.682 302.283 117.529 300.767 117.537C297.312 117.556 300.145 120.944 296.82 124.381C295.407 126.846 289.306 121.517 289.306 121.517Z" fill="#FFA8A7"/>
<path d="M368.435 173.363L400.132 153.063L414.095 157.545L368.435 173.363Z" fill="#1A56CC"/>
<path d="M368.435 173.362L395.831 150.515L389.743 143.485L368.435 173.362Z" fill="#1A56CC"/>
<path d="M395.831 150.515V155.817L368.435 173.362L395.831 150.515Z" fill="#1A56CC"/>
<path opacity="0.25" d="M395.831 150.515V155.817L368.435 173.362L395.831 150.515Z" fill="black"/>
<path d="M402.332 147.448C402.081 147.448 401.831 147.343 401.654 147.138C401.331 146.763 401.371 146.197 401.746 145.873C402.298 145.396 402.84 144.904 403.371 144.397C403.729 144.055 404.295 144.068 404.638 144.426C404.979 144.784 404.966 145.351 404.609 145.693C404.057 146.22 403.494 146.733 402.919 147.23C402.748 147.376 402.54 147.448 402.332 147.448Z" fill="#E0E0E0"/>
<path d="M407.046 142.749C406.837 142.749 406.625 142.675 406.456 142.527C406.084 142.201 406.047 141.634 406.373 141.262C407.311 140.193 408.226 139.055 409.094 137.88C409.388 137.482 409.949 137.397 410.346 137.691C410.744 137.985 410.829 138.546 410.535 138.944C409.638 140.159 408.69 141.337 407.719 142.443C407.544 142.645 407.296 142.749 407.046 142.749ZM412.299 135.654C412.137 135.654 411.973 135.61 411.825 135.518C411.406 135.257 411.278 134.704 411.541 134.283C412.297 133.074 413.026 131.804 413.71 130.51C413.941 130.072 414.483 129.905 414.921 130.135C415.359 130.367 415.527 130.908 415.296 131.346C414.592 132.68 413.84 133.987 413.06 135.234C412.889 135.506 412.597 135.654 412.299 135.654ZM416.424 127.847C416.303 127.847 416.18 127.822 416.063 127.77C415.61 127.57 415.406 127.041 415.606 126.589C416.187 125.273 416.735 123.913 417.233 122.544C417.402 122.08 417.917 121.842 418.382 122.009C418.846 122.179 419.086 122.693 418.917 123.158C418.405 124.563 417.842 125.961 417.244 127.313C417.096 127.648 416.768 127.847 416.424 127.847ZM419.453 119.547C419.37 119.547 419.285 119.535 419.202 119.511C418.728 119.372 418.454 118.874 418.593 118.399C418.999 117.014 419.366 115.593 419.686 114.175C419.796 113.692 420.271 113.388 420.757 113.497C421.24 113.606 421.543 114.085 421.434 114.568C421.107 116.023 420.729 117.481 420.314 118.903C420.199 119.293 419.841 119.547 419.453 119.547ZM421.395 110.927C421.348 110.927 421.301 110.923 421.253 110.915C420.764 110.837 420.432 110.377 420.51 109.889C420.737 108.461 420.923 107.005 421.062 105.559C421.108 105.066 421.557 104.691 422.039 104.753C422.532 104.801 422.892 105.238 422.845 105.731C422.703 107.213 422.512 108.707 422.278 110.171C422.209 110.612 421.828 110.927 421.395 110.927ZM422.234 102.129C422.224 102.129 422.214 102.129 422.205 102.129C421.71 102.113 421.322 101.7 421.337 101.205C421.358 100.515 421.369 99.8242 421.369 99.1343C421.369 98.37 421.356 97.6066 421.33 96.8432C421.312 96.3486 421.699 95.9329 422.193 95.9168C422.705 95.8791 423.104 96.2859 423.12 96.7805C423.148 97.5645 423.161 98.3494 423.161 99.1343C423.161 99.843 423.15 100.552 423.129 101.261C423.113 101.745 422.715 102.129 422.234 102.129ZM421.92 93.2978C421.466 93.2978 421.078 92.9546 421.029 92.494C420.881 91.0443 420.679 89.5928 420.431 88.1789C420.346 87.6915 420.671 87.2265 421.159 87.1413C421.656 87.0562 422.11 87.3833 422.197 87.8698C422.451 89.3258 422.659 90.8203 422.813 92.3113C422.864 92.8041 422.506 93.244 422.013 93.2951C421.981 93.296 421.951 93.2978 421.92 93.2978ZM420.39 84.594C419.99 84.594 419.625 84.3234 419.521 83.9175C419.165 82.5072 418.752 81.1023 418.294 79.7431C418.135 79.2745 418.387 78.7655 418.857 78.6078C419.325 78.4466 419.833 78.7037 419.992 79.1705C420.465 80.5728 420.891 82.0225 421.26 83.4785C421.381 83.9579 421.089 84.4453 420.61 84.5671C420.537 84.586 420.462 84.594 420.39 84.594ZM417.561 76.2254C417.214 76.2254 416.885 76.0229 416.738 75.6842C416.162 74.35 415.527 73.0338 414.85 71.774C414.615 71.3386 414.779 70.7947 415.214 70.5609C415.649 70.327 416.194 70.4901 416.428 70.9255C417.129 72.231 417.788 73.5938 418.384 74.9746C418.58 75.4297 418.37 75.9566 417.916 76.1519C417.799 76.2021 417.68 76.2254 417.561 76.2254ZM413.375 68.4526C413.084 68.4526 412.798 68.311 412.626 68.0494C411.83 66.8425 410.973 65.6633 410.076 64.5442C409.766 64.158 409.829 63.5945 410.215 63.2853C410.603 62.9762 411.165 63.0389 411.474 63.4242C412.405 64.5863 413.296 65.8112 414.121 67.0647C414.394 67.4777 414.28 68.0332 413.866 68.3056C413.715 68.4042 413.543 68.4526 413.375 68.4526ZM407.861 61.557C407.624 61.557 407.389 61.4638 407.212 61.2792C406.231 60.2506 405.181 59.2291 404.091 58.2435C403.725 57.9111 403.696 57.3449 404.028 56.9775C404.359 56.611 404.927 56.5833 405.294 56.9139C406.417 57.9291 407.498 58.9819 408.51 60.0418C408.851 60.4002 408.838 60.9674 408.48 61.3088C408.305 61.4754 408.083 61.557 407.861 61.557ZM401.312 55.6245C401.118 55.6245 400.922 55.5618 400.758 55.4319C399.637 54.5484 398.456 53.6757 397.247 52.838C396.84 52.5557 396.739 51.9975 397.02 51.5907C397.301 51.184 397.859 51.0827 398.267 51.3641C399.507 52.2224 400.717 53.1175 401.868 54.0243C402.256 54.3307 402.323 54.8943 402.016 55.2823C401.84 55.5072 401.577 55.6245 401.312 55.6245ZM394.051 50.5872C393.891 50.5872 393.731 50.5451 393.584 50.4555C392.361 49.7083 391.085 48.9762 389.792 48.2773C389.357 48.0426 389.194 47.4987 389.429 47.0642C389.664 46.6296 390.21 46.4638 390.642 46.7013C391.964 47.4145 393.269 48.1626 394.519 48.926C394.941 49.1841 395.074 49.7351 394.816 50.158C394.647 50.4349 394.352 50.5872 394.051 50.5872ZM386.274 46.3859C386.145 46.3859 386.014 46.3581 385.889 46.2981C384.58 45.6754 383.235 45.0741 381.892 44.5132C381.435 44.3224 381.22 43.7973 381.411 43.3404C381.602 42.8825 382.129 42.6684 382.584 42.8592C383.953 43.4327 385.326 44.0446 386.66 44.6808C387.107 44.8931 387.297 45.4281 387.084 45.8743C386.929 46.1977 386.609 46.3859 386.274 46.3859ZM295.8 44.1593C295.433 44.1593 295.087 43.9308 294.957 43.5653C294.789 43.0985 295.033 42.5859 295.498 42.4202C296.9 41.9184 298.318 41.4364 299.71 40.9884C300.187 40.8387 300.687 41.0959 300.838 41.5672C300.99 42.0385 300.731 42.5438 300.259 42.6953C298.885 43.137 297.485 43.6119 296.101 44.1074C296.002 44.1432 295.9 44.1593 295.8 44.1593ZM378.123 42.9676C378.021 42.9676 377.917 42.9497 377.814 42.913C376.468 42.4193 375.072 41.9435 373.666 41.4973C373.195 41.3477 372.934 40.8441 373.084 40.3719C373.233 39.9015 373.738 39.6372 374.209 39.7895C375.639 40.2438 377.06 40.7285 378.431 41.2294C378.895 41.3996 379.134 41.9148 378.965 42.379C378.831 42.7427 378.487 42.9676 378.123 42.9676ZM304.215 41.4525C303.825 41.4525 303.467 41.1971 303.354 40.8038C303.218 40.328 303.492 39.8316 303.967 39.6955C305.376 39.2914 306.823 38.9016 308.265 38.5387C308.745 38.4187 309.233 38.709 309.353 39.1892C309.474 39.6695 309.183 40.156 308.702 40.277C307.278 40.6345 305.851 41.0188 304.463 41.4176C304.379 41.4409 304.297 41.4525 304.215 41.4525ZM369.697 40.294C369.619 40.294 369.54 40.2841 369.461 40.2626C368.08 39.8881 366.649 39.5315 365.206 39.2026C364.724 39.0933 364.422 38.6131 364.532 38.1301C364.641 37.649 365.114 37.3426 365.605 37.4563C367.071 37.7906 368.526 38.1525 369.93 38.5342C370.407 38.6642 370.689 39.1552 370.56 39.6336C370.452 40.0315 370.09 40.294 369.697 40.294ZM312.79 39.2967C312.377 39.2967 312.006 39.01 311.915 38.5898C311.811 38.1068 312.118 37.6302 312.602 37.5253C314.051 37.2117 315.518 36.9205 316.963 36.658C317.457 36.5693 317.916 36.8946 318.005 37.3802C318.092 37.8676 317.769 38.3335 317.282 38.4222C315.856 38.6803 314.409 38.9679 312.979 39.277C312.916 39.2905 312.853 39.2967 312.79 39.2967ZM361.077 38.3326C361.023 38.3326 360.968 38.3282 360.912 38.3174C359.502 38.0549 358.046 37.8139 356.585 37.5997C356.095 37.528 355.756 37.0729 355.828 36.5836C355.898 36.0935 356.351 35.7477 356.844 35.8265C358.327 36.0434 359.808 36.2889 361.239 36.555C361.726 36.6455 362.047 37.1132 361.957 37.5997C361.876 38.0316 361.5 38.3326 361.077 38.3326ZM321.48 37.7216C321.043 37.7216 320.66 37.4008 320.595 36.9555C320.523 36.4654 320.862 36.0111 321.352 35.9394C322.823 35.7244 324.307 35.5335 325.764 35.3705C326.252 35.3212 326.699 35.6697 326.754 36.1625C326.809 36.6544 326.454 37.0971 325.962 37.1517C324.526 37.3121 323.063 37.5003 321.612 37.7117C321.567 37.7189 321.523 37.7216 321.48 37.7216ZM352.329 37.0585C352.297 37.0585 352.265 37.0567 352.233 37.0531C350.805 36.9008 349.335 36.7727 347.862 36.6697C347.368 36.6347 346.996 36.2064 347.03 35.7136C347.065 35.2199 347.497 34.8633 347.986 34.8812C349.481 34.9852 350.974 35.1169 352.423 35.271C352.915 35.3239 353.27 35.7647 353.218 36.2575C353.17 36.7171 352.781 37.0585 352.329 37.0585ZM330.26 36.7458C329.795 36.7458 329.404 36.3883 329.368 35.917C329.33 35.4233 329.7 34.9941 330.194 34.9565C331.677 34.8445 333.17 34.7567 334.634 34.6976C335.132 34.6465 335.547 35.0613 335.566 35.5559C335.587 36.0505 335.203 36.4681 334.708 36.4878C333.264 36.546 331.791 36.6329 330.328 36.7431C330.306 36.7449 330.283 36.7458 330.26 36.7458ZM343.508 36.4492C343.499 36.4492 343.489 36.4492 343.48 36.4483C342.198 36.408 340.91 36.3883 339.648 36.3883L339.094 36.3892C339.092 36.3892 339.091 36.3892 339.089 36.3892C338.597 36.3892 338.196 35.9914 338.193 35.4977C338.191 35.0022 338.59 34.5999 339.085 34.5972L339.648 34.5963C340.929 34.5963 342.237 34.6169 343.536 34.6581C344.031 34.6734 344.419 35.0873 344.404 35.581C344.388 36.0658 343.99 36.4492 343.508 36.4492Z" fill="#E0E0E0"/>
<path d="M289.504 46.583C289.152 46.583 288.818 46.3743 288.675 46.0284C288.487 45.5705 288.705 45.0464 289.162 44.8582C289.86 44.5715 290.558 44.2893 291.254 44.0151C291.716 43.8368 292.235 44.0608 292.417 44.5195C292.598 44.9801 292.372 45.5007 291.912 45.6825C291.223 45.954 290.534 46.2318 289.845 46.5158C289.733 46.5615 289.618 46.583 289.504 46.583Z" fill="#E0E0E0"/>
<path d="M89.9978 128.271L131.2 108.075L101.485 136.331L89.9978 128.271Z" fill="#1A56CC"/>
<path d="M131.2 108.075L85.7696 123.021L74.2828 114.96L131.2 108.075Z" fill="#1A56CC"/>
<path d="M85.7695 123.021L87.5651 134.558L89.9978 128.271L131.2 108.075L85.7695 123.021Z" fill="#1A56CC"/>
<path opacity="0.25" d="M85.7695 123.021L87.5651 134.558L89.9978 128.271L131.2 108.075L85.7695 123.021Z" fill="black"/>
<path d="M87.5652 134.558L93.8264 130.957L89.9978 128.271L87.5652 134.558Z" fill="#1A56CC"/>
<path opacity="0.25" d="M89.9978 128.271L93.8264 130.957L92.8274 131.532L89.9978 128.271Z" fill="black"/>
<path d="M93.0935 249.204C92.9931 249.204 92.8901 249.187 92.7906 249.152C91.3373 248.629 89.9189 248.094 88.574 247.562C88.1135 247.38 87.8886 246.86 88.0714 246.399C88.2533 245.939 88.7747 245.715 89.2344 245.896C90.5614 246.422 91.9618 246.95 93.3972 247.465C93.8631 247.633 94.1051 248.146 93.9384 248.611C93.8058 248.977 93.4608 249.204 93.0935 249.204ZM84.7723 245.901C84.6523 245.901 84.5295 245.877 84.413 245.825C83.0179 245.211 81.6408 244.573 80.3192 243.925C79.8748 243.707 79.6911 243.171 79.9079 242.726C80.1257 242.283 80.6624 242.097 81.1068 242.315C82.4078 242.952 83.7625 243.581 85.1343 244.185C85.5877 244.384 85.7929 244.913 85.5939 245.365C85.4461 245.701 85.1164 245.901 84.7723 245.901ZM76.7379 241.955C76.5927 241.955 76.4449 241.92 76.3087 241.845C74.9763 241.115 73.6601 240.35 72.3995 239.573C71.9774 239.314 71.8475 238.762 72.1065 238.34C72.3654 237.919 72.9173 237.787 73.3394 238.047C74.5749 238.81 75.8634 239.558 77.1698 240.273C77.6034 240.511 77.7629 241.055 77.5246 241.489C77.3615 241.787 77.0542 241.955 76.7379 241.955ZM69.1255 237.252C68.949 237.252 68.7707 237.199 68.6139 237.091C67.3621 236.217 66.1391 235.307 64.9797 234.384C64.5917 234.075 64.5281 233.512 64.8363 233.126C65.1436 232.738 65.7072 232.673 66.0943 232.982C67.2251 233.881 68.4176 234.769 69.6389 235.62C70.0448 235.903 70.1433 236.462 69.8611 236.868C69.6873 237.118 69.4086 237.252 69.1255 237.252ZM62.1304 231.678C61.9145 231.678 61.6976 231.6 61.5256 231.443C60.4011 230.415 59.3125 229.344 58.2892 228.259C57.9497 227.898 57.9667 227.331 58.326 226.992C58.6853 226.651 59.2524 226.67 59.5929 227.028C60.5857 228.082 61.643 229.121 62.7352 230.12C63.0999 230.454 63.1259 231.021 62.7916 231.386C62.6151 231.58 62.3732 231.678 62.1304 231.678ZM56.0009 225.17C55.7383 225.17 55.4794 225.056 55.3029 224.836C54.3549 223.659 53.4446 222.429 52.5961 221.18C52.3183 220.771 52.4258 220.213 52.8353 219.936C53.2439 219.656 53.8012 219.765 54.0807 220.174C54.9006 221.384 55.7804 222.574 56.6979 223.712C57.0089 224.098 56.9479 224.662 56.5627 224.971C56.3969 225.106 56.198 225.17 56.0009 225.17ZM50.9833 217.768C50.6697 217.768 50.3668 217.604 50.2019 217.312C49.4654 216.006 48.7683 214.643 48.1322 213.261C47.9252 212.813 48.1214 212.28 48.5712 212.073C49.0192 211.865 49.5523 212.063 49.7593 212.512C50.3758 213.849 51.0487 215.168 51.7619 216.431C52.0047 216.862 51.8533 217.409 51.4214 217.652C51.2834 217.732 51.132 217.768 50.9833 217.768ZM47.2344 209.649C46.8706 209.649 46.5275 209.425 46.3939 209.064C45.8779 207.669 45.4021 206.217 44.9774 204.749C44.8403 204.274 45.1145 203.776 45.5902 203.639C46.066 203.505 46.5624 203.776 46.6995 204.252C47.1116 205.679 47.574 207.089 48.0739 208.444C48.246 208.908 48.0094 209.423 47.5444 209.594C47.4432 209.631 47.3383 209.649 47.2344 209.649ZM44.7408 201.055C44.3287 201.055 43.9577 200.769 43.8663 200.35C43.5518 198.906 43.2723 197.407 43.0339 195.894C42.9578 195.405 43.2911 194.946 43.7803 194.869C44.2695 194.795 44.7274 195.126 44.8053 195.616C45.0374 197.093 45.3107 198.557 45.618 199.967C45.7228 200.451 45.4164 200.928 44.9326 201.034C44.869 201.049 44.8035 201.055 44.7408 201.055ZM43.3422 192.21C42.8888 192.21 42.4999 191.868 42.4524 191.408C42.3001 189.962 42.1774 188.445 42.0869 186.902C42.0573 186.408 42.4345 185.984 42.9282 185.955C43.4201 185.942 43.8448 186.303 43.8753 186.796C43.9649 188.312 44.085 189.801 44.2337 191.221C44.2857 191.713 43.9282 192.153 43.4363 192.205C43.404 192.208 43.3726 192.21 43.3422 192.21ZM42.8763 183.267C42.8709 183.267 42.8655 183.267 42.8601 183.267C42.3646 183.258 41.9713 182.849 41.9803 182.355C42.0071 180.846 42.0976 179.317 42.2499 177.81C42.3001 177.318 42.7356 176.968 43.232 177.008C43.7248 177.059 44.0832 177.498 44.0339 177.99C43.886 179.448 43.7982 180.927 43.7731 182.386C43.7633 182.876 43.3637 183.267 42.8763 183.267ZM43.7705 174.361C43.7167 174.361 43.6629 174.356 43.6074 174.345C43.1209 174.256 42.7992 173.79 42.8879 173.302C43.1603 171.82 43.4963 170.326 43.8869 168.863C44.0151 168.384 44.5141 168.099 44.9836 168.228C45.4621 168.357 45.7461 168.847 45.618 169.325C45.239 170.743 44.9138 172.19 44.6503 173.627C44.5715 174.059 44.1952 174.361 43.7705 174.361ZM46.0795 165.711C45.9809 165.711 45.8796 165.695 45.7811 165.659C45.3143 165.494 45.0697 164.982 45.2354 164.516C45.7372 163.094 46.3043 161.672 46.9217 160.289C47.1233 159.837 47.6501 159.632 48.1044 159.836C48.556 160.037 48.7594 160.566 48.5578 161.018C47.9611 162.358 47.4118 163.736 46.9244 165.112C46.7945 165.482 46.4486 165.711 46.0795 165.711ZM49.7226 157.535C49.5783 157.535 49.4314 157.5 49.2952 157.426C48.8606 157.189 48.6994 156.646 48.9359 156.211C49.6599 154.882 50.4439 153.566 51.2673 152.303C51.537 151.888 52.0907 151.772 52.5074 152.041C52.9222 152.312 53.0396 152.867 52.769 153.281C51.9707 154.505 51.2117 155.779 50.5111 157.068C50.348 157.365 50.0398 157.535 49.7226 157.535ZM54.6103 150.034C54.4194 150.034 54.2259 149.973 54.0637 149.847C53.6713 149.544 53.5996 148.981 53.9024 148.591C54.828 147.394 55.8127 146.22 56.8288 145.104C57.1621 144.742 57.7283 144.712 58.0948 145.046C58.4604 145.38 58.4873 145.946 58.1531 146.312C57.1692 147.392 56.2159 148.528 55.3199 149.687C55.1425 149.915 54.8782 150.034 54.6103 150.034ZM60.6395 143.422C60.3993 143.422 60.161 143.326 59.9845 143.137C59.6467 142.776 59.6673 142.209 60.0293 141.871C61.1367 140.838 62.2988 139.84 63.4825 138.905C63.8722 138.597 64.4349 138.663 64.7404 139.052C65.0478 139.441 64.9824 140.004 64.5935 140.31C63.4484 141.215 62.3239 142.181 61.2514 143.181C61.0776 143.342 60.8581 143.422 60.6395 143.422ZM67.6614 137.874C67.372 137.874 67.0862 137.734 66.9141 137.474C66.64 137.062 66.752 136.506 67.1641 136.231C68.4194 135.396 69.7276 134.602 71.0528 133.869C71.4846 133.629 72.0312 133.784 72.2704 134.219C72.5106 134.652 72.3538 135.197 71.9201 135.437C70.637 136.146 69.371 136.916 68.156 137.724C68.0046 137.825 67.8316 137.874 67.6614 137.874ZM75.4898 133.539C75.1484 133.539 74.8222 133.343 74.6726 133.012C74.4683 132.561 74.669 132.03 75.1197 131.827C76.4906 131.207 77.9081 130.63 79.3318 130.116C79.7959 129.948 80.3111 130.188 80.4787 130.655C80.6471 131.121 80.4061 131.634 79.9402 131.802C78.5603 132.301 77.1868 132.859 75.8571 133.46C75.7388 133.514 75.6134 133.539 75.4898 133.539Z" fill="#E0E0E0"/>
<path d="M300.182 372.18C300.188 371.85 300.035 371.584 299.725 371.38C299.2 370.971 298.536 370.777 297.748 370.8C296.955 370.821 296.265 370.99 295.674 371.301L292.066 373.213C292.363 372.679 292.584 372.132 292.718 371.57C292.824 371.127 292.872 370.68 292.861 370.227C292.843 369.474 292.859 365.295 292.862 364.9C292.869 364.092 292.69 363.269 292.324 362.43C291.778 361.183 290.709 359.976 289.119 358.805C288.017 357.958 286.696 357.03 285.154 356.019C283.611 355.009 282.205 354.152 280.936 353.447C277.664 351.684 274.129 350.276 270.329 349.218C266.529 348.16 262.442 347.65 258.078 347.684C253.715 347.72 249.069 348.382 244.141 349.67C239.214 350.957 234.014 353.051 228.539 355.953C223.869 358.429 220.34 361 217.959 363.666C215.574 366.333 214.131 368.967 213.629 371.562C213.474 372.365 213.402 373.159 213.411 373.944C213.422 374.824 213.406 378.595 213.407 379.351C213.411 381.136 213.835 382.875 214.679 384.568C215.882 386.978 217.735 389.16 220.237 391.117C220.764 391.526 221.529 392.074 222.534 392.762C223.533 393.451 224.604 394.166 225.745 394.914C226.885 395.661 227.992 396.372 229.069 397.044C230.149 397.718 231.026 398.247 231.704 398.628C234.841 400.301 238.395 401.61 242.362 402.553C246.326 403.498 250.503 403.96 254.892 403.938C259.276 403.918 263.811 403.341 268.494 402.211C273.173 401.079 277.851 399.278 282.521 396.803C286.277 394.812 289.277 392.929 291.524 391.157C293.77 389.384 295.503 387.723 296.73 386.172C297.956 384.622 298.787 383.147 299.227 381.751C299.666 380.353 299.981 379.047 300.169 377.835C300.178 377.777 300.182 377.72 300.182 377.666C300.184 377.34 300.182 372.231 300.182 372.18ZM286.745 378.618C286.264 379.322 285.58 380.097 284.687 380.941C283.788 381.785 282.627 382.695 281.199 383.665C279.765 384.635 277.95 385.705 275.749 386.87C272.638 388.52 269.476 389.758 266.27 390.584C263.063 391.409 259.916 391.859 256.824 391.934C253.738 392.011 250.76 391.746 247.897 391.144C245.036 390.543 242.372 389.623 239.905 388.388C239.171 388.036 238.3 387.544 237.29 386.914C236.281 386.284 235.248 385.626 234.197 384.937C233.148 384.249 232.156 383.584 231.221 382.94C230.286 382.295 229.581 381.756 229.109 381.318C227.286 379.742 225.994 378.07 225.232 376.299C225.145 376.098 225.069 375.895 224.998 375.693C225.541 374.14 226.555 372.592 228.049 371.048C229.778 369.257 232.2 367.535 235.313 365.885C239.015 363.922 242.536 362.428 245.874 361.401C247.722 360.833 249.521 360.412 251.277 360.113L250.353 360.602C249.763 360.915 249.432 361.303 249.36 361.765C249.29 362.228 249.5 362.617 249.991 362.939L250.595 363.335C249.048 363.15 247.455 363.159 245.823 363.36C244.19 363.564 242.276 364.248 240.077 365.414C238.09 366.467 236.64 367.633 235.728 368.912C234.928 370.03 234.532 371.18 234.534 372.36C234.534 372.529 234.536 376.952 234.535 377.861C234.535 378.029 234.543 378.196 234.559 378.365C234.69 379.723 235.302 381.109 236.388 382.519C237.472 383.931 239.047 385.309 241.103 386.655C243.159 388.003 245.334 389.062 247.628 389.832C249.921 390.603 252.246 391.078 254.609 391.256C256.967 391.436 259.28 391.31 261.536 390.882C263.796 390.453 265.918 389.712 267.904 388.66C269.568 387.779 270.854 386.965 271.757 386.221C272.66 385.477 273.308 384.789 273.7 384.157C274.092 383.525 274.307 382.935 274.343 382.386C274.382 381.838 274.387 381.303 274.371 380.782C275.884 380.881 277.704 380.752 279.829 380.394C281.949 380.036 284.355 379.146 287.038 377.725C287.181 377.649 287.31 377.566 287.449 377.488C287.238 377.854 287.008 378.229 286.745 378.618ZM254.768 373.332C256.989 373.611 259.2 374.467 261.388 375.901C262.187 376.424 262.849 376.935 263.385 377.438C263.075 377.658 262.733 377.876 262.335 378.087C260.454 379.083 258.405 379.456 256.179 379.204C253.951 378.955 251.742 378.112 249.552 376.677C248.731 376.14 248.049 375.608 247.507 375.082C247.789 374.88 248.097 374.682 248.455 374.492C250.44 373.442 252.546 373.054 254.768 373.332ZM279.744 368.027C278.792 368.441 277.727 368.684 276.533 368.735C275.121 368.796 273.875 368.474 272.802 367.771L260.673 359.828C261.895 359.97 263.107 360.165 264.306 360.451C267.201 361.14 270.038 362.205 272.82 363.643C274.144 364.32 275.464 365.089 276.782 365.953C277.847 366.651 278.822 367.341 279.744 368.027Z" fill="#1A56CC"/>
<path opacity="0.2" d="M300.182 372.18C300.188 371.85 300.035 371.584 299.725 371.38C299.2 370.971 298.536 370.777 297.748 370.8C296.955 370.821 296.265 370.99 295.674 371.301L292.066 373.213C292.363 372.679 292.584 372.132 292.718 371.57C292.824 371.127 292.872 370.68 292.861 370.227C292.843 369.474 292.859 365.295 292.862 364.9C292.869 364.092 292.69 363.269 292.324 362.43C291.778 361.183 290.709 359.976 289.119 358.805C288.017 357.958 286.696 357.03 285.154 356.019C283.611 355.009 282.205 354.152 280.936 353.447C277.664 351.684 274.129 350.276 270.329 349.218C266.529 348.16 262.442 347.65 258.078 347.684C253.715 347.72 249.069 348.382 244.141 349.67C239.214 350.957 234.014 353.051 228.539 355.953C223.869 358.429 220.34 361 217.959 363.666C215.574 366.333 214.131 368.967 213.629 371.562C213.474 372.365 213.402 373.159 213.411 373.944C213.422 374.824 213.406 378.595 213.407 379.351C213.411 381.136 213.835 382.875 214.679 384.568C215.882 386.978 217.735 389.16 220.237 391.117C220.764 391.526 221.529 392.074 222.534 392.762C223.533 393.451 224.604 394.166 225.745 394.914C226.885 395.661 227.992 396.372 229.069 397.044C230.149 397.718 231.026 398.247 231.704 398.628C234.841 400.301 238.395 401.61 242.362 402.553C246.326 403.498 250.503 403.96 254.892 403.938C259.276 403.918 263.811 403.341 268.494 402.211C273.173 401.079 277.851 399.278 282.521 396.803C286.277 394.812 289.277 392.929 291.524 391.157C293.77 389.384 295.503 387.723 296.73 386.172C297.956 384.622 298.787 383.147 299.227 381.751C299.666 380.353 299.981 379.047 300.169 377.835C300.178 377.777 300.182 377.72 300.182 377.666C300.184 377.34 300.182 372.231 300.182 372.18ZM286.745 378.618C286.264 379.322 285.58 380.097 284.687 380.941C283.788 381.785 282.627 382.695 281.199 383.665C279.765 384.635 277.95 385.705 275.749 386.87C272.638 388.52 269.476 389.758 266.27 390.584C263.063 391.409 259.916 391.859 256.824 391.934C253.738 392.011 250.76 391.746 247.897 391.144C245.036 390.543 242.372 389.623 239.905 388.388C239.171 388.036 238.3 387.544 237.29 386.914C236.281 386.284 235.248 385.626 234.197 384.937C233.148 384.249 232.156 383.584 231.221 382.94C230.286 382.295 229.581 381.756 229.109 381.318C227.286 379.742 225.994 378.07 225.232 376.299C225.145 376.098 225.069 375.895 224.998 375.693C225.541 374.14 226.555 372.592 228.049 371.048C229.778 369.257 232.2 367.535 235.313 365.885C239.015 363.922 242.536 362.428 245.874 361.401C247.722 360.833 249.521 360.412 251.277 360.113L250.353 360.602C249.763 360.915 249.432 361.303 249.36 361.765C249.29 362.228 249.5 362.617 249.991 362.939L250.595 363.335C249.048 363.15 247.455 363.159 245.823 363.36C244.19 363.564 242.276 364.248 240.077 365.414C238.09 366.467 236.64 367.633 235.728 368.912C234.928 370.03 234.532 371.18 234.534 372.36C234.534 372.529 234.536 376.952 234.535 377.861C234.535 378.029 234.543 378.196 234.559 378.365C234.69 379.723 235.302 381.109 236.388 382.519C237.472 383.931 239.047 385.309 241.103 386.655C243.159 388.003 245.334 389.062 247.628 389.832C249.921 390.603 252.246 391.078 254.609 391.256C256.967 391.436 259.28 391.31 261.536 390.882C263.796 390.453 265.918 389.712 267.904 388.66C269.568 387.779 270.854 386.965 271.757 386.221C272.66 385.477 273.308 384.789 273.7 384.157C274.092 383.525 274.307 382.935 274.343 382.386C274.382 381.838 274.387 381.303 274.371 380.782C275.884 380.881 277.704 380.752 279.829 380.394C281.949 380.036 284.355 379.146 287.038 377.725C287.181 377.649 287.31 377.566 287.449 377.488C287.238 377.854 287.008 378.229 286.745 378.618ZM254.768 373.332C256.989 373.611 259.2 374.467 261.388 375.901C262.187 376.424 262.849 376.935 263.385 377.438C263.075 377.658 262.733 377.876 262.335 378.087C260.454 379.083 258.405 379.456 256.179 379.204C253.951 378.955 251.742 378.112 249.552 376.677C248.731 376.14 248.049 375.608 247.507 375.082C247.789 374.88 248.097 374.682 248.455 374.492C250.44 373.442 252.546 373.054 254.768 373.332ZM279.744 368.027C278.792 368.441 277.727 368.684 276.533 368.735C275.121 368.796 273.875 368.474 272.802 367.771L260.673 359.828C261.895 359.97 263.107 360.165 264.306 360.451C267.201 361.14 270.038 362.205 272.82 363.643C274.144 364.32 275.464 365.089 276.782 365.953C277.847 366.651 278.822 367.341 279.744 368.027Z" fill="black"/>
<path opacity="0.1" d="M224.996 375.693C225.54 374.14 226.554 372.592 228.046 371.048C229.776 369.257 232.198 367.536 235.31 365.885C239.012 363.922 242.532 362.428 245.871 361.401C247.72 360.833 249.518 360.412 251.274 360.113L254.537 358.384C255.125 358.072 255.816 357.917 256.605 357.924C257.389 357.932 258.028 358.096 258.519 358.418L260.673 359.828C261.894 359.97 263.107 360.165 264.306 360.451C267.202 361.14 270.038 362.205 272.82 363.643C274.144 364.32 275.464 365.089 276.782 365.953C277.848 366.65 278.822 367.34 279.744 368.027C279.918 367.95 280.097 367.88 280.263 367.792C281.336 367.222 281.96 366.534 282.137 365.726C282.31 364.918 281.735 364.018 280.413 363.023C279.313 362.176 278.102 361.321 276.782 360.457C275.464 359.593 274.144 358.825 272.82 358.147C270.038 356.708 267.202 355.644 264.306 354.955C261.406 354.265 258.441 353.995 255.418 354.143C252.39 354.291 249.204 354.88 245.871 355.905C242.533 356.933 239.012 358.426 235.31 360.389C232.198 362.039 229.776 363.761 228.046 365.552C226.314 367.343 225.224 369.139 224.769 370.942C224.319 372.746 224.47 374.531 225.23 376.299C225.143 376.097 225.067 375.895 224.996 375.693Z" fill="black"/>
<path opacity="0.1" d="M261.389 370.405C259.2 368.971 256.99 368.114 254.769 367.836C252.547 367.558 250.441 367.946 248.456 368.997C246.574 369.993 245.743 371.163 245.954 372.507C246.086 373.351 246.606 374.213 247.516 375.091C247.513 375.088 247.51 375.086 247.507 375.083C247.79 374.881 248.098 374.683 248.456 374.493C250.44 373.442 252.546 373.054 254.768 373.332C256.989 373.611 259.2 374.467 261.389 375.901C262.188 376.424 262.849 376.935 263.386 377.438C263.236 377.545 263.077 377.651 262.91 377.756C264.488 376.79 265.201 375.723 265.03 374.555C264.834 373.254 263.626 371.87 261.389 370.405Z" fill="black"/>
<path opacity="0.1" d="M254.607 385.759C252.245 385.581 249.919 385.106 247.626 384.335C245.332 383.565 243.157 382.505 241.101 381.158C239.046 379.812 237.47 378.435 236.386 377.022C235.301 375.612 234.688 374.226 234.557 372.868C234.531 372.601 234.541 372.336 234.556 372.072C234.55 372.168 234.531 372.263 234.531 372.36C234.532 372.528 234.533 376.951 234.532 377.86C234.532 378.028 234.54 378.195 234.557 378.364C234.688 379.722 235.3 381.108 236.385 382.518C237.469 383.931 239.045 385.308 241.1 386.654C243.156 388.002 245.331 389.061 247.625 389.831C249.919 390.602 252.244 391.077 254.606 391.255L254.607 385.759Z" fill="black"/>
<path opacity="0.1" d="M274.37 375.284C274.387 375.805 274.38 376.341 274.341 376.888L274.37 380.78C275.882 380.88 277.701 380.751 279.826 380.392V374.896C277.702 375.255 275.882 375.385 274.37 375.284Z" fill="black"/>
<path opacity="0.1" d="M242.362 397.056C238.395 396.113 234.841 394.804 231.704 393.131C231.025 392.75 230.148 392.221 229.069 391.547C227.991 390.875 226.884 390.164 225.744 389.417C224.604 388.669 223.533 387.954 222.534 387.265C221.529 386.578 220.764 386.029 220.237 385.62C217.735 383.664 215.882 381.481 214.679 379.071C213.829 377.367 213.415 375.616 213.417 373.817C213.417 373.859 213.412 373.902 213.412 373.944C213.423 374.824 213.407 378.595 213.408 379.351C213.412 381.136 213.836 382.875 214.68 384.568C215.883 386.978 217.736 389.16 220.238 391.117C220.764 391.526 221.53 392.074 222.535 392.762C223.534 393.451 224.605 394.166 225.745 394.914C226.886 395.661 227.993 396.372 229.07 397.044C230.15 397.718 231.027 398.247 231.705 398.628C234.842 400.301 238.396 401.61 242.363 402.553C246.326 403.498 250.504 403.96 254.893 403.938V398.442C250.503 398.463 246.326 398.001 242.362 397.056Z" fill="black"/>
<path d="M289.12 358.806C290.712 359.977 291.78 361.185 292.326 362.431C292.869 363.68 293.002 364.894 292.719 366.076C292.436 367.258 291.794 368.381 290.793 369.44C289.792 370.501 288.536 371.43 287.035 372.227C284.353 373.649 281.946 374.54 279.826 374.896C277.701 375.255 275.881 375.384 274.369 375.284C274.386 375.805 274.379 376.341 274.34 376.888C274.304 377.437 274.089 378.028 273.697 378.66C273.306 379.293 272.658 379.98 271.754 380.724C270.851 381.468 269.565 382.281 267.901 383.164C265.916 384.216 263.793 384.957 261.533 385.385C259.277 385.813 256.964 385.939 254.606 385.759C252.244 385.581 249.919 385.106 247.625 384.335C245.331 383.565 243.156 382.505 241.1 381.158C239.045 379.812 237.47 378.435 236.385 377.022C235.3 375.612 234.687 374.226 234.557 372.868C234.423 371.508 234.81 370.19 235.725 368.911C236.636 367.633 238.086 366.467 240.073 365.413C242.272 364.247 244.186 363.565 245.819 363.359C247.452 363.158 249.044 363.149 250.591 363.334L249.988 362.938C249.497 362.617 249.287 362.226 249.357 361.764C249.429 361.302 249.76 360.914 250.35 360.601L254.537 358.383C255.124 358.071 255.814 357.916 256.604 357.923C257.388 357.931 258.027 358.095 258.518 358.417L272.801 367.77C273.873 368.473 275.12 368.795 276.532 368.734C277.945 368.674 279.188 368.361 280.262 367.791C281.335 367.221 281.959 366.533 282.135 365.725C282.308 364.917 281.733 364.017 280.411 363.022C279.311 362.176 278.1 361.32 276.781 360.456C275.463 359.593 274.142 358.824 272.818 358.146C270.036 356.707 267.2 355.643 264.304 354.954C261.404 354.264 258.439 353.994 255.416 354.142C252.387 354.29 249.203 354.879 245.87 355.904C242.531 356.931 239.011 358.425 235.308 360.388C232.197 362.038 229.774 363.76 228.044 365.551C226.313 367.342 225.222 369.139 224.767 370.941C224.317 372.745 224.469 374.53 225.228 376.298C225.989 378.069 227.282 379.741 229.105 381.317C229.578 381.755 230.283 382.295 231.217 382.939C232.152 383.583 233.145 384.249 234.194 384.936C235.246 385.625 236.278 386.283 237.287 386.913C238.297 387.543 239.167 388.034 239.901 388.387C242.369 389.622 245.034 390.542 247.894 391.143C250.756 391.746 253.735 392.01 256.82 391.934C259.913 391.858 263.059 391.409 266.266 390.583C269.473 389.758 272.634 388.52 275.746 386.869C277.947 385.704 279.763 384.634 281.196 383.664C282.624 382.694 283.786 381.785 284.684 380.941C285.577 380.095 286.261 379.322 286.742 378.617C287.218 377.914 287.608 377.246 287.904 376.611C288.138 376.066 288.348 375.649 288.541 375.36C288.733 375.074 289.123 374.773 289.715 374.46L295.672 371.302C296.263 370.991 296.952 370.822 297.746 370.801C298.535 370.778 299.198 370.972 299.722 371.381C300.079 371.615 300.229 371.934 300.166 372.338C299.978 373.55 299.664 374.856 299.225 376.254C298.785 377.651 297.953 379.125 296.727 380.675C295.5 382.226 293.767 383.887 291.522 385.66C289.274 387.432 286.275 389.316 282.519 391.306C277.849 393.782 273.172 395.583 268.493 396.715C263.809 397.845 259.275 398.422 254.89 398.442C250.501 398.464 246.324 398.002 242.36 397.057C238.393 396.114 234.839 394.805 231.702 393.132C231.024 392.751 230.147 392.222 229.067 391.548C227.99 390.876 226.883 390.165 225.743 389.418C224.602 388.67 223.531 387.955 222.533 387.266C221.528 386.579 220.763 386.03 220.236 385.621C217.734 383.665 215.881 381.482 214.678 379.072C213.477 376.663 213.127 374.161 213.629 371.563C214.13 368.967 215.573 366.334 217.959 363.667C220.341 361.001 223.87 358.43 228.539 355.954C234.015 353.052 239.214 350.958 244.141 349.671C249.07 348.383 253.715 347.721 258.079 347.685C262.443 347.651 266.529 348.161 270.33 349.219C274.129 350.277 277.664 351.686 280.937 353.448C282.207 354.153 283.613 355.01 285.155 356.02C286.698 357.031 288.019 357.958 289.12 358.806ZM249.554 376.678C251.744 378.113 253.953 378.956 256.181 379.205C258.406 379.456 260.455 379.084 262.337 378.087C264.322 377.036 265.221 375.858 265.03 374.555C264.835 373.254 263.626 371.87 261.39 370.405C259.201 368.971 256.991 368.115 254.769 367.836C252.547 367.558 250.442 367.946 248.457 368.997C246.576 369.993 245.744 371.163 245.955 372.507C246.163 373.854 247.363 375.244 249.554 376.678Z" fill="#1A56CC"/>
<path d="M290.372 334.393V335.051C290.372 336.106 291.112 337.387 292.025 337.914L327.487 358.388C328.4 358.914 329.88 358.914 330.793 358.388L389.515 324.484C390.428 323.957 391.168 322.675 391.168 321.621V320.962C391.168 319.907 390.428 318.626 389.515 318.098L354.053 297.624C353.14 297.098 351.66 297.098 350.747 297.624L292.025 331.528C291.112 332.057 290.372 333.338 290.372 334.393Z" fill="#1A56CC"/>
<path d="M290.372 334.393V335.051C290.372 336.106 291.112 337.387 292.025 337.914L327.487 358.388C328.4 358.914 329.88 358.914 330.793 358.388L389.515 324.484C390.428 323.957 391.168 322.675 391.168 321.621V320.962C391.168 319.907 390.428 318.626 389.515 318.098L354.053 297.624C353.14 297.098 351.66 297.098 350.747 297.624L292.025 331.528C291.112 332.057 290.372 333.338 290.372 334.393Z" fill="#1A56CC"/>
<path opacity="0.2" d="M329.14 310.101L292.025 331.53C291.112 332.057 290.372 333.339 290.372 334.393V335.051C290.372 336.106 291.112 337.387 292.025 337.914L327.487 358.387C327.943 358.651 328.542 358.783 329.139 358.783H329.14V310.101Z" fill="black"/>
<path opacity="0.15" d="M329.14 310.101L292.025 331.53C291.112 332.057 290.372 333.339 290.372 334.393V335.051C290.372 336.106 291.112 337.387 292.025 337.914L327.487 358.387C327.943 358.651 328.542 358.783 329.139 358.783H329.14V310.101Z" fill="black"/>
<path opacity="0.2" d="M389.514 318.1L354.053 297.626C353.14 297.099 351.659 297.099 350.746 297.626L329.139 310.101V358.784C329.738 358.784 330.335 358.653 330.792 358.389L389.514 324.485C390.428 323.959 391.168 322.676 391.168 321.623V320.963C391.169 319.909 390.428 318.627 389.514 318.1Z" fill="black"/>
<path d="M321.809 350.634L292.025 333.438C291.112 332.911 291.112 332.056 292.025 331.529L350.747 297.625C351.66 297.099 353.14 297.099 354.054 297.625L389.515 318.099C390.428 318.626 390.428 319.481 389.515 320.007L379.774 325.632L376.364 327.601L330.794 353.911C329.881 354.438 328.401 354.438 327.488 353.911L324.599 352.243L321.809 350.634Z" fill="#1A56CC"/>
<path opacity="0.15" d="M348.846 322.067L389.515 318.1L349.205 320.382L354.053 297.626C353.558 297.34 352.899 297.224 352.253 297.247L344.647 328.007L291.354 332.402C291.316 332.774 291.533 333.153 292.025 333.438L335.065 330.94L329.14 354.307L336.715 330.844L344.066 330.418C344.991 330.364 345.835 329.99 346.491 329.404L346.496 329.403L346.497 329.397C347.109 328.847 347.557 328.112 347.738 327.264L348.846 322.067Z" fill="black"/>
<path opacity="0.3" d="M304.069 331.354L344.647 328.008L346.101 322.194L346.902 318.956L352.259 297.247C351.71 297.267 351.167 297.384 350.748 297.626L321.387 314.578L292.026 331.529C291.606 331.772 291.388 332.084 291.355 332.403L299.494 331.731L304.069 331.354Z" fill="white"/>
</svg>
